<svg width="384" height="179" viewBox="0 0 384 179" fill="none" xmlns="http://www.w3.org/2000/svg">
<g clip-path="url(#clip0_98_1508)">
<g filter="url(#filter0_d_98_1508)">
<g clip-path="url(#clip1_98_1508)">
<rect x="12" y="-233" width="360" height="396" rx="25" fill="white"/>
<mask id="path-3-inside-1_98_1508" fill="white">
<path d="M12 -35H372V31H12V-35Z"/>
</mask>
<path d="M372 31V30H12V31V32H372V31Z" fill="black" fill-opacity="0.15" mask="url(#path-3-inside-1_98_1508)"/>
<rect x="27" y="-18.0016" width="32.0031" height="32.0031" rx="8" fill="#FF00EE"/>
<rect x="27" y="-18.0016" width="32.0031" height="32.0031" rx="8" fill="white" fill-opacity="0.8"/>
<path d="M39.1769 3.67C37.9529 3.704 36.8875 3.47167 35.9809 2.973C35.0742 2.463 34.3772 1.76033 33.8899 0.865C33.4139 -0.0416668 33.1759 -1.06733 33.1759 -2.212C33.1759 -3.334 33.4139 -4.337 33.8899 -5.221C34.3772 -6.11633 35.0685 -6.81333 35.9639 -7.312C36.8705 -7.81067 37.9359 -8.06 39.1599 -8.06C39.9192 -8.06 40.5765 -7.93533 41.1319 -7.686C41.6985 -7.448 42.1915 -7.13633 42.6109 -6.751C42.9509 -6.445 43.0869 -6.11067 43.0189 -5.748C42.9622 -5.39667 42.7639 -5.15867 42.4239 -5.034C42.0952 -4.90933 41.7382 -4.98867 41.3529 -5.272C41.0129 -5.53267 40.6672 -5.72533 40.3159 -5.85C39.9645 -5.986 39.5282 -6.054 39.0069 -6.054C38.2815 -6.054 37.6469 -5.87833 37.1029 -5.527C36.5702 -5.187 36.1622 -4.72233 35.8789 -4.133C35.6069 -3.555 35.4709 -2.91467 35.4709 -2.212C35.4709 -1.45267 35.6069 -0.778334 35.8789 -0.189C36.1622 0.389 36.5702 0.842333 37.1029 1.171C37.6355 1.49967 38.2702 1.664 39.0069 1.664C39.4715 1.664 39.9249 1.60167 40.3669 1.477C40.8202 1.341 41.1999 1.14267 41.5059 0.882C41.8685 0.587333 42.2085 0.502333 42.5259 0.627C42.8432 0.751667 43.0359 1.001 43.1039 1.375C43.1832 1.73767 43.0755 2.06633 42.7809 2.361C42.3955 2.74633 41.8572 3.058 41.1659 3.296C40.4859 3.52267 39.8229 3.64733 39.1769 3.67ZM46.597 3.636C46.2343 3.636 45.951 3.52833 45.747 3.313C45.543 3.08633 45.441 2.78033 45.441 2.395V-6.615C45.441 -7.03433 45.543 -7.35167 45.747 -7.567C45.9623 -7.78233 46.2796 -7.89 46.699 -7.89H52.462C52.768 -7.89 53.0116 -7.81067 53.193 -7.652C53.3743 -7.50467 53.465 -7.28933 53.465 -7.006C53.465 -6.72267 53.3743 -6.496 53.193 -6.326C53.0116 -6.16733 52.768 -6.088 52.462 -6.088H47.651V-3.317H52.02C52.3146 -3.317 52.5526 -3.23767 52.734 -3.079C52.9266 -2.92033 53.023 -2.705 53.023 -2.433C53.023 -2.14967 52.9266 -1.923 52.734 -1.753C52.5526 -1.59433 52.3146 -1.515 52.02 -1.515H47.651V2.395C47.651 2.79167 47.566 3.09767 47.396 3.313C47.226 3.52833 46.9596 3.636 46.597 3.636Z" fill="#FF00EE"/>
<path d="M39.1769 3.67C37.9529 3.704 36.8875 3.47167 35.9809 2.973C35.0742 2.463 34.3772 1.76033 33.8899 0.865C33.4139 -0.0416668 33.1759 -1.06733 33.1759 -2.212C33.1759 -3.334 33.4139 -4.337 33.8899 -5.221C34.3772 -6.11633 35.0685 -6.81333 35.9639 -7.312C36.8705 -7.81067 37.9359 -8.06 39.1599 -8.06C39.9192 -8.06 40.5765 -7.93533 41.1319 -7.686C41.6985 -7.448 42.1915 -7.13633 42.6109 -6.751C42.9509 -6.445 43.0869 -6.11067 43.0189 -5.748C42.9622 -5.39667 42.7639 -5.15867 42.4239 -5.034C42.0952 -4.90933 41.7382 -4.98867 41.3529 -5.272C41.0129 -5.53267 40.6672 -5.72533 40.3159 -5.85C39.9645 -5.986 39.5282 -6.054 39.0069 -6.054C38.2815 -6.054 37.6469 -5.87833 37.1029 -5.527C36.5702 -5.187 36.1622 -4.72233 35.8789 -4.133C35.6069 -3.555 35.4709 -2.91467 35.4709 -2.212C35.4709 -1.45267 35.6069 -0.778334 35.8789 -0.189C36.1622 0.389 36.5702 0.842333 37.1029 1.171C37.6355 1.49967 38.2702 1.664 39.0069 1.664C39.4715 1.664 39.9249 1.60167 40.3669 1.477C40.8202 1.341 41.1999 1.14267 41.5059 0.882C41.8685 0.587333 42.2085 0.502333 42.5259 0.627C42.8432 0.751667 43.0359 1.001 43.1039 1.375C43.1832 1.73767 43.0755 2.06633 42.7809 2.361C42.3955 2.74633 41.8572 3.058 41.1659 3.296C40.4859 3.52267 39.8229 3.64733 39.1769 3.67ZM46.597 3.636C46.2343 3.636 45.951 3.52833 45.747 3.313C45.543 3.08633 45.441 2.78033 45.441 2.395V-6.615C45.441 -7.03433 45.543 -7.35167 45.747 -7.567C45.9623 -7.78233 46.2796 -7.89 46.699 -7.89H52.462C52.768 -7.89 53.0116 -7.81067 53.193 -7.652C53.3743 -7.50467 53.465 -7.28933 53.465 -7.006C53.465 -6.72267 53.3743 -6.496 53.193 -6.326C53.0116 -6.16733 52.768 -6.088 52.462 -6.088H47.651V-3.317H52.02C52.3146 -3.317 52.5526 -3.23767 52.734 -3.079C52.9266 -2.92033 53.023 -2.705 53.023 -2.433C53.023 -2.14967 52.9266 -1.923 52.734 -1.753C52.5526 -1.59433 52.3146 -1.515 52.02 -1.515H47.651V2.395C47.651 2.79167 47.566 3.09767 47.396 3.313C47.226 3.52833 46.9596 3.636 46.597 3.636Z" fill="black" fill-opacity="0.2"/>
<path d="M72.6242 13.17C72.0462 13.17 71.5362 13.051 71.0942 12.813C70.6635 12.5637 70.3348 12.235 70.1082 11.827C69.8815 11.4077 69.7682 10.9487 69.7682 10.45C69.7682 9.82667 70.0118 9.28267 70.4992 8.818C70.9865 8.35333 71.5985 8.07 72.3352 7.968C73.0832 7.85467 73.8198 7.97367 74.5452 8.325L75.2762 8.682L75.2592 9.753L74.4772 9.413C73.8992 9.175 73.3835 9.07867 72.9302 9.124C72.4768 9.16933 72.1255 9.32233 71.8762 9.583C71.6268 9.83233 71.5022 10.1213 71.5022 10.45C71.5022 10.8467 71.6382 11.1697 71.9102 11.419C72.1822 11.657 72.5562 11.776 73.0322 11.776C73.3948 11.776 73.7235 11.6967 74.0182 11.538C74.3242 11.368 74.5678 11.1357 74.7492 10.841C74.9305 10.535 75.0212 10.1837 75.0212 9.787V7.679C75.0212 7.101 74.8795 6.676 74.5962 6.404C74.3128 6.12067 73.8992 5.979 73.3552 5.979C73.1398 5.979 72.8735 6.03567 72.5562 6.149C72.2502 6.26233 71.9272 6.44933 71.5872 6.71C71.2812 6.92533 71.0035 6.97067 70.7542 6.846C70.5048 6.71 70.3632 6.49467 70.3292 6.2C70.3065 5.894 70.4368 5.639 70.7202 5.435C71.1282 5.10633 71.5815 4.86833 72.0802 4.721C72.5788 4.56233 73.0265 4.483 73.4232 4.483C74.6018 4.483 75.4802 4.772 76.0582 5.35C76.6475 5.91667 76.9422 6.78367 76.9422 7.951V12.218C76.9422 12.49 76.8628 12.711 76.7042 12.881C76.5455 13.051 76.3132 13.136 76.0072 13.136C75.7012 13.136 75.4632 13.0567 75.2932 12.898C75.1345 12.728 75.0552 12.507 75.0552 12.235V11.555H75.1912C75.0665 12.133 74.7888 12.5467 74.3582 12.796C73.9275 13.0453 73.3495 13.17 72.6242 13.17ZM71.0772 1.066C70.8845 0.782666 70.8788 0.516333 71.0602 0.267C71.2415 0.00633309 71.4852 -0.129667 71.7912 -0.141001C72.1085 -0.163667 72.3522 -0.016334 72.5222 0.300999L73.8142 2.868C73.9275 3.09467 73.9218 3.29867 73.7972 3.48C73.6725 3.65 73.4968 3.74633 73.2702 3.769C73.0435 3.78033 72.8678 3.68967 72.7432 3.497L71.0772 1.066ZM87.8738 13.17C86.4345 13.17 85.3182 12.677 84.5248 11.691C83.7428 10.6937 83.3518 9.22033 83.3518 7.271C83.3518 5.95633 83.5275 4.86833 83.8788 4.007C84.2415 3.13433 84.7572 2.48833 85.4258 2.069C86.1058 1.64967 86.9218 1.44 87.8738 1.44C88.8372 1.44 89.6532 1.64967 90.3218 2.069C90.9905 2.48833 91.5005 3.12867 91.8518 3.99C92.2145 4.85133 92.3958 5.945 92.3958 7.271C92.3958 9.22033 91.9992 10.6937 91.2058 11.691C90.4238 12.677 89.3132 13.17 87.8738 13.17ZM87.8738 11.47C88.7012 11.47 89.3245 11.1413 89.7438 10.484C90.1745 9.82667 90.3898 8.75 90.3898 7.254C90.3898 6.24533 90.2935 5.44067 90.1008 4.84C89.9082 4.228 89.6248 3.79167 89.2508 3.531C88.8882 3.27033 88.4292 3.14 87.8738 3.14C87.3185 3.14 86.8538 3.276 86.4798 3.548C86.1172 3.80867 85.8395 4.245 85.6468 4.857C85.4542 5.45767 85.3578 6.25667 85.3578 7.254C85.3578 8.75 85.5675 9.82667 85.9868 10.484C86.4062 11.1413 87.0352 11.47 87.8738 11.47ZM95.2452 13.085C94.8712 13.085 94.5709 12.9717 94.3442 12.745C94.1175 12.507 94.0042 12.2123 94.0042 11.861C94.0042 11.4983 94.1175 11.2093 94.3442 10.994C94.5709 10.7787 94.8712 10.671 95.2452 10.671C95.6079 10.671 95.8969 10.7787 96.1122 10.994C96.3389 11.2093 96.4522 11.4983 96.4522 11.861C96.4522 12.2123 96.3389 12.507 96.1122 12.745C95.8969 12.9717 95.6079 13.085 95.2452 13.085ZM102.574 13.17C101.192 13.17 100.109 12.8697 99.3272 12.269C98.5452 11.6683 98.1542 10.8353 98.1542 9.77C98.1542 9.06733 98.4035 8.45533 98.9022 7.934C99.4122 7.41267 100.064 7.101 100.857 6.999V7.339C100.064 7.169 99.4632 6.89133 99.0552 6.506C98.6585 6.10933 98.4602 5.49733 98.4602 4.67C98.4602 3.66133 98.8285 2.87367 99.5652 2.307C100.313 1.729 101.316 1.44 102.574 1.44C103.844 1.44 104.847 1.729 105.583 2.307C106.331 2.87367 106.705 3.66133 106.705 4.67C106.705 5.50867 106.501 6.12633 106.093 6.523C105.697 6.91967 105.107 7.186 104.325 7.322V6.999C105.107 7.11233 105.748 7.42967 106.246 7.951C106.745 8.47233 106.994 9.07867 106.994 9.77C106.994 10.8353 106.603 11.6683 105.821 12.269C105.039 12.8697 103.957 13.17 102.574 13.17ZM102.574 11.555C103.402 11.555 104.025 11.3963 104.444 11.079C104.864 10.7503 105.073 10.2687 105.073 9.634C105.073 9.13533 104.858 8.74433 104.427 8.461C104.008 8.17767 103.39 8.036 102.574 8.036C101.758 8.036 101.135 8.17767 100.704 8.461C100.285 8.74433 100.075 9.13533 100.075 9.634C100.075 10.2687 100.285 10.7503 100.704 11.079C101.135 11.3963 101.758 11.555 102.574 11.555ZM102.574 6.404C103.288 6.404 103.832 6.285 104.206 6.047C104.592 5.79767 104.784 5.40667 104.784 4.874C104.784 4.30733 104.586 3.86533 104.189 3.548C103.804 3.21933 103.266 3.055 102.574 3.055C101.883 3.055 101.345 3.21933 100.959 3.548C100.574 3.86533 100.381 4.30733 100.381 4.874C100.381 5.40667 100.568 5.79767 100.942 6.047C101.316 6.285 101.86 6.404 102.574 6.404ZM109.929 13.136C109.6 13.136 109.356 13.0453 109.198 12.864C109.05 12.6827 108.977 12.4277 108.977 12.099V2.63C108.977 2.24467 109.05 1.95567 109.198 1.763C109.356 1.57033 109.6 1.474 109.929 1.474C110.246 1.474 110.484 1.57033 110.643 1.763C110.813 1.95567 110.898 2.24467 110.898 2.63V7.968V7.985L113.89 4.908C114.105 4.69267 114.337 4.55667 114.587 4.5C114.836 4.44333 115.074 4.52833 115.301 4.755C115.414 4.86833 115.488 5.00433 115.522 5.163C115.556 5.31033 115.544 5.47467 115.488 5.656C115.442 5.826 115.346 5.99033 115.199 6.149L112.683 8.784V7.917L115.777 11.3C116.026 11.572 116.173 11.8383 116.219 12.099C116.275 12.3483 116.202 12.5863 115.998 12.813C115.794 13.051 115.556 13.136 115.284 13.068C115.012 13.0113 114.717 12.8243 114.4 12.507L111.595 9.634L110.898 10.348V12.099C110.898 12.439 110.813 12.6997 110.643 12.881C110.484 13.051 110.246 13.136 109.929 13.136ZM119.064 13.136C118.747 13.136 118.503 13.0453 118.333 12.864C118.163 12.6827 118.078 12.4277 118.078 12.099V5.571C118.078 5.24233 118.163 4.993 118.333 4.823C118.503 4.653 118.741 4.568 119.047 4.568C119.365 4.568 119.608 4.653 119.778 4.823C119.948 4.993 120.033 5.24233 120.033 5.571V6.863L119.846 6.387C120.073 5.79767 120.424 5.34433 120.9 5.027C121.376 4.69833 121.943 4.534 122.6 4.534C123.28 4.534 123.83 4.69833 124.249 5.027C124.68 5.34433 124.98 5.83167 125.15 6.489H124.912C125.139 5.877 125.513 5.401 126.034 5.061C126.556 4.70967 127.156 4.534 127.836 4.534C128.777 4.534 129.474 4.81167 129.927 5.367C130.392 5.92233 130.624 6.77233 130.624 7.917V12.099C130.624 12.4277 130.534 12.6827 130.352 12.864C130.171 13.0453 129.922 13.136 129.604 13.136C129.287 13.136 129.038 13.0453 128.856 12.864C128.686 12.6827 128.601 12.4277 128.601 12.099V8.002C128.601 7.33333 128.494 6.85167 128.278 6.557C128.063 6.26233 127.7 6.115 127.19 6.115C126.612 6.115 126.159 6.319 125.83 6.727C125.502 7.12367 125.337 7.67333 125.337 8.376V12.099C125.337 12.4277 125.252 12.6827 125.082 12.864C124.912 13.0453 124.669 13.136 124.351 13.136C124.023 13.136 123.768 13.0453 123.586 12.864C123.416 12.6827 123.331 12.4277 123.331 12.099V8.002C123.331 7.33333 123.218 6.85167 122.991 6.557C122.776 6.26233 122.425 6.115 121.937 6.115C121.359 6.115 120.906 6.319 120.577 6.727C120.249 7.12367 120.084 7.67333 120.084 8.376V12.099C120.084 12.439 119.999 12.6997 119.829 12.881C119.659 13.051 119.404 13.136 119.064 13.136ZM140.888 13.17C140.163 13.17 139.523 12.9943 138.967 12.643C138.423 12.2917 137.998 11.7873 137.692 11.13C137.386 10.4727 137.233 9.70767 137.233 8.835C137.233 7.951 137.386 7.186 137.692 6.54C137.998 5.894 138.423 5.401 138.967 5.061C139.523 4.70967 140.163 4.534 140.888 4.534C141.58 4.534 142.186 4.704 142.707 5.044C143.229 5.384 143.58 5.843 143.761 6.421H143.574V2.494C143.574 2.16533 143.659 1.916 143.829 1.746C144.011 1.56467 144.26 1.474 144.577 1.474C144.906 1.474 145.155 1.56467 145.325 1.746C145.507 1.916 145.597 2.16533 145.597 2.494V12.099C145.597 12.4277 145.512 12.6827 145.342 12.864C145.172 13.0453 144.923 13.136 144.594 13.136C144.277 13.136 144.028 13.0453 143.846 12.864C143.676 12.6827 143.591 12.4277 143.591 12.099V10.739L143.778 11.198C143.608 11.7987 143.263 12.2803 142.741 12.643C142.22 12.9943 141.602 13.17 140.888 13.17ZM141.449 11.623C142.107 11.623 142.628 11.385 143.013 10.909C143.41 10.433 143.608 9.74167 143.608 8.835C143.608 7.93967 143.41 7.254 143.013 6.778C142.628 6.302 142.107 6.064 141.449 6.064C140.769 6.064 140.231 6.302 139.834 6.778C139.449 7.254 139.256 7.93967 139.256 8.835C139.256 9.74167 139.449 10.433 139.834 10.909C140.231 11.385 140.769 11.623 141.449 11.623ZM151.83 13.17C150.912 13.17 150.119 12.9943 149.45 12.643C148.793 12.2917 148.289 11.793 147.937 11.147C147.597 10.501 147.427 9.736 147.427 8.852C147.427 8.01333 147.609 7.26533 147.971 6.608C148.334 5.95067 148.833 5.44067 149.467 5.078C150.102 4.71533 150.822 4.534 151.626 4.534C152.374 4.534 153.043 4.704 153.632 5.044C154.233 5.37267 154.692 5.82033 155.009 6.387C155.338 6.95367 155.502 7.55433 155.502 8.189C155.502 8.43833 155.451 8.63667 155.349 8.784C155.259 8.93133 155.123 9.04467 154.941 9.124C154.76 9.20333 154.528 9.27133 154.244 9.328L154.023 9.379C153.57 9.46967 153.071 9.532 152.527 9.566C151.995 9.6 151.252 9.62833 150.3 9.651C149.892 9.651 149.473 9.65667 149.042 9.668L149.076 8.223H149.654C150.754 8.223 151.626 8.20033 152.272 8.155C152.93 8.10967 153.491 7.99067 153.955 7.798L153.683 8.036C153.717 7.46933 153.536 7.01033 153.139 6.659C152.743 6.29633 152.238 6.115 151.626 6.115C150.89 6.115 150.329 6.336 149.943 6.778C149.558 7.20867 149.365 7.83767 149.365 8.665V8.869C149.354 9.52633 149.45 10.059 149.654 10.467C149.87 10.875 150.159 11.1697 150.521 11.351C150.895 11.5323 151.343 11.623 151.864 11.623C152.17 11.623 152.471 11.5833 152.765 11.504C153.071 11.4247 153.389 11.2943 153.717 11.113C154.012 10.9543 154.278 10.9487 154.516 11.096C154.754 11.232 154.873 11.436 154.873 11.708C154.873 11.98 154.726 12.218 154.431 12.422C154.08 12.6487 153.672 12.83 153.207 12.966C152.743 13.102 152.284 13.17 151.83 13.17ZM165.272 13.17C164.592 13.17 164.065 13.0567 163.691 12.83C163.317 12.592 163.056 12.2407 162.909 11.776C162.761 11.3113 162.688 10.705 162.688 9.957V6.285H161.974C161.713 6.285 161.509 6.217 161.362 6.081C161.226 5.93367 161.158 5.73533 161.158 5.486C161.158 5.23667 161.226 5.044 161.362 4.908C161.509 4.76067 161.713 4.687 161.974 4.687H162.688V3.106C162.688 2.78867 162.773 2.53933 162.943 2.358C163.113 2.17667 163.351 2.086 163.657 2.086C163.951 2.086 164.184 2.17667 164.354 2.358C164.524 2.53933 164.609 2.78867 164.609 3.106V4.687H165.544C165.804 4.687 166.003 4.76067 166.139 4.908C166.286 5.044 166.36 5.23667 166.36 5.486C166.36 5.73533 166.286 5.93367 166.139 6.081C166.003 6.217 165.804 6.285 165.544 6.285H164.609V9.838C164.609 10.3027 164.62 10.6427 164.643 10.858C164.665 11.062 164.739 11.2207 164.864 11.334C165 11.4473 165.215 11.504 165.51 11.504C165.623 11.504 165.719 11.487 165.799 11.453C165.889 11.4303 165.98 11.419 166.071 11.419C166.241 11.419 166.394 11.4757 166.53 11.589C166.677 11.7023 166.768 11.861 166.802 12.065C166.836 12.2463 166.802 12.422 166.7 12.592C166.609 12.762 166.467 12.8867 166.275 12.966C166.139 13.0227 165.969 13.068 165.765 13.102C165.561 13.1473 165.396 13.17 165.272 13.17ZM171.862 13.17C171.058 13.17 170.332 12.983 169.686 12.609C169.052 12.235 168.553 11.7193 168.19 11.062C167.839 10.4047 167.663 9.66233 167.663 8.835C167.663 8.019 167.839 7.28233 168.19 6.625C168.553 5.96767 169.052 5.45767 169.686 5.095C170.332 4.721 171.058 4.534 171.862 4.534C172.678 4.534 173.404 4.721 174.038 5.095C174.684 5.45767 175.183 5.96767 175.534 6.625C175.897 7.28233 176.078 8.019 176.078 8.835C176.078 9.66233 175.897 10.4047 175.534 11.062C175.183 11.7193 174.684 12.235 174.038 12.609C173.404 12.983 172.678 13.17 171.862 13.17ZM171.862 11.623C172.282 11.623 172.661 11.5097 173.001 11.283C173.341 11.045 173.613 10.7163 173.817 10.297C174.021 9.86633 174.123 9.379 174.123 8.835C174.123 8.291 174.021 7.80933 173.817 7.39C173.613 6.97067 173.341 6.64767 173.001 6.421C172.661 6.183 172.282 6.064 171.862 6.064C171.454 6.064 171.075 6.183 170.723 6.421C170.383 6.64767 170.111 6.97067 169.907 7.39C169.703 7.80933 169.601 8.291 169.601 8.835C169.601 9.379 169.703 9.86633 169.907 10.297C170.111 10.7163 170.383 11.045 170.723 11.283C171.075 11.5097 171.454 11.623 171.862 11.623ZM178.871 13.119C178.565 13.119 178.327 13.0227 178.157 12.83C177.998 12.6373 177.919 12.3653 177.919 12.014V5.673C177.919 5.32167 177.998 5.05533 178.157 4.874C178.327 4.68133 178.565 4.585 178.871 4.585C179.177 4.585 179.415 4.68133 179.585 4.874C179.755 5.05533 179.84 5.32167 179.84 5.673V12.014C179.84 12.3653 179.755 12.6373 179.585 12.83C179.415 13.0227 179.177 13.119 178.871 13.119ZM178.871 3.293C178.565 3.293 178.304 3.191 178.089 2.987C177.885 2.783 177.783 2.52233 177.783 2.205C177.783 1.88767 177.885 1.627 178.089 1.423C178.304 1.219 178.565 1.117 178.871 1.117C179.165 1.117 179.42 1.219 179.636 1.423C179.851 1.627 179.959 1.88767 179.959 2.205C179.959 2.52233 179.851 2.783 179.636 2.987C179.42 3.191 179.165 3.293 178.871 3.293Z" fill="black" fill-opacity="0.45"/>
<mask id="path-8-inside-2_98_1508" fill="white">
<path d="M12 31H372V97H12V31Z"/>
</mask>
<path d="M372 97V96H12V97V98H372V97Z" fill="black" fill-opacity="0.15" mask="url(#path-8-inside-2_98_1508)"/>
<rect x="27" y="47.9984" width="32.0031" height="32.0031" rx="8" fill="#5FD400"/>
<rect x="27" y="47.9984" width="32.0031" height="32.0031" rx="8" fill="white" fill-opacity="0.8"/>
<path d="M38.3053 69.67C37.0813 69.704 36.0159 69.4717 35.1093 68.973C34.2026 68.463 33.5056 67.7603 33.0183 66.865C32.5423 65.9583 32.3043 64.9327 32.3043 63.788C32.3043 62.666 32.5423 61.663 33.0183 60.779C33.5056 59.8837 34.1969 59.1867 35.0923 58.688C35.9989 58.1893 37.0643 57.94 38.2883 57.94C39.0476 57.94 39.7049 58.0647 40.2603 58.314C40.8269 58.552 41.3199 58.8637 41.7393 59.249C42.0793 59.555 42.2153 59.8893 42.1473 60.252C42.0906 60.6033 41.8923 60.8413 41.5523 60.966C41.2236 61.0907 40.8666 61.0113 40.4813 60.728C40.1413 60.4673 39.7956 60.2747 39.4443 60.15C39.0929 60.014 38.6566 59.946 38.1353 59.946C37.4099 59.946 36.7753 60.1217 36.2313 60.473C35.6986 60.813 35.2906 61.2777 35.0073 61.867C34.7353 62.445 34.5993 63.0853 34.5993 63.788C34.5993 64.5473 34.7353 65.2217 35.0073 65.811C35.2906 66.389 35.6986 66.8423 36.2313 67.171C36.7639 67.4997 37.3986 67.664 38.1353 67.664C38.5999 67.664 39.0533 67.6017 39.4953 67.477C39.9486 67.341 40.3283 67.1427 40.6343 66.882C40.9969 66.5873 41.3369 66.5023 41.6543 66.627C41.9716 66.7517 42.1643 67.001 42.2323 67.375C42.3116 67.7377 42.2039 68.0663 41.9093 68.361C41.5239 68.7463 40.9856 69.058 40.2943 69.296C39.6143 69.5227 38.9513 69.6473 38.3053 69.67ZM49.7975 69.67C48.5735 69.704 47.5082 69.4717 46.6015 68.973C45.6949 68.463 44.9979 67.7603 44.5105 66.865C44.0345 65.9583 43.7965 64.9327 43.7965 63.788C43.7965 62.666 44.0345 61.663 44.5105 60.779C44.9979 59.8837 45.6892 59.1867 46.5845 58.688C47.4912 58.1893 48.5565 57.94 49.7805 57.94C50.5399 57.94 51.1972 58.0647 51.7525 58.314C52.3192 58.552 52.8122 58.8637 53.2315 59.249C53.5715 59.555 53.7075 59.8893 53.6395 60.252C53.5829 60.6033 53.3845 60.8413 53.0445 60.966C52.7159 61.0907 52.3589 61.0113 51.9735 60.728C51.6335 60.4673 51.2879 60.2747 50.9365 60.15C50.5852 60.014 50.1489 59.946 49.6275 59.946C48.9022 59.946 48.2675 60.1217 47.7235 60.473C47.1909 60.813 46.7829 61.2777 46.4995 61.867C46.2275 62.445 46.0915 63.0853 46.0915 63.788C46.0915 64.5473 46.2275 65.2217 46.4995 65.811C46.7829 66.389 47.1909 66.8423 47.7235 67.171C48.2562 67.4997 48.8909 67.664 49.6275 67.664C50.0922 67.664 50.5455 67.6017 50.9875 67.477C51.4409 67.341 51.8205 67.1427 52.1265 66.882C52.4892 66.5873 52.8292 66.5023 53.1465 66.627C53.4639 66.7517 53.6565 67.001 53.7245 67.375C53.8039 67.7377 53.6962 68.0663 53.4015 68.361C53.0162 68.7463 52.4779 69.058 51.7865 69.296C51.1065 69.5227 50.4435 69.6473 49.7975 69.67Z" fill="#5FD400"/>
<path d="M38.3053 69.67C37.0813 69.704 36.0159 69.4717 35.1093 68.973C34.2026 68.463 33.5056 67.7603 33.0183 66.865C32.5423 65.9583 32.3043 64.9327 32.3043 63.788C32.3043 62.666 32.5423 61.663 33.0183 60.779C33.5056 59.8837 34.1969 59.1867 35.0923 58.688C35.9989 58.1893 37.0643 57.94 38.2883 57.94C39.0476 57.94 39.7049 58.0647 40.2603 58.314C40.8269 58.552 41.3199 58.8637 41.7393 59.249C42.0793 59.555 42.2153 59.8893 42.1473 60.252C42.0906 60.6033 41.8923 60.8413 41.5523 60.966C41.2236 61.0907 40.8666 61.0113 40.4813 60.728C40.1413 60.4673 39.7956 60.2747 39.4443 60.15C39.0929 60.014 38.6566 59.946 38.1353 59.946C37.4099 59.946 36.7753 60.1217 36.2313 60.473C35.6986 60.813 35.2906 61.2777 35.0073 61.867C34.7353 62.445 34.5993 63.0853 34.5993 63.788C34.5993 64.5473 34.7353 65.2217 35.0073 65.811C35.2906 66.389 35.6986 66.8423 36.2313 67.171C36.7639 67.4997 37.3986 67.664 38.1353 67.664C38.5999 67.664 39.0533 67.6017 39.4953 67.477C39.9486 67.341 40.3283 67.1427 40.6343 66.882C40.9969 66.5873 41.3369 66.5023 41.6543 66.627C41.9716 66.7517 42.1643 67.001 42.2323 67.375C42.3116 67.7377 42.2039 68.0663 41.9093 68.361C41.5239 68.7463 40.9856 69.058 40.2943 69.296C39.6143 69.5227 38.9513 69.6473 38.3053 69.67ZM49.7975 69.67C48.5735 69.704 47.5082 69.4717 46.6015 68.973C45.6949 68.463 44.9979 67.7603 44.5105 66.865C44.0345 65.9583 43.7965 64.9327 43.7965 63.788C43.7965 62.666 44.0345 61.663 44.5105 60.779C44.9979 59.8837 45.6892 59.1867 46.5845 58.688C47.4912 58.1893 48.5565 57.94 49.7805 57.94C50.5399 57.94 51.1972 58.0647 51.7525 58.314C52.3192 58.552 52.8122 58.8637 53.2315 59.249C53.5715 59.555 53.7075 59.8893 53.6395 60.252C53.5829 60.6033 53.3845 60.8413 53.0445 60.966C52.7159 61.0907 52.3589 61.0113 51.9735 60.728C51.6335 60.4673 51.2879 60.2747 50.9365 60.15C50.5852 60.014 50.1489 59.946 49.6275 59.946C48.9022 59.946 48.2675 60.1217 47.7235 60.473C47.1909 60.813 46.7829 61.2777 46.4995 61.867C46.2275 62.445 46.0915 63.0853 46.0915 63.788C46.0915 64.5473 46.2275 65.2217 46.4995 65.811C46.7829 66.389 47.1909 66.8423 47.7235 67.171C48.2562 67.4997 48.8909 67.664 49.6275 67.664C50.0922 67.664 50.5455 67.6017 50.9875 67.477C51.4409 67.341 51.8205 67.1427 52.1265 66.882C52.4892 66.5873 52.8292 66.5023 53.1465 66.627C53.4639 66.7517 53.6565 67.001 53.7245 67.375C53.8039 67.7377 53.6962 68.0663 53.4015 68.361C53.0162 68.7463 52.4779 69.058 51.7865 69.296C51.1065 69.5227 50.4435 69.6473 49.7975 69.67Z" fill="black" fill-opacity="0.2"/>
<path d="M75.9052 60.17C74.6812 60.204 73.6158 59.9717 72.7092 59.473C71.8025 58.963 71.1055 58.2603 70.6182 57.365C70.1422 56.4583 69.9042 55.4327 69.9042 54.288C69.9042 53.166 70.1422 52.163 70.6182 51.279C71.1055 50.3837 71.7968 49.6867 72.6922 49.188C73.5988 48.6893 74.6642 48.44 75.8882 48.44C76.6475 48.44 77.3048 48.5647 77.8602 48.814C78.4268 49.052 78.9198 49.3637 79.3392 49.749C79.6792 50.055 79.8152 50.3893 79.7472 50.752C79.6905 51.1033 79.4922 51.3413 79.1522 51.466C78.8235 51.5907 78.4665 51.5113 78.0812 51.228C77.7412 50.9673 77.3955 50.7747 77.0442 50.65C76.6928 50.514 76.2565 50.446 75.7352 50.446C75.0098 50.446 74.3752 50.6217 73.8312 50.973C73.2985 51.313 72.8905 51.7777 72.6072 52.367C72.3352 52.945 72.1992 53.5853 72.1992 54.288C72.1992 55.0473 72.3352 55.7217 72.6072 56.311C72.8905 56.889 73.2985 57.3423 73.8312 57.671C74.3638 57.9997 74.9985 58.164 75.7352 58.164C76.1998 58.164 76.6532 58.1017 77.0952 57.977C77.5485 57.841 77.9282 57.6427 78.2342 57.382C78.5968 57.0873 78.9368 57.0023 79.2542 57.127C79.5715 57.2517 79.7642 57.501 79.8322 57.875C79.9115 58.2377 79.8038 58.5663 79.5092 58.861C79.1238 59.2463 78.5855 59.558 77.8942 59.796C77.2142 60.0227 76.5512 60.1473 75.9052 60.17ZM85.1926 60.17C84.3766 60.17 83.64 59.983 82.9826 59.609C82.3366 59.235 81.8266 58.7193 81.4526 58.062C81.09 57.4047 80.9086 56.6623 80.9086 55.835C80.9086 55.019 81.09 54.2823 81.4526 53.625C81.8266 52.9677 82.3366 52.452 82.9826 52.078C83.64 51.704 84.3766 51.517 85.1926 51.517C86.02 51.517 86.7566 51.704 87.4026 52.078C88.06 52.452 88.57 52.9677 88.9326 53.625C89.2953 54.2823 89.4766 55.019 89.4766 55.835C89.4766 56.6623 89.2953 57.4047 88.9326 58.062C88.57 58.7193 88.06 59.235 87.4026 59.609C86.7566 59.983 86.02 60.17 85.1926 60.17ZM85.1926 58.504C85.5893 58.504 85.9463 58.3907 86.2636 58.164C86.5923 57.9373 86.853 57.6257 87.0456 57.229C87.2383 56.821 87.3346 56.3563 87.3346 55.835C87.3346 55.3137 87.2383 54.8547 87.0456 54.458C86.853 54.05 86.5923 53.7383 86.2636 53.523C85.9463 53.2963 85.5893 53.183 85.1926 53.183C84.8073 53.183 84.4503 53.2963 84.1216 53.523C83.793 53.7383 83.5266 54.05 83.3226 54.458C83.13 54.8547 83.0336 55.3137 83.0336 55.835C83.0336 56.3563 83.13 56.821 83.3226 57.229C83.5266 57.6257 83.793 57.9373 84.1216 58.164C84.4503 58.3907 84.8073 58.504 85.1926 58.504ZM94.6127 59.116C94.6127 59.422 94.5051 59.6713 94.2897 59.864C94.0857 60.0453 93.8137 60.136 93.4737 60.136C92.8957 60.136 92.4424 60.0283 92.1137 59.813C91.7851 59.5863 91.5641 59.2973 91.4507 58.946C91.3374 58.5947 91.2807 58.1753 91.2807 57.688V49.664C91.2807 49.29 91.3657 49.001 91.5357 48.797C91.7171 48.5817 91.9834 48.474 92.3347 48.474C92.6747 48.474 92.9354 48.5817 93.1167 48.797C93.2981 49.001 93.3887 49.29 93.3887 49.664V57.671V57.79C93.3887 57.994 93.4114 58.1357 93.4567 58.215C93.5021 58.2943 93.6211 58.334 93.8137 58.334C94.0744 58.334 94.2727 58.419 94.4087 58.589C94.5447 58.7477 94.6127 58.9233 94.6127 59.116ZM99.2652 59.116C99.2652 59.422 99.1575 59.6713 98.9422 59.864C98.7382 60.0453 98.4662 60.136 98.1262 60.136C97.5482 60.136 97.0948 60.0283 96.7662 59.813C96.4375 59.5863 96.2165 59.2973 96.1032 58.946C95.9898 58.5947 95.9332 58.1753 95.9332 57.688V49.664C95.9332 49.29 96.0182 49.001 96.1882 48.797C96.3695 48.5817 96.6358 48.474 96.9872 48.474C97.3272 48.474 97.5878 48.5817 97.7692 48.797C97.9505 49.001 98.0412 49.29 98.0412 49.664V57.671V57.79C98.0412 57.994 98.0638 58.1357 98.1092 58.215C98.1545 58.2943 98.2735 58.334 98.4662 58.334C98.7268 58.334 98.9252 58.419 99.0612 58.589C99.1972 58.7477 99.2652 58.9233 99.2652 59.116ZM104.73 60.17C103.8 60.17 102.996 59.9943 102.316 59.643C101.647 59.2917 101.137 58.793 100.786 58.147C100.434 57.501 100.259 56.736 100.259 55.852C100.259 55.0133 100.44 54.2653 100.803 53.608C101.177 52.9507 101.687 52.4407 102.333 52.078C102.979 51.704 103.704 51.517 104.509 51.517C105.279 51.517 105.959 51.687 106.549 52.027C107.149 52.367 107.614 52.8203 107.943 53.387C108.283 53.9423 108.453 54.5317 108.453 55.155C108.453 55.4157 108.396 55.6253 108.283 55.784C108.169 55.9427 108.016 56.0673 107.824 56.158C107.631 56.2373 107.382 56.311 107.076 56.379L106.838 56.43C106.407 56.5093 105.937 56.566 105.427 56.6C104.917 56.634 104.203 56.6623 103.285 56.685C102.888 56.685 102.474 56.6907 102.044 56.702L102.095 55.172H102.622C103.687 55.172 104.531 55.1493 105.155 55.104C105.778 55.0587 106.305 54.9453 106.736 54.764L106.464 55.002C106.486 54.4807 106.311 54.0557 105.937 53.727C105.563 53.387 105.092 53.217 104.526 53.217C103.823 53.217 103.29 53.421 102.928 53.829C102.565 54.237 102.384 54.8433 102.384 55.648V55.852C102.384 56.498 102.48 57.0193 102.673 57.416C102.877 57.8013 103.154 58.079 103.506 58.249C103.857 58.419 104.282 58.504 104.781 58.504C105.064 58.504 105.353 58.4643 105.648 58.385C105.954 58.3057 106.26 58.181 106.566 58.011C106.883 57.841 107.166 57.8353 107.416 57.994C107.676 58.1413 107.807 58.368 107.807 58.674C107.807 58.9687 107.642 59.2237 107.314 59.439C106.974 59.6657 106.571 59.847 106.107 59.983C105.642 60.1077 105.183 60.17 104.73 60.17ZM102.18 48.134C101.964 47.828 101.953 47.539 102.146 47.267C102.338 46.9837 102.605 46.8363 102.945 46.825C103.285 46.8023 103.545 46.961 103.727 47.301L104.985 49.8C105.098 50.038 105.087 50.2533 104.951 50.446C104.815 50.6387 104.628 50.7463 104.39 50.769C104.152 50.7803 103.959 50.684 103.812 50.48L102.18 48.134ZM114.012 63.247C113.377 63.247 112.777 63.179 112.21 63.043C111.655 62.9183 111.162 62.7313 110.731 62.482C110.402 62.2667 110.232 61.989 110.221 61.649C110.221 61.3203 110.346 61.0653 110.595 60.884C110.844 60.7027 111.128 60.7027 111.445 60.884C111.706 61.0313 112.006 61.1617 112.346 61.275C112.607 61.3657 112.856 61.428 113.094 61.462C113.332 61.496 113.576 61.513 113.825 61.513C114.573 61.513 115.134 61.3373 115.508 60.986C115.893 60.646 116.086 60.119 116.086 59.405V57.926H116.239C116.069 58.4927 115.718 58.946 115.185 59.286C114.652 59.626 114.046 59.796 113.366 59.796C112.629 59.796 111.989 59.626 111.445 59.286C110.901 58.9347 110.482 58.4473 110.187 57.824C109.904 57.2007 109.762 56.4753 109.762 55.648C109.762 54.8207 109.904 54.0953 110.187 53.472C110.482 52.8487 110.901 52.367 111.445 52.027C111.989 51.687 112.629 51.517 113.366 51.517C114.057 51.517 114.664 51.687 115.185 52.027C115.718 52.367 116.063 52.8147 116.222 53.37L116.052 53.812V52.656C116.052 52.2933 116.143 52.0213 116.324 51.84C116.517 51.6473 116.783 51.551 117.123 51.551C117.452 51.551 117.707 51.6473 117.888 51.84C118.069 52.0327 118.16 52.3047 118.16 52.656V59.133C118.16 60.493 117.809 61.5187 117.106 62.21C116.415 62.9013 115.383 63.247 114.012 63.247ZM113.978 58.113C114.613 58.113 115.117 57.892 115.491 57.45C115.876 57.008 116.069 56.4073 116.069 55.648C116.069 54.8773 115.876 54.2767 115.491 53.846C115.117 53.404 114.613 53.183 113.978 53.183C113.559 53.183 113.19 53.285 112.873 53.489C112.556 53.6817 112.312 53.965 112.142 54.339C111.972 54.7017 111.887 55.138 111.887 55.648C111.887 56.158 111.972 56.6 112.142 56.974C112.312 57.3367 112.556 57.62 112.873 57.824C113.19 58.0167 113.559 58.113 113.978 58.113ZM124.377 60.17C123.448 60.17 122.643 59.9943 121.963 59.643C121.295 59.2917 120.785 58.793 120.433 58.147C120.082 57.501 119.906 56.736 119.906 55.852C119.906 55.0133 120.088 54.2653 120.45 53.608C120.824 52.9507 121.334 52.4407 121.98 52.078C122.626 51.704 123.352 51.517 124.156 51.517C124.927 51.517 125.607 51.687 126.196 52.027C126.797 52.367 127.262 52.8203 127.59 53.387C127.93 53.9423 128.1 54.5317 128.1 55.155C128.1 55.4157 128.044 55.6253 127.93 55.784C127.817 55.9427 127.664 56.0673 127.471 56.158C127.279 56.2373 127.029 56.311 126.723 56.379L126.485 56.43C126.055 56.5093 125.584 56.566 125.074 56.6C124.564 56.634 123.85 56.6623 122.932 56.685C122.536 56.685 122.122 56.6907 121.691 56.702L121.742 55.172H122.269C123.335 55.172 124.179 55.1493 124.802 55.104C125.426 55.0587 125.953 54.9453 126.383 54.764L126.111 55.002C126.134 54.4807 125.958 54.0557 125.584 53.727C125.21 53.387 124.74 53.217 124.173 53.217C123.471 53.217 122.938 53.421 122.575 53.829C122.213 54.237 122.031 54.8433 122.031 55.648V55.852C122.031 56.498 122.128 57.0193 122.32 57.416C122.524 57.8013 122.802 58.079 123.153 58.249C123.505 58.419 123.93 58.504 124.428 58.504C124.712 58.504 125.001 58.4643 125.295 58.385C125.601 58.3057 125.907 58.181 126.213 58.011C126.531 57.841 126.814 57.8353 127.063 57.994C127.324 58.1413 127.454 58.368 127.454 58.674C127.454 58.9687 127.29 59.2237 126.961 59.439C126.621 59.6657 126.219 59.847 125.754 59.983C125.29 60.1077 124.831 60.17 124.377 60.17ZM139.141 60.17C138.382 60.17 137.611 60.051 136.829 59.813C136.058 59.5637 135.446 59.2293 134.993 58.81C134.653 58.5153 134.517 58.1867 134.585 57.824C134.653 57.45 134.851 57.195 135.18 57.059C135.509 56.9117 135.832 56.9797 136.149 57.263C136.591 57.637 137.044 57.909 137.509 58.079C137.985 58.2377 138.523 58.317 139.124 58.317C139.861 58.317 140.439 58.2093 140.858 57.994C141.277 57.7787 141.487 57.45 141.487 57.008C141.487 56.7473 141.351 56.515 141.079 56.311C140.807 56.0957 140.337 55.8917 139.668 55.699L137.798 55.172C136.71 54.8547 135.911 54.458 135.401 53.982C134.902 53.506 134.653 52.894 134.653 52.146C134.653 51.4093 134.846 50.7633 135.231 50.208C135.628 49.6413 136.177 49.205 136.88 48.899C137.594 48.593 138.404 48.44 139.311 48.44C140.036 48.44 140.716 48.576 141.351 48.848C141.986 49.12 142.513 49.4657 142.932 49.885C143.249 50.1797 143.368 50.5083 143.289 50.871C143.21 51.2223 143.006 51.4603 142.677 51.585C142.348 51.7097 142.02 51.6247 141.691 51.33C141.34 51.0127 140.96 50.769 140.552 50.599C140.144 50.4177 139.719 50.327 139.277 50.327C138.54 50.327 137.962 50.4687 137.543 50.752C137.124 51.024 136.914 51.415 136.914 51.925C136.914 52.1743 136.965 52.3727 137.067 52.52C137.169 52.6673 137.333 52.7977 137.56 52.911C137.798 53.0243 138.144 53.149 138.597 53.285L140.467 53.812C141.623 54.152 142.456 54.5487 142.966 55.002C143.487 55.4553 143.748 56.09 143.748 56.906C143.748 57.96 143.317 58.7703 142.456 59.337C141.595 59.8923 140.49 60.17 139.141 60.17ZM149.577 60.17C148.693 60.17 147.911 59.9943 147.231 59.643C146.563 59.2803 146.036 58.7703 145.65 58.113C145.265 57.4443 145.072 56.6737 145.072 55.801C145.072 54.9283 145.259 54.169 145.633 53.523C146.019 52.877 146.551 52.384 147.231 52.044C147.911 51.6927 148.693 51.517 149.577 51.517C149.985 51.517 150.405 51.5737 150.835 51.687C151.266 51.8003 151.651 51.976 151.991 52.214C152.32 52.418 152.479 52.69 152.467 53.03C152.456 53.37 152.314 53.6193 152.042 53.778C151.77 53.9367 151.464 53.9083 151.124 53.693C150.716 53.421 150.263 53.285 149.764 53.285C149.277 53.285 148.835 53.387 148.438 53.591C148.042 53.7837 147.73 54.0727 147.503 54.458C147.277 54.832 147.163 55.2853 147.163 55.818C147.163 56.3507 147.277 56.8097 147.503 57.195C147.741 57.5803 148.053 57.875 148.438 58.079C148.835 58.283 149.277 58.385 149.764 58.385C150.014 58.385 150.246 58.3567 150.461 58.3C150.677 58.232 150.915 58.113 151.175 57.943C151.459 57.7617 151.725 57.756 151.974 57.926C152.224 58.096 152.36 58.3397 152.382 58.657C152.405 58.9743 152.275 59.235 151.991 59.439C151.629 59.6997 151.238 59.8867 150.818 60C150.399 60.1133 149.985 60.17 149.577 60.17ZM155.018 60.136C154.666 60.136 154.4 60.0397 154.219 59.847C154.049 59.6543 153.964 59.3767 153.964 59.014V49.664C153.964 49.29 154.054 49.001 154.236 48.797C154.417 48.5817 154.678 48.474 155.018 48.474C155.369 48.474 155.635 48.5817 155.817 48.797C155.998 49.001 156.089 49.29 156.089 49.664V53.319H155.851C156.089 52.741 156.468 52.299 156.99 51.993C157.522 51.6757 158.129 51.517 158.809 51.517C159.795 51.517 160.514 51.8003 160.968 52.367C161.421 52.9223 161.648 53.7837 161.648 54.951V59.014C161.648 59.3653 161.551 59.643 161.359 59.847C161.177 60.0397 160.928 60.136 160.611 60.136C160.259 60.136 159.987 60.0397 159.795 59.847C159.613 59.6543 159.523 59.3767 159.523 59.014V55.053C159.523 54.4183 159.404 53.9593 159.166 53.676C158.939 53.3813 158.576 53.234 158.078 53.234C157.466 53.234 156.978 53.4267 156.616 53.812C156.264 54.1973 156.089 54.7017 156.089 55.325V59.014C156.089 59.3767 155.998 59.6543 155.817 59.847C155.647 60.0397 155.38 60.136 155.018 60.136ZM164.549 60.136C164.232 60.136 163.983 60.034 163.801 59.83C163.62 59.626 163.529 59.3483 163.529 58.997V52.673C163.529 52.3217 163.626 52.0497 163.818 51.857C164.022 51.653 164.26 51.551 164.532 51.551C164.884 51.551 165.156 51.67 165.348 51.908C165.552 52.1347 165.654 52.4407 165.654 52.826V53.846H165.467C165.637 53.1547 165.87 52.6107 166.164 52.214C166.459 51.8173 166.912 51.5907 167.524 51.534C167.83 51.5227 168.097 51.5907 168.323 51.738C168.55 51.874 168.68 52.0893 168.714 52.384C168.748 52.656 168.68 52.8997 168.51 53.115C168.352 53.319 168.114 53.438 167.796 53.472L167.473 53.506C166.941 53.5627 166.544 53.6817 166.283 53.863C166.023 54.033 165.853 54.2597 165.773 54.543C165.694 54.8263 165.654 55.2117 165.654 55.699V58.997C165.654 59.3597 165.558 59.643 165.365 59.847C165.184 60.0397 164.912 60.136 164.549 60.136ZM173.939 60.17C173.123 60.17 172.386 59.983 171.729 59.609C171.083 59.235 170.573 58.7193 170.199 58.062C169.836 57.4047 169.655 56.6623 169.655 55.835C169.655 55.019 169.836 54.2823 170.199 53.625C170.573 52.9677 171.083 52.452 171.729 52.078C172.386 51.704 173.123 51.517 173.939 51.517C174.766 51.517 175.503 51.704 176.149 52.078C176.806 52.452 177.316 52.9677 177.679 53.625C178.041 54.2823 178.223 55.019 178.223 55.835C178.223 56.6623 178.041 57.4047 177.679 58.062C177.316 58.7193 176.806 59.235 176.149 59.609C175.503 59.983 174.766 60.17 173.939 60.17ZM173.939 58.504C174.335 58.504 174.692 58.3907 175.01 58.164C175.338 57.9373 175.599 57.6257 175.792 57.229C175.984 56.821 176.081 56.3563 176.081 55.835C176.081 55.3137 175.984 54.8547 175.792 54.458C175.599 54.05 175.338 53.7383 175.01 53.523C174.692 53.2963 174.335 53.183 173.939 53.183C173.553 53.183 173.196 53.2963 172.868 53.523C172.539 53.7383 172.273 54.05 172.069 54.458C171.876 54.8547 171.78 55.3137 171.78 55.835C171.78 56.3563 171.876 56.821 172.069 57.229C172.273 57.6257 172.539 57.9373 172.868 58.164C173.196 58.3907 173.553 58.504 173.939 58.504ZM172.324 50.412C171.995 50.412 171.712 50.293 171.474 50.055C171.236 49.817 171.117 49.5337 171.117 49.205C171.117 48.865 171.236 48.5817 171.474 48.355C171.712 48.117 171.995 47.998 172.324 47.998C172.664 47.998 172.947 48.117 173.174 48.355C173.412 48.593 173.531 48.8763 173.531 49.205C173.531 49.545 173.412 49.834 173.174 50.072C172.936 50.2987 172.652 50.412 172.324 50.412ZM175.537 50.412C175.197 50.412 174.908 50.293 174.67 50.055C174.443 49.817 174.33 49.5337 174.33 49.205C174.33 48.865 174.449 48.5817 174.687 48.355C174.925 48.117 175.208 47.998 175.537 47.998C175.877 47.998 176.16 48.117 176.387 48.355C176.625 48.593 176.744 48.8763 176.744 49.205C176.744 49.545 176.625 49.834 176.387 50.072C176.149 50.2987 175.865 50.412 175.537 50.412ZM183.324 60.17C182.599 60.17 181.959 59.9943 181.403 59.643C180.859 59.2917 180.434 58.7873 180.128 58.13C179.834 57.4727 179.686 56.7077 179.686 55.835C179.686 54.951 179.834 54.186 180.128 53.54C180.434 52.894 180.859 52.3953 181.403 52.044C181.959 51.6927 182.599 51.517 183.324 51.517C184.004 51.517 184.599 51.687 185.109 52.027C185.631 52.3557 185.982 52.792 186.163 53.336H185.976V49.596C185.976 49.222 186.067 48.9443 186.248 48.763C186.441 48.5703 186.719 48.474 187.081 48.474C187.433 48.474 187.705 48.5703 187.897 48.763C188.09 48.9443 188.186 49.222 188.186 49.596V59.014C188.186 59.3767 188.09 59.6543 187.897 59.847C187.716 60.0397 187.45 60.136 187.098 60.136C186.747 60.136 186.475 60.0397 186.282 59.847C186.09 59.6543 185.993 59.3767 185.993 59.014V57.722L186.18 58.249C186.01 58.8383 185.665 59.3087 185.143 59.66C184.633 60 184.027 60.17 183.324 60.17ZM183.953 58.504C184.588 58.504 185.087 58.2773 185.449 57.824C185.823 57.3593 186.01 56.6963 186.01 55.835C186.01 54.9623 185.823 54.305 185.449 53.863C185.087 53.4097 184.588 53.183 183.953 53.183C183.319 53.183 182.814 53.4097 182.44 53.863C182.078 54.305 181.896 54.9623 181.896 55.835C181.896 56.6963 182.078 57.3593 182.44 57.824C182.814 58.2773 183.319 58.504 183.953 58.504ZM194.418 60.17C193.489 60.17 192.684 59.9943 192.004 59.643C191.335 59.2917 190.825 58.793 190.474 58.147C190.123 57.501 189.947 56.736 189.947 55.852C189.947 55.0133 190.128 54.2653 190.491 53.608C190.865 52.9507 191.375 52.4407 192.021 52.078C192.667 51.704 193.392 51.517 194.197 51.517C194.968 51.517 195.648 51.687 196.237 52.027C196.838 52.367 197.302 52.8203 197.631 53.387C197.971 53.9423 198.141 54.5317 198.141 55.155C198.141 55.4157 198.084 55.6253 197.971 55.784C197.858 55.9427 197.705 56.0673 197.512 56.158C197.319 56.2373 197.07 56.311 196.764 56.379L196.526 56.43C196.095 56.5093 195.625 56.566 195.115 56.6C194.605 56.634 193.891 56.6623 192.973 56.685C192.576 56.685 192.163 56.6907 191.732 56.702L191.783 55.172H192.31C193.375 55.172 194.22 55.1493 194.843 55.104C195.466 55.0587 195.993 54.9453 196.424 54.764L196.152 55.002C196.175 54.4807 195.999 54.0557 195.625 53.727C195.251 53.387 194.781 53.217 194.214 53.217C193.511 53.217 192.979 53.421 192.616 53.829C192.253 54.237 192.072 54.8433 192.072 55.648V55.852C192.072 56.498 192.168 57.0193 192.361 57.416C192.565 57.8013 192.843 58.079 193.194 58.249C193.545 58.419 193.97 58.504 194.469 58.504C194.752 58.504 195.041 58.4643 195.336 58.385C195.642 58.3057 195.948 58.181 196.254 58.011C196.571 57.841 196.855 57.8353 197.104 57.994C197.365 58.1413 197.495 58.368 197.495 58.674C197.495 58.9687 197.331 59.2237 197.002 59.439C196.662 59.6657 196.26 59.847 195.795 59.983C195.33 60.1077 194.871 60.17 194.418 60.17ZM200.674 60.136C200.356 60.136 200.107 60.034 199.926 59.83C199.744 59.626 199.654 59.3483 199.654 58.997V52.673C199.654 52.3217 199.75 52.0497 199.943 51.857C200.147 51.653 200.385 51.551 200.657 51.551C201.008 51.551 201.28 51.67 201.473 51.908C201.677 52.1347 201.779 52.4407 201.779 52.826V53.846H201.592C201.762 53.1547 201.994 52.6107 202.289 52.214C202.583 51.8173 203.037 51.5907 203.649 51.534C203.955 51.5227 204.221 51.5907 204.448 51.738C204.674 51.874 204.805 52.0893 204.839 52.384C204.873 52.656 204.805 52.8997 204.635 53.115C204.476 53.319 204.238 53.438 203.921 53.472L203.598 53.506C203.065 53.5627 202.668 53.6817 202.408 53.863C202.147 54.033 201.977 54.2597 201.898 54.543C201.818 54.8263 201.779 55.2117 201.779 55.699V58.997C201.779 59.3597 201.682 59.643 201.49 59.847C201.308 60.0397 201.036 60.136 200.674 60.136Z" fill="black"/>
<path d="M72.6242 79.17C72.0462 79.17 71.5362 79.051 71.0942 78.813C70.6635 78.5637 70.3348 78.235 70.1082 77.827C69.8815 77.4077 69.7682 76.9487 69.7682 76.45C69.7682 75.8267 70.0118 75.2827 70.4992 74.818C70.9865 74.3533 71.5985 74.07 72.3352 73.968C73.0832 73.8547 73.8198 73.9737 74.5452 74.325L75.2762 74.682L75.2592 75.753L74.4772 75.413C73.8992 75.175 73.3835 75.0787 72.9302 75.124C72.4768 75.1693 72.1255 75.3223 71.8762 75.583C71.6268 75.8323 71.5022 76.1213 71.5022 76.45C71.5022 76.8467 71.6382 77.1697 71.9102 77.419C72.1822 77.657 72.5562 77.776 73.0322 77.776C73.3948 77.776 73.7235 77.6967 74.0182 77.538C74.3242 77.368 74.5678 77.1357 74.7492 76.841C74.9305 76.535 75.0212 76.1837 75.0212 75.787V73.679C75.0212 73.101 74.8795 72.676 74.5962 72.404C74.3128 72.1207 73.8992 71.979 73.3552 71.979C73.1398 71.979 72.8735 72.0357 72.5562 72.149C72.2502 72.2623 71.9272 72.4493 71.5872 72.71C71.2812 72.9253 71.0035 72.9707 70.7542 72.846C70.5048 72.71 70.3632 72.4947 70.3292 72.2C70.3065 71.894 70.4368 71.639 70.7202 71.435C71.1282 71.1063 71.5815 70.8683 72.0802 70.721C72.5788 70.5623 73.0265 70.483 73.4232 70.483C74.6018 70.483 75.4802 70.772 76.0582 71.35C76.6475 71.9167 76.9422 72.7837 76.9422 73.951V78.218C76.9422 78.49 76.8628 78.711 76.7042 78.881C76.5455 79.051 76.3132 79.136 76.0072 79.136C75.7012 79.136 75.4632 79.0567 75.2932 78.898C75.1345 78.728 75.0552 78.507 75.0552 78.235V77.555H75.1912C75.0665 78.133 74.7888 78.5467 74.3582 78.796C73.9275 79.0453 73.3495 79.17 72.6242 79.17ZM71.0772 67.066C70.8845 66.7827 70.8788 66.5163 71.0602 66.267C71.2415 66.0063 71.4852 65.8703 71.7912 65.859C72.1085 65.8363 72.3522 65.9837 72.5222 66.301L73.8142 68.868C73.9275 69.0947 73.9218 69.2987 73.7972 69.48C73.6725 69.65 73.4968 69.7463 73.2702 69.769C73.0435 69.7803 72.8678 69.6897 72.7432 69.497L71.0772 67.066ZM87.8738 79.17C86.4345 79.17 85.3182 78.677 84.5248 77.691C83.7428 76.6937 83.3518 75.2203 83.3518 73.271C83.3518 71.9563 83.5275 70.8683 83.8788 70.007C84.2415 69.1343 84.7572 68.4883 85.4258 68.069C86.1058 67.6497 86.9218 67.44 87.8738 67.44C88.8372 67.44 89.6532 67.6497 90.3218 68.069C90.9905 68.4883 91.5005 69.1287 91.8518 69.99C92.2145 70.8513 92.3958 71.945 92.3958 73.271C92.3958 75.2203 91.9992 76.6937 91.2058 77.691C90.4238 78.677 89.3132 79.17 87.8738 79.17ZM87.8738 77.47C88.7012 77.47 89.3245 77.1413 89.7438 76.484C90.1745 75.8267 90.3898 74.75 90.3898 73.254C90.3898 72.2453 90.2935 71.4407 90.1008 70.84C89.9082 70.228 89.6248 69.7917 89.2508 69.531C88.8882 69.2703 88.4292 69.14 87.8738 69.14C87.3185 69.14 86.8538 69.276 86.4798 69.548C86.1172 69.8087 85.8395 70.245 85.6468 70.857C85.4542 71.4577 85.3578 72.2567 85.3578 73.254C85.3578 74.75 85.5675 75.8267 85.9868 76.484C86.4062 77.1413 87.0352 77.47 87.8738 77.47ZM95.2452 79.085C94.8712 79.085 94.5709 78.9717 94.3442 78.745C94.1175 78.507 94.0042 78.2123 94.0042 77.861C94.0042 77.4983 94.1175 77.2093 94.3442 76.994C94.5709 76.7787 94.8712 76.671 95.2452 76.671C95.6079 76.671 95.8969 76.7787 96.1122 76.994C96.3389 77.2093 96.4522 77.4983 96.4522 77.861C96.4522 78.2123 96.3389 78.507 96.1122 78.745C95.8969 78.9717 95.6079 79.085 95.2452 79.085ZM102.574 79.17C101.192 79.17 100.109 78.8697 99.3272 78.269C98.5452 77.6683 98.1542 76.8353 98.1542 75.77C98.1542 75.0673 98.4035 74.4553 98.9022 73.934C99.4122 73.4127 100.064 73.101 100.857 72.999V73.339C100.064 73.169 99.4632 72.8913 99.0552 72.506C98.6585 72.1093 98.4602 71.4973 98.4602 70.67C98.4602 69.6613 98.8285 68.8737 99.5652 68.307C100.313 67.729 101.316 67.44 102.574 67.44C103.844 67.44 104.847 67.729 105.583 68.307C106.331 68.8737 106.705 69.6613 106.705 70.67C106.705 71.5087 106.501 72.1263 106.093 72.523C105.697 72.9197 105.107 73.186 104.325 73.322V72.999C105.107 73.1123 105.748 73.4297 106.246 73.951C106.745 74.4723 106.994 75.0787 106.994 75.77C106.994 76.8353 106.603 77.6683 105.821 78.269C105.039 78.8697 103.957 79.17 102.574 79.17ZM102.574 77.555C103.402 77.555 104.025 77.3963 104.444 77.079C104.864 76.7503 105.073 76.2687 105.073 75.634C105.073 75.1353 104.858 74.7443 104.427 74.461C104.008 74.1777 103.39 74.036 102.574 74.036C101.758 74.036 101.135 74.1777 100.704 74.461C100.285 74.7443 100.075 75.1353 100.075 75.634C100.075 76.2687 100.285 76.7503 100.704 77.079C101.135 77.3963 101.758 77.555 102.574 77.555ZM102.574 72.404C103.288 72.404 103.832 72.285 104.206 72.047C104.592 71.7977 104.784 71.4067 104.784 70.874C104.784 70.3073 104.586 69.8653 104.189 69.548C103.804 69.2193 103.266 69.055 102.574 69.055C101.883 69.055 101.345 69.2193 100.959 69.548C100.574 69.8653 100.381 70.3073 100.381 70.874C100.381 71.4067 100.568 71.7977 100.942 72.047C101.316 72.285 101.86 72.404 102.574 72.404ZM109.929 79.136C109.6 79.136 109.356 79.0453 109.198 78.864C109.05 78.6827 108.977 78.4277 108.977 78.099V68.63C108.977 68.2447 109.05 67.9557 109.198 67.763C109.356 67.5703 109.6 67.474 109.929 67.474C110.246 67.474 110.484 67.5703 110.643 67.763C110.813 67.9557 110.898 68.2447 110.898 68.63V73.968V73.985L113.89 70.908C114.105 70.6927 114.337 70.5567 114.587 70.5C114.836 70.4433 115.074 70.5283 115.301 70.755C115.414 70.8683 115.488 71.0043 115.522 71.163C115.556 71.3103 115.544 71.4747 115.488 71.656C115.442 71.826 115.346 71.9903 115.199 72.149L112.683 74.784V73.917L115.777 77.3C116.026 77.572 116.173 77.8383 116.219 78.099C116.275 78.3483 116.202 78.5863 115.998 78.813C115.794 79.051 115.556 79.136 115.284 79.068C115.012 79.0113 114.717 78.8243 114.4 78.507L111.595 75.634L110.898 76.348V78.099C110.898 78.439 110.813 78.6997 110.643 78.881C110.484 79.051 110.246 79.136 109.929 79.136ZM119.064 79.136C118.747 79.136 118.503 79.0453 118.333 78.864C118.163 78.6827 118.078 78.4277 118.078 78.099V71.571C118.078 71.2423 118.163 70.993 118.333 70.823C118.503 70.653 118.741 70.568 119.047 70.568C119.365 70.568 119.608 70.653 119.778 70.823C119.948 70.993 120.033 71.2423 120.033 71.571V72.863L119.846 72.387C120.073 71.7977 120.424 71.3443 120.9 71.027C121.376 70.6983 121.943 70.534 122.6 70.534C123.28 70.534 123.83 70.6983 124.249 71.027C124.68 71.3443 124.98 71.8317 125.15 72.489H124.912C125.139 71.877 125.513 71.401 126.034 71.061C126.556 70.7097 127.156 70.534 127.836 70.534C128.777 70.534 129.474 70.8117 129.927 71.367C130.392 71.9223 130.624 72.7723 130.624 73.917V78.099C130.624 78.4277 130.534 78.6827 130.352 78.864C130.171 79.0453 129.922 79.136 129.604 79.136C129.287 79.136 129.038 79.0453 128.856 78.864C128.686 78.6827 128.601 78.4277 128.601 78.099V74.002C128.601 73.3333 128.494 72.8517 128.278 72.557C128.063 72.2623 127.7 72.115 127.19 72.115C126.612 72.115 126.159 72.319 125.83 72.727C125.502 73.1237 125.337 73.6733 125.337 74.376V78.099C125.337 78.4277 125.252 78.6827 125.082 78.864C124.912 79.0453 124.669 79.136 124.351 79.136C124.023 79.136 123.768 79.0453 123.586 78.864C123.416 78.6827 123.331 78.4277 123.331 78.099V74.002C123.331 73.3333 123.218 72.8517 122.991 72.557C122.776 72.2623 122.425 72.115 121.937 72.115C121.359 72.115 120.906 72.319 120.577 72.727C120.249 73.1237 120.084 73.6733 120.084 74.376V78.099C120.084 78.439 119.999 78.6997 119.829 78.881C119.659 79.051 119.404 79.136 119.064 79.136ZM140.888 79.17C140.163 79.17 139.523 78.9943 138.967 78.643C138.423 78.2917 137.998 77.7873 137.692 77.13C137.386 76.4727 137.233 75.7077 137.233 74.835C137.233 73.951 137.386 73.186 137.692 72.54C137.998 71.894 138.423 71.401 138.967 71.061C139.523 70.7097 140.163 70.534 140.888 70.534C141.58 70.534 142.186 70.704 142.707 71.044C143.229 71.384 143.58 71.843 143.761 72.421H143.574V68.494C143.574 68.1653 143.659 67.916 143.829 67.746C144.011 67.5647 144.26 67.474 144.577 67.474C144.906 67.474 145.155 67.5647 145.325 67.746C145.507 67.916 145.597 68.1653 145.597 68.494V78.099C145.597 78.4277 145.512 78.6827 145.342 78.864C145.172 79.0453 144.923 79.136 144.594 79.136C144.277 79.136 144.028 79.0453 143.846 78.864C143.676 78.6827 143.591 78.4277 143.591 78.099V76.739L143.778 77.198C143.608 77.7987 143.263 78.2803 142.741 78.643C142.22 78.9943 141.602 79.17 140.888 79.17ZM141.449 77.623C142.107 77.623 142.628 77.385 143.013 76.909C143.41 76.433 143.608 75.7417 143.608 74.835C143.608 73.9397 143.41 73.254 143.013 72.778C142.628 72.302 142.107 72.064 141.449 72.064C140.769 72.064 140.231 72.302 139.834 72.778C139.449 73.254 139.256 73.9397 139.256 74.835C139.256 75.7417 139.449 76.433 139.834 76.909C140.231 77.385 140.769 77.623 141.449 77.623ZM151.83 79.17C150.912 79.17 150.119 78.9943 149.45 78.643C148.793 78.2917 148.289 77.793 147.937 77.147C147.597 76.501 147.427 75.736 147.427 74.852C147.427 74.0133 147.609 73.2653 147.971 72.608C148.334 71.9507 148.833 71.4407 149.467 71.078C150.102 70.7153 150.822 70.534 151.626 70.534C152.374 70.534 153.043 70.704 153.632 71.044C154.233 71.3727 154.692 71.8203 155.009 72.387C155.338 72.9537 155.502 73.5543 155.502 74.189C155.502 74.4383 155.451 74.6367 155.349 74.784C155.259 74.9313 155.123 75.0447 154.941 75.124C154.76 75.2033 154.528 75.2713 154.244 75.328L154.023 75.379C153.57 75.4697 153.071 75.532 152.527 75.566C151.995 75.6 151.252 75.6283 150.3 75.651C149.892 75.651 149.473 75.6567 149.042 75.668L149.076 74.223H149.654C150.754 74.223 151.626 74.2003 152.272 74.155C152.93 74.1097 153.491 73.9907 153.955 73.798L153.683 74.036C153.717 73.4693 153.536 73.0103 153.139 72.659C152.743 72.2963 152.238 72.115 151.626 72.115C150.89 72.115 150.329 72.336 149.943 72.778C149.558 73.2087 149.365 73.8377 149.365 74.665V74.869C149.354 75.5263 149.45 76.059 149.654 76.467C149.87 76.875 150.159 77.1697 150.521 77.351C150.895 77.5323 151.343 77.623 151.864 77.623C152.17 77.623 152.471 77.5833 152.765 77.504C153.071 77.4247 153.389 77.2943 153.717 77.113C154.012 76.9543 154.278 76.9487 154.516 77.096C154.754 77.232 154.873 77.436 154.873 77.708C154.873 77.98 154.726 78.218 154.431 78.422C154.08 78.6487 153.672 78.83 153.207 78.966C152.743 79.102 152.284 79.17 151.83 79.17ZM165.272 79.17C164.592 79.17 164.065 79.0567 163.691 78.83C163.317 78.592 163.056 78.2407 162.909 77.776C162.761 77.3113 162.688 76.705 162.688 75.957V72.285H161.974C161.713 72.285 161.509 72.217 161.362 72.081C161.226 71.9337 161.158 71.7353 161.158 71.486C161.158 71.2367 161.226 71.044 161.362 70.908C161.509 70.7607 161.713 70.687 161.974 70.687H162.688V69.106C162.688 68.7887 162.773 68.5393 162.943 68.358C163.113 68.1767 163.351 68.086 163.657 68.086C163.951 68.086 164.184 68.1767 164.354 68.358C164.524 68.5393 164.609 68.7887 164.609 69.106V70.687H165.544C165.804 70.687 166.003 70.7607 166.139 70.908C166.286 71.044 166.36 71.2367 166.36 71.486C166.36 71.7353 166.286 71.9337 166.139 72.081C166.003 72.217 165.804 72.285 165.544 72.285H164.609V75.838C164.609 76.3027 164.62 76.6427 164.643 76.858C164.665 77.062 164.739 77.2207 164.864 77.334C165 77.4473 165.215 77.504 165.51 77.504C165.623 77.504 165.719 77.487 165.799 77.453C165.889 77.4303 165.98 77.419 166.071 77.419C166.241 77.419 166.394 77.4757 166.53 77.589C166.677 77.7023 166.768 77.861 166.802 78.065C166.836 78.2463 166.802 78.422 166.7 78.592C166.609 78.762 166.467 78.8867 166.275 78.966C166.139 79.0227 165.969 79.068 165.765 79.102C165.561 79.1473 165.396 79.17 165.272 79.17ZM171.862 79.17C171.058 79.17 170.332 78.983 169.686 78.609C169.052 78.235 168.553 77.7193 168.19 77.062C167.839 76.4047 167.663 75.6623 167.663 74.835C167.663 74.019 167.839 73.2823 168.19 72.625C168.553 71.9677 169.052 71.4577 169.686 71.095C170.332 70.721 171.058 70.534 171.862 70.534C172.678 70.534 173.404 70.721 174.038 71.095C174.684 71.4577 175.183 71.9677 175.534 72.625C175.897 73.2823 176.078 74.019 176.078 74.835C176.078 75.6623 175.897 76.4047 175.534 77.062C175.183 77.7193 174.684 78.235 174.038 78.609C173.404 78.983 172.678 79.17 171.862 79.17ZM171.862 77.623C172.282 77.623 172.661 77.5097 173.001 77.283C173.341 77.045 173.613 76.7163 173.817 76.297C174.021 75.8663 174.123 75.379 174.123 74.835C174.123 74.291 174.021 73.8093 173.817 73.39C173.613 72.9707 173.341 72.6477 173.001 72.421C172.661 72.183 172.282 72.064 171.862 72.064C171.454 72.064 171.075 72.183 170.723 72.421C170.383 72.6477 170.111 72.9707 169.907 73.39C169.703 73.8093 169.601 74.291 169.601 74.835C169.601 75.379 169.703 75.8663 169.907 76.297C170.111 76.7163 170.383 77.045 170.723 77.283C171.075 77.5097 171.454 77.623 171.862 77.623ZM178.871 79.119C178.565 79.119 178.327 79.0227 178.157 78.83C177.998 78.6373 177.919 78.3653 177.919 78.014V71.673C177.919 71.3217 177.998 71.0553 178.157 70.874C178.327 70.6813 178.565 70.585 178.871 70.585C179.177 70.585 179.415 70.6813 179.585 70.874C179.755 71.0553 179.84 71.3217 179.84 71.673V78.014C179.84 78.3653 179.755 78.6373 179.585 78.83C179.415 79.0227 179.177 79.119 178.871 79.119ZM178.871 69.293C178.565 69.293 178.304 69.191 178.089 68.987C177.885 68.783 177.783 68.5223 177.783 68.205C177.783 67.8877 177.885 67.627 178.089 67.423C178.304 67.219 178.565 67.117 178.871 67.117C179.165 67.117 179.42 67.219 179.636 67.423C179.851 67.627 179.959 67.8877 179.959 68.205C179.959 68.5223 179.851 68.783 179.636 68.987C179.42 69.191 179.165 69.293 178.871 69.293Z" fill="black" fill-opacity="0.45"/>
<rect x="27" y="113.998" width="32.0031" height="32.0031" rx="8" fill="#006AFF"/>
<rect x="27" y="113.998" width="32.0031" height="32.0031" rx="8" fill="white" fill-opacity="0.8"/>
<path d="M34.6399 135.5C34.2659 135.5 33.9769 135.404 33.7729 135.211C33.5802 135.007 33.4839 134.712 33.4839 134.327V125.351C33.4839 124.977 33.5802 124.671 33.7729 124.433C33.9769 124.184 34.2602 124.059 34.6229 124.059C34.9742 124.059 35.2462 124.184 35.4389 124.433C35.6429 124.671 35.7449 124.977 35.7449 125.351V133.579H40.0799C40.4085 133.579 40.6749 133.664 40.8789 133.834C41.0942 134.004 41.2019 134.236 41.2019 134.531C41.2019 134.826 41.0942 135.064 40.8789 135.245C40.6749 135.415 40.4085 135.5 40.0799 135.5H34.6399ZM44.0209 135.5C43.6356 135.5 43.3353 135.398 43.1199 135.194C42.9159 134.99 42.8139 134.69 42.8139 134.293V125.317C42.8139 124.92 42.9159 124.62 43.1199 124.416C43.3353 124.212 43.6356 124.11 44.0209 124.11H46.9619C48.2766 124.11 49.3929 124.354 50.3109 124.841C51.2403 125.317 51.9429 125.986 52.4189 126.847C52.8949 127.697 53.1329 128.677 53.1329 129.788C53.1329 131.692 52.6116 133.12 51.5689 134.072C50.5263 135.024 48.9906 135.5 46.9619 135.5H44.0209ZM46.8259 133.63C48.2199 133.63 49.2513 133.33 49.9199 132.729C50.5886 132.128 50.9229 131.148 50.9229 129.788C50.9229 128.643 50.5659 127.72 49.8519 127.017C49.1493 126.314 48.1406 125.963 46.8259 125.963H45.0409V133.63H46.8259Z" fill="#006AFF"/>
<path d="M34.6399 135.5C34.2659 135.5 33.9769 135.404 33.7729 135.211C33.5802 135.007 33.4839 134.712 33.4839 134.327V125.351C33.4839 124.977 33.5802 124.671 33.7729 124.433C33.9769 124.184 34.2602 124.059 34.6229 124.059C34.9742 124.059 35.2462 124.184 35.4389 124.433C35.6429 124.671 35.7449 124.977 35.7449 125.351V133.579H40.0799C40.4085 133.579 40.6749 133.664 40.8789 133.834C41.0942 134.004 41.2019 134.236 41.2019 134.531C41.2019 134.826 41.0942 135.064 40.8789 135.245C40.6749 135.415 40.4085 135.5 40.0799 135.5H34.6399ZM44.0209 135.5C43.6356 135.5 43.3353 135.398 43.1199 135.194C42.9159 134.99 42.8139 134.69 42.8139 134.293V125.317C42.8139 124.92 42.9159 124.62 43.1199 124.416C43.3353 124.212 43.6356 124.11 44.0209 124.11H46.9619C48.2766 124.11 49.3929 124.354 50.3109 124.841C51.2403 125.317 51.9429 125.986 52.4189 126.847C52.8949 127.697 53.1329 128.677 53.1329 129.788C53.1329 131.692 52.6116 133.12 51.5689 134.072C50.5263 135.024 48.9906 135.5 46.9619 135.5H44.0209ZM46.8259 133.63C48.2199 133.63 49.2513 133.33 49.9199 132.729C50.5886 132.128 50.9229 131.148 50.9229 129.788C50.9229 128.643 50.5659 127.72 49.8519 127.017C49.1493 126.314 48.1406 125.963 46.8259 125.963H45.0409V133.63H46.8259Z" fill="black" fill-opacity="0.2"/>
<path d="M71.4512 126C71.0772 126 70.7882 125.904 70.5842 125.711C70.3915 125.507 70.2952 125.212 70.2952 124.827V115.851C70.2952 115.477 70.3915 115.171 70.5842 114.933C70.7882 114.684 71.0715 114.559 71.4342 114.559C71.7855 114.559 72.0575 114.684 72.2502 114.933C72.4542 115.171 72.5562 115.477 72.5562 115.851V124.079H76.8912C77.2198 124.079 77.4862 124.164 77.6902 124.334C77.9055 124.504 78.0132 124.736 78.0132 125.031C78.0132 125.326 77.9055 125.564 77.6902 125.745C77.4862 125.915 77.2198 126 76.8912 126H71.4512ZM79.0316 128.142C79.0316 127.983 79.0656 127.836 79.1336 127.7C79.2129 127.575 79.3149 127.473 79.4396 127.394C79.5642 127.315 79.7059 127.264 79.8646 127.241C79.9099 127.23 79.9609 127.224 80.0176 127.224C80.1196 127.224 80.2216 127.179 80.3236 127.088C80.4369 126.997 80.5502 126.839 80.6636 126.612L80.7316 126.476L81.3096 125.201V126.119L78.2326 119.013C78.1079 118.752 78.0682 118.509 78.1136 118.282C78.1589 118.055 78.2722 117.88 78.4536 117.755C78.6349 117.619 78.8842 117.551 79.2016 117.551C79.4736 117.551 79.6889 117.613 79.8476 117.738C80.0176 117.863 80.1649 118.095 80.2896 118.435L82.5336 124.028H82.0236L84.3016 118.418C84.4376 118.078 84.5906 117.851 84.7606 117.738C84.9306 117.613 85.1686 117.551 85.4746 117.551C85.7239 117.551 85.9279 117.619 86.0866 117.755C86.2452 117.88 86.3359 118.055 86.3586 118.282C86.3926 118.509 86.3586 118.747 86.2566 118.996L82.7546 126.935L82.6696 127.139C82.4089 127.819 82.0576 128.318 81.6156 128.635C81.1849 128.964 80.6806 129.128 80.1026 129.128C79.7739 129.128 79.5132 129.032 79.3206 128.839C79.1392 128.646 79.0429 128.414 79.0316 128.142ZM92.025 126.17C91.141 126.17 90.359 125.994 89.679 125.643C89.0104 125.28 88.4834 124.77 88.098 124.113C87.7127 123.444 87.52 122.674 87.52 121.801C87.52 120.928 87.707 120.169 88.081 119.523C88.4664 118.877 88.999 118.384 89.679 118.044C90.359 117.693 91.141 117.517 92.025 117.517C92.433 117.517 92.8524 117.574 93.283 117.687C93.7137 117.8 94.099 117.976 94.439 118.214C94.7677 118.418 94.9264 118.69 94.915 119.03C94.9037 119.37 94.762 119.619 94.49 119.778C94.218 119.937 93.912 119.908 93.572 119.693C93.164 119.421 92.7107 119.285 92.212 119.285C91.7247 119.285 91.2827 119.387 90.886 119.591C90.4894 119.784 90.1777 120.073 89.951 120.458C89.7244 120.832 89.611 121.285 89.611 121.818C89.611 122.351 89.7244 122.81 89.951 123.195C90.189 123.58 90.5007 123.875 90.886 124.079C91.2827 124.283 91.7247 124.385 92.212 124.385C92.4614 124.385 92.6937 124.357 92.909 124.3C93.1244 124.232 93.3624 124.113 93.623 123.943C93.9064 123.762 94.1727 123.756 94.422 123.926C94.6714 124.096 94.8074 124.34 94.83 124.657C94.8527 124.974 94.7224 125.235 94.439 125.439C94.0764 125.7 93.6854 125.887 93.266 126C92.8467 126.113 92.433 126.17 92.025 126.17ZM100.359 126.17C99.4301 126.17 98.6254 125.994 97.9454 125.643C97.2767 125.292 96.7667 124.793 96.4154 124.147C96.0641 123.501 95.8884 122.736 95.8884 121.852C95.8884 121.013 96.0697 120.265 96.4324 119.608C96.8064 118.951 97.3164 118.441 97.9624 118.078C98.6084 117.704 99.3337 117.517 100.138 117.517C100.909 117.517 101.589 117.687 102.178 118.027C102.779 118.367 103.244 118.82 103.572 119.387C103.912 119.942 104.082 120.532 104.082 121.155C104.082 121.416 104.026 121.625 103.912 121.784C103.799 121.943 103.646 122.067 103.453 122.158C103.261 122.237 103.011 122.311 102.705 122.379L102.467 122.43C102.037 122.509 101.566 122.566 101.056 122.6C100.546 122.634 99.8324 122.662 98.9144 122.685C98.5177 122.685 98.1041 122.691 97.6734 122.702L97.7244 121.172H98.2514C99.3167 121.172 100.161 121.149 100.784 121.104C101.408 121.059 101.935 120.945 102.365 120.764L102.093 121.002C102.116 120.481 101.94 120.056 101.566 119.727C101.192 119.387 100.722 119.217 100.155 119.217C99.4527 119.217 98.9201 119.421 98.5574 119.829C98.1947 120.237 98.0134 120.843 98.0134 121.648V121.852C98.0134 122.498 98.1097 123.019 98.3024 123.416C98.5064 123.801 98.7841 124.079 99.1354 124.249C99.4867 124.419 99.9117 124.504 100.41 124.504C100.694 124.504 100.983 124.464 101.277 124.385C101.583 124.306 101.889 124.181 102.195 124.011C102.513 123.841 102.796 123.835 103.045 123.994C103.306 124.141 103.436 124.368 103.436 124.674C103.436 124.969 103.272 125.224 102.943 125.439C102.603 125.666 102.201 125.847 101.736 125.983C101.272 126.108 100.813 126.17 100.359 126.17ZM101.09 116.48C100.943 116.684 100.75 116.78 100.512 116.769C100.274 116.746 100.082 116.639 99.9344 116.446C99.7984 116.253 99.7871 116.038 99.9004 115.8L101.175 113.301C101.345 112.961 101.6 112.802 101.94 112.825C102.292 112.836 102.564 112.984 102.756 113.267C102.949 113.55 102.938 113.839 102.722 114.134L101.09 116.48ZM109.727 126.17C108.797 126.17 107.993 125.994 107.313 125.643C106.644 125.292 106.134 124.793 105.783 124.147C105.431 123.501 105.256 122.736 105.256 121.852C105.256 121.013 105.437 120.265 105.8 119.608C106.174 118.951 106.684 118.441 107.33 118.078C107.976 117.704 108.701 117.517 109.506 117.517C110.276 117.517 110.956 117.687 111.546 118.027C112.146 118.367 112.611 118.82 112.94 119.387C113.28 119.942 113.45 120.532 113.45 121.155C113.45 121.416 113.393 121.625 113.28 121.784C113.166 121.943 113.013 122.067 112.821 122.158C112.628 122.237 112.379 122.311 112.073 122.379L111.835 122.43C111.404 122.509 110.934 122.566 110.424 122.6C109.914 122.634 109.2 122.662 108.282 122.685C107.885 122.685 107.471 122.691 107.041 122.702L107.092 121.172H107.619C108.684 121.172 109.528 121.149 110.152 121.104C110.775 121.059 111.302 120.945 111.733 120.764L111.461 121.002C111.483 120.481 111.308 120.056 110.934 119.727C110.56 119.387 110.089 119.217 109.523 119.217C108.82 119.217 108.287 119.421 107.925 119.829C107.562 120.237 107.381 120.843 107.381 121.648V121.852C107.381 122.498 107.477 123.019 107.67 123.416C107.874 123.801 108.151 124.079 108.503 124.249C108.854 124.419 109.279 124.504 109.778 124.504C110.061 124.504 110.35 124.464 110.645 124.385C110.951 124.306 111.257 124.181 111.563 124.011C111.88 123.841 112.163 123.835 112.413 123.994C112.673 124.141 112.804 124.368 112.804 124.674C112.804 124.969 112.639 125.224 112.311 125.439C111.971 125.666 111.568 125.847 111.104 125.983C110.639 126.108 110.18 126.17 109.727 126.17ZM121.379 126C121.005 126 120.716 125.904 120.512 125.711C120.32 125.507 120.223 125.212 120.223 124.827V115.851C120.223 115.477 120.32 115.171 120.512 114.933C120.716 114.684 121 114.559 121.362 114.559C121.714 114.559 121.986 114.684 122.178 114.933C122.382 115.171 122.484 115.477 122.484 115.851V124.079H126.819C127.148 124.079 127.414 124.164 127.618 124.334C127.834 124.504 127.941 124.736 127.941 125.031C127.941 125.326 127.834 125.564 127.618 125.745C127.414 125.915 127.148 126 126.819 126H121.379ZM132.052 126.17C131.474 126.17 130.964 126.051 130.522 125.813C130.08 125.564 129.74 125.229 129.502 124.81C129.276 124.391 129.162 123.932 129.162 123.433C129.162 122.821 129.4 122.283 129.876 121.818C130.364 121.353 130.976 121.064 131.712 120.951C132.449 120.826 133.169 120.923 133.871 121.24L134.67 121.614V122.753L133.82 122.413C133.276 122.198 132.795 122.118 132.375 122.175C131.956 122.232 131.633 122.379 131.406 122.617C131.18 122.855 131.066 123.121 131.066 123.416C131.066 123.79 131.191 124.09 131.44 124.317C131.701 124.544 132.058 124.657 132.511 124.657C132.874 124.657 133.197 124.578 133.48 124.419C133.775 124.26 134.002 124.034 134.16 123.739C134.33 123.433 134.415 123.093 134.415 122.719V120.679C134.415 120.135 134.279 119.733 134.007 119.472C133.735 119.2 133.339 119.064 132.817 119.064C132.602 119.064 132.347 119.121 132.052 119.234C131.758 119.347 131.435 119.529 131.083 119.778C130.766 120.005 130.471 120.044 130.199 119.897C129.939 119.738 129.797 119.5 129.774 119.183C129.752 118.866 129.888 118.599 130.182 118.384C130.602 118.067 131.061 117.834 131.559 117.687C132.058 117.54 132.5 117.466 132.885 117.466C134.109 117.455 135.022 117.744 135.622 118.333C136.223 118.911 136.523 119.795 136.523 120.985V125.116C136.523 125.422 136.433 125.671 136.251 125.864C136.07 126.045 135.815 126.136 135.486 126.136C135.158 126.136 134.903 126.051 134.721 125.881C134.54 125.711 134.449 125.467 134.449 125.15V124.572L134.585 124.589C134.461 125.167 134.189 125.575 133.769 125.813C133.361 126.051 132.789 126.17 132.052 126.17ZM141.988 126.136C141.399 126.136 140.962 125.824 140.679 125.201L138.01 119.013C137.885 118.752 137.84 118.509 137.874 118.282C137.919 118.055 138.033 117.88 138.214 117.755C138.395 117.619 138.645 117.551 138.962 117.551C139.234 117.551 139.449 117.613 139.608 117.738C139.778 117.863 139.925 118.095 140.05 118.435L142.294 124.028H141.784L144.079 118.418C144.215 118.078 144.362 117.851 144.521 117.738C144.691 117.613 144.929 117.551 145.235 117.551C145.484 117.551 145.688 117.619 145.847 117.755C146.006 117.88 146.096 118.055 146.119 118.282C146.153 118.509 146.119 118.747 146.017 118.996L143.28 125.201C143.155 125.518 142.985 125.756 142.77 125.915C142.555 126.062 142.294 126.136 141.988 126.136ZM149.874 126.17C149.296 126.17 148.786 126.051 148.344 125.813C147.902 125.564 147.562 125.229 147.324 124.81C147.097 124.391 146.984 123.932 146.984 123.433C146.984 122.821 147.222 122.283 147.698 121.818C148.185 121.353 148.797 121.064 149.534 120.951C150.271 120.826 150.99 120.923 151.693 121.24L152.492 121.614V122.753L151.642 122.413C151.098 122.198 150.616 122.118 150.197 122.175C149.778 122.232 149.455 122.379 149.228 122.617C149.001 122.855 148.888 123.121 148.888 123.416C148.888 123.79 149.013 124.09 149.262 124.317C149.523 124.544 149.88 124.657 150.333 124.657C150.696 124.657 151.019 124.578 151.302 124.419C151.597 124.26 151.823 124.034 151.982 123.739C152.152 123.433 152.237 123.093 152.237 122.719V120.679C152.237 120.135 152.101 119.733 151.829 119.472C151.557 119.2 151.16 119.064 150.639 119.064C150.424 119.064 150.169 119.121 149.874 119.234C149.579 119.347 149.256 119.529 148.905 119.778C148.588 120.005 148.293 120.044 148.021 119.897C147.76 119.738 147.619 119.5 147.596 119.183C147.573 118.866 147.709 118.599 148.004 118.384C148.423 118.067 148.882 117.834 149.381 117.687C149.88 117.54 150.322 117.466 150.707 117.466C151.931 117.455 152.843 117.744 153.444 118.333C154.045 118.911 154.345 119.795 154.345 120.985V125.116C154.345 125.422 154.254 125.671 154.073 125.864C153.892 126.045 153.637 126.136 153.308 126.136C152.979 126.136 152.724 126.051 152.543 125.881C152.362 125.711 152.271 125.467 152.271 125.15V124.572L152.407 124.589C152.282 125.167 152.01 125.575 151.591 125.813C151.183 126.051 150.611 126.17 149.874 126.17ZM155.523 129.213C155.115 129.247 154.826 129.134 154.656 128.873C154.475 128.624 154.435 128.357 154.537 128.074C154.628 127.791 154.826 127.632 155.132 127.598C155.642 127.564 156.016 127.428 156.254 127.19C156.492 126.952 156.611 126.589 156.611 126.102V118.656C156.611 118.305 156.702 118.033 156.883 117.84C157.076 117.647 157.337 117.551 157.665 117.551C158.028 117.551 158.294 117.647 158.464 117.84C158.634 118.021 158.719 118.293 158.719 118.656V125.898C158.719 126.997 158.464 127.802 157.954 128.312C157.456 128.822 156.645 129.122 155.523 129.213ZM157.648 116.378C157.32 116.378 157.036 116.265 156.798 116.038C156.572 115.811 156.458 115.528 156.458 115.188C156.458 114.848 156.572 114.565 156.798 114.338C157.036 114.111 157.32 113.998 157.648 113.998C157.988 113.998 158.272 114.111 158.498 114.338C158.725 114.565 158.838 114.848 158.838 115.188C158.838 115.528 158.725 115.811 158.498 116.038C158.272 116.265 157.988 116.378 157.648 116.378ZM164.937 126.17C164.121 126.17 163.384 125.983 162.727 125.609C162.081 125.235 161.571 124.719 161.197 124.062C160.834 123.405 160.653 122.662 160.653 121.835C160.653 121.019 160.834 120.282 161.197 119.625C161.571 118.968 162.081 118.452 162.727 118.078C163.384 117.704 164.121 117.517 164.937 117.517C165.764 117.517 166.501 117.704 167.147 118.078C167.804 118.452 168.314 118.968 168.677 119.625C169.039 120.282 169.221 121.019 169.221 121.835C169.221 122.662 169.039 123.405 168.677 124.062C168.314 124.719 167.804 125.235 167.147 125.609C166.501 125.983 165.764 126.17 164.937 126.17ZM164.937 124.504C165.333 124.504 165.69 124.391 166.008 124.164C166.336 123.937 166.597 123.626 166.79 123.229C166.982 122.821 167.079 122.356 167.079 121.835C167.079 121.314 166.982 120.855 166.79 120.458C166.597 120.05 166.336 119.738 166.008 119.523C165.69 119.296 165.333 119.183 164.937 119.183C164.551 119.183 164.194 119.296 163.866 119.523C163.537 119.738 163.271 120.05 163.067 120.458C162.874 120.855 162.778 121.314 162.778 121.835C162.778 122.356 162.874 122.821 163.067 123.229C163.271 123.626 163.537 123.937 163.866 124.164C164.194 124.391 164.551 124.504 164.937 124.504ZM172.09 122.481C171.772 122.481 171.517 122.379 171.325 122.175C171.132 121.96 171.036 121.716 171.036 121.444C171.036 121.172 171.132 120.934 171.325 120.73C171.517 120.515 171.772 120.407 172.09 120.407H176.034C176.34 120.407 176.589 120.515 176.782 120.73C176.974 120.934 177.071 121.172 177.071 121.444C177.071 121.716 176.974 121.96 176.782 122.175C176.589 122.379 176.34 122.481 176.034 122.481H172.09ZM180.157 126C179.772 126 179.472 125.898 179.256 125.694C179.052 125.49 178.95 125.19 178.95 124.793V115.817C178.95 115.42 179.052 115.12 179.256 114.916C179.472 114.712 179.772 114.61 180.157 114.61H183.098C184.413 114.61 185.529 114.854 186.447 115.341C187.377 115.817 188.079 116.486 188.555 117.347C189.031 118.197 189.269 119.177 189.269 120.288C189.269 122.192 188.748 123.62 187.705 124.572C186.663 125.524 185.127 126 183.098 126H180.157ZM182.962 124.13C184.356 124.13 185.388 123.83 186.056 123.229C186.725 122.628 187.059 121.648 187.059 120.288C187.059 119.143 186.702 118.22 185.988 117.517C185.286 116.814 184.277 116.463 182.962 116.463H181.177V124.13H182.962ZM195.099 126.17C194.169 126.17 193.365 125.994 192.685 125.643C192.016 125.292 191.506 124.793 191.155 124.147C190.803 123.501 190.628 122.736 190.628 121.852C190.628 121.013 190.809 120.265 191.172 119.608C191.546 118.951 192.056 118.441 192.702 118.078C193.348 117.704 194.073 117.517 194.878 117.517C195.648 117.517 196.328 117.687 196.918 118.027C197.518 118.367 197.983 118.82 198.312 119.387C198.652 119.942 198.822 120.532 198.822 121.155C198.822 121.416 198.765 121.625 198.652 121.784C198.538 121.943 198.385 122.067 198.193 122.158C198 122.237 197.751 122.311 197.445 122.379L197.207 122.43C196.776 122.509 196.306 122.566 195.796 122.6C195.286 122.634 194.572 122.662 193.654 122.685C193.257 122.685 192.843 122.691 192.413 122.702L192.464 121.172H192.991C194.056 121.172 194.9 121.149 195.524 121.104C196.147 121.059 196.674 120.945 197.105 120.764L196.833 121.002C196.855 120.481 196.68 120.056 196.306 119.727C195.932 119.387 195.461 119.217 194.895 119.217C194.192 119.217 193.659 119.421 193.297 119.829C192.934 120.237 192.753 120.843 192.753 121.648V121.852C192.753 122.498 192.849 123.019 193.042 123.416C193.246 123.801 193.523 124.079 193.875 124.249C194.226 124.419 194.651 124.504 195.15 124.504C195.433 124.504 195.722 124.464 196.017 124.385C196.323 124.306 196.629 124.181 196.935 124.011C197.252 123.841 197.535 123.835 197.785 123.994C198.045 124.141 198.176 124.368 198.176 124.674C198.176 124.969 198.011 125.224 197.683 125.439C197.343 125.666 196.94 125.847 196.476 125.983C196.011 126.108 195.552 126.17 195.099 126.17ZM203.836 125.116C203.836 125.422 203.729 125.671 203.513 125.864C203.309 126.045 203.037 126.136 202.697 126.136C202.119 126.136 201.666 126.028 201.337 125.813C201.009 125.586 200.788 125.297 200.674 124.946C200.561 124.595 200.504 124.175 200.504 123.688V115.664C200.504 115.29 200.589 115.001 200.759 114.797C200.941 114.582 201.207 114.474 201.558 114.474C201.898 114.474 202.159 114.582 202.34 114.797C202.522 115.001 202.612 115.29 202.612 115.664V123.671V123.79C202.612 123.994 202.635 124.136 202.68 124.215C202.726 124.294 202.845 124.334 203.037 124.334C203.298 124.334 203.496 124.419 203.632 124.589C203.768 124.748 203.836 124.923 203.836 125.116ZM207.941 126.17C207.363 126.17 206.853 126.051 206.411 125.813C205.969 125.564 205.629 125.229 205.391 124.81C205.164 124.391 205.051 123.932 205.051 123.433C205.051 122.821 205.289 122.283 205.765 121.818C206.252 121.353 206.864 121.064 207.601 120.951C208.338 120.826 209.057 120.923 209.76 121.24L210.559 121.614V122.753L209.709 122.413C209.165 122.198 208.683 122.118 208.264 122.175C207.845 122.232 207.522 122.379 207.295 122.617C207.068 122.855 206.955 123.121 206.955 123.416C206.955 123.79 207.08 124.09 207.329 124.317C207.59 124.544 207.947 124.657 208.4 124.657C208.763 124.657 209.086 124.578 209.369 124.419C209.664 124.26 209.89 124.034 210.049 123.739C210.219 123.433 210.304 123.093 210.304 122.719V120.679C210.304 120.135 210.168 119.733 209.896 119.472C209.624 119.2 209.227 119.064 208.706 119.064C208.491 119.064 208.236 119.121 207.941 119.234C207.646 119.347 207.323 119.529 206.972 119.778C206.655 120.005 206.36 120.044 206.088 119.897C205.827 119.738 205.686 119.5 205.663 119.183C205.64 118.866 205.776 118.599 206.071 118.384C206.49 118.067 206.949 117.834 207.448 117.687C207.947 117.54 208.389 117.466 208.774 117.466C209.998 117.455 210.91 117.744 211.511 118.333C212.112 118.911 212.412 119.795 212.412 120.985V125.116C212.412 125.422 212.321 125.671 212.14 125.864C211.959 126.045 211.704 126.136 211.375 126.136C211.046 126.136 210.791 126.051 210.61 125.881C210.429 125.711 210.338 125.467 210.338 125.15V124.572L210.474 124.589C210.349 125.167 210.077 125.575 209.658 125.813C209.25 126.051 208.678 126.17 207.941 126.17ZM215.324 126.136C215.007 126.136 214.758 126.034 214.576 125.83C214.395 125.626 214.304 125.348 214.304 124.997V118.673C214.304 118.322 214.401 118.05 214.593 117.857C214.797 117.653 215.035 117.551 215.307 117.551C215.659 117.551 215.931 117.67 216.123 117.908C216.327 118.135 216.429 118.441 216.429 118.826V119.846H216.242C216.412 119.155 216.645 118.611 216.939 118.214C217.234 117.817 217.687 117.591 218.299 117.534C218.605 117.523 218.872 117.591 219.098 117.738C219.325 117.874 219.455 118.089 219.489 118.384C219.523 118.656 219.455 118.9 219.285 119.115C219.127 119.319 218.889 119.438 218.571 119.472L218.248 119.506C217.716 119.563 217.319 119.682 217.058 119.863C216.798 120.033 216.628 120.26 216.548 120.543C216.469 120.826 216.429 121.212 216.429 121.699V124.997C216.429 125.36 216.333 125.643 216.14 125.847C215.959 126.04 215.687 126.136 215.324 126.136ZM224.713 126.17C223.897 126.17 223.161 125.983 222.503 125.609C221.857 125.235 221.347 124.719 220.973 124.062C220.611 123.405 220.429 122.662 220.429 121.835C220.429 121.019 220.611 120.282 220.973 119.625C221.347 118.968 221.857 118.452 222.503 118.078C223.161 117.704 223.897 117.517 224.713 117.517C225.541 117.517 226.277 117.704 226.923 118.078C227.581 118.452 228.091 118.968 228.453 119.625C228.816 120.282 228.997 121.019 228.997 121.835C228.997 122.662 228.816 123.405 228.453 124.062C228.091 124.719 227.581 125.235 226.923 125.609C226.277 125.983 225.541 126.17 224.713 126.17ZM224.713 124.504C225.11 124.504 225.467 124.391 225.784 124.164C226.113 123.937 226.374 123.626 226.566 123.229C226.759 122.821 226.855 122.356 226.855 121.835C226.855 121.314 226.759 120.855 226.566 120.458C226.374 120.05 226.113 119.738 225.784 119.523C225.467 119.296 225.11 119.183 224.713 119.183C224.328 119.183 223.971 119.296 223.642 119.523C223.314 119.738 223.047 120.05 222.843 120.458C222.651 120.855 222.554 121.314 222.554 121.835C222.554 122.356 222.651 122.821 222.843 123.229C223.047 123.626 223.314 123.937 223.642 124.164C223.971 124.391 224.328 124.504 224.713 124.504ZM233.811 126.17C232.791 126.17 232.037 125.887 231.55 125.32C231.074 124.742 230.836 123.875 230.836 122.719V118.673C230.836 118.31 230.932 118.033 231.125 117.84C231.317 117.647 231.572 117.551 231.89 117.551C232.241 117.551 232.502 117.647 232.672 117.84C232.853 118.021 232.944 118.299 232.944 118.673V122.753C232.944 123.32 233.063 123.745 233.301 124.028C233.539 124.3 233.907 124.436 234.406 124.436C234.961 124.436 235.414 124.249 235.766 123.875C236.117 123.501 236.293 122.997 236.293 122.362V118.673C236.293 118.299 236.378 118.021 236.548 117.84C236.718 117.647 236.978 117.551 237.33 117.551C237.647 117.551 237.902 117.647 238.095 117.84C238.299 118.033 238.401 118.31 238.401 118.673V125.014C238.401 125.365 238.316 125.643 238.146 125.847C237.976 126.04 237.732 126.136 237.415 126.136C237.075 126.136 236.808 126.04 236.616 125.847C236.434 125.654 236.344 125.377 236.344 125.014V123.739L236.582 124.283C236.344 124.895 235.981 125.365 235.494 125.694C235.018 126.011 234.457 126.17 233.811 126.17ZM243.643 126.17C243.11 126.147 242.566 126.057 242.011 125.898C241.467 125.728 241.019 125.462 240.668 125.099C240.407 124.838 240.311 124.555 240.379 124.249C240.447 123.943 240.617 123.733 240.889 123.62C241.161 123.507 241.422 123.563 241.671 123.79C242.045 124.107 242.379 124.323 242.674 124.436C242.98 124.538 243.303 124.589 243.643 124.589C244.164 124.589 244.538 124.51 244.765 124.351C245.003 124.192 245.122 123.96 245.122 123.654C245.122 123.405 245.048 123.218 244.901 123.093C244.765 122.968 244.527 122.872 244.187 122.804L242.487 122.481C241.773 122.334 241.229 122.062 240.855 121.665C240.492 121.257 240.311 120.747 240.311 120.135C240.311 119.614 240.458 119.155 240.753 118.758C241.059 118.361 241.484 118.055 242.028 117.84C242.572 117.625 243.19 117.517 243.881 117.517C244.425 117.517 244.924 117.602 245.377 117.772C245.842 117.942 246.25 118.225 246.601 118.622C246.805 118.86 246.862 119.121 246.771 119.404C246.68 119.687 246.499 119.88 246.227 119.982C245.955 120.073 245.694 119.999 245.445 119.761C245.309 119.625 245.19 119.529 245.088 119.472C244.884 119.336 244.686 119.24 244.493 119.183C244.3 119.115 244.108 119.081 243.915 119.081C243.462 119.081 243.099 119.172 242.827 119.353C242.555 119.523 242.419 119.761 242.419 120.067C242.419 120.271 242.481 120.452 242.606 120.611C242.742 120.758 242.963 120.86 243.269 120.917L244.969 121.24C245.672 121.376 246.221 121.659 246.618 122.09C247.015 122.521 247.213 123.014 247.213 123.569C247.213 124.102 247.066 124.572 246.771 124.98C246.476 125.377 246.057 125.683 245.513 125.898C244.969 126.102 244.346 126.193 243.643 126.17ZM251.915 126.17C251.382 126.147 250.838 126.057 250.283 125.898C249.739 125.728 249.291 125.462 248.94 125.099C248.679 124.838 248.583 124.555 248.651 124.249C248.719 123.943 248.889 123.733 249.161 123.62C249.433 123.507 249.693 123.563 249.943 123.79C250.317 124.107 250.651 124.323 250.946 124.436C251.252 124.538 251.575 124.589 251.915 124.589C252.436 124.589 252.81 124.51 253.037 124.351C253.275 124.192 253.394 123.96 253.394 123.654C253.394 123.405 253.32 123.218 253.173 123.093C253.037 122.968 252.799 122.872 252.459 122.804L250.759 122.481C250.045 122.334 249.501 122.062 249.127 121.665C248.764 121.257 248.583 120.747 248.583 120.135C248.583 119.614 248.73 119.155 249.025 118.758C249.331 118.361 249.756 118.055 250.3 117.84C250.844 117.625 251.461 117.517 252.153 117.517C252.697 117.517 253.195 117.602 253.649 117.772C254.113 117.942 254.521 118.225 254.873 118.622C255.077 118.86 255.133 119.121 255.043 119.404C254.952 119.687 254.771 119.88 254.499 119.982C254.227 120.073 253.966 119.999 253.717 119.761C253.581 119.625 253.462 119.529 253.36 119.472C253.156 119.336 252.957 119.24 252.765 119.183C252.572 119.115 252.379 119.081 252.187 119.081C251.733 119.081 251.371 119.172 251.099 119.353C250.827 119.523 250.691 119.761 250.691 120.067C250.691 120.271 250.753 120.452 250.878 120.611C251.014 120.758 251.235 120.86 251.541 120.917L253.241 121.24C253.943 121.376 254.493 121.659 254.89 122.09C255.286 122.521 255.485 123.014 255.485 123.569C255.485 124.102 255.337 124.572 255.043 124.98C254.748 125.377 254.329 125.683 253.785 125.898C253.241 126.102 252.617 126.193 251.915 126.17ZM261.138 126.17C260.209 126.17 259.404 125.994 258.724 125.643C258.056 125.292 257.546 124.793 257.194 124.147C256.843 123.501 256.667 122.736 256.667 121.852C256.667 121.013 256.849 120.265 257.211 119.608C257.585 118.951 258.095 118.441 258.741 118.078C259.387 117.704 260.113 117.517 260.917 117.517C261.688 117.517 262.368 117.687 262.957 118.027C263.558 118.367 264.023 118.82 264.351 119.387C264.691 119.942 264.861 120.532 264.861 121.155C264.861 121.416 264.805 121.625 264.691 121.784C264.578 121.943 264.425 122.067 264.232 122.158C264.04 122.237 263.79 122.311 263.484 122.379L263.246 122.43C262.816 122.509 262.345 122.566 261.835 122.6C261.325 122.634 260.611 122.662 259.693 122.685C259.297 122.685 258.883 122.691 258.452 122.702L258.503 121.172H259.03C260.096 121.172 260.94 121.149 261.563 121.104C262.187 121.059 262.714 120.945 263.144 120.764L262.872 121.002C262.895 120.481 262.719 120.056 262.345 119.727C261.971 119.387 261.501 119.217 260.934 119.217C260.232 119.217 259.699 119.421 259.336 119.829C258.974 120.237 258.792 120.843 258.792 121.648V121.852C258.792 122.498 258.889 123.019 259.081 123.416C259.285 123.801 259.563 124.079 259.914 124.249C260.266 124.419 260.691 124.504 261.189 124.504C261.473 124.504 261.762 124.464 262.056 124.385C262.362 124.306 262.668 124.181 262.974 124.011C263.292 123.841 263.575 123.835 263.824 123.994C264.085 124.141 264.215 124.368 264.215 124.674C264.215 124.969 264.051 125.224 263.722 125.439C263.382 125.666 262.98 125.847 262.515 125.983C262.051 126.108 261.592 126.17 261.138 126.17Z" fill="black"/>
<path d="M72.6242 145.17C72.0462 145.17 71.5362 145.051 71.0942 144.813C70.6635 144.564 70.3348 144.235 70.1082 143.827C69.8815 143.408 69.7682 142.949 69.7682 142.45C69.7682 141.827 70.0118 141.283 70.4992 140.818C70.9865 140.353 71.5985 140.07 72.3352 139.968C73.0832 139.855 73.8198 139.974 74.5452 140.325L75.2762 140.682L75.2592 141.753L74.4772 141.413C73.8992 141.175 73.3835 141.079 72.9302 141.124C72.4768 141.169 72.1255 141.322 71.8762 141.583C71.6268 141.832 71.5022 142.121 71.5022 142.45C71.5022 142.847 71.6382 143.17 71.9102 143.419C72.1822 143.657 72.5562 143.776 73.0322 143.776C73.3948 143.776 73.7235 143.697 74.0182 143.538C74.3242 143.368 74.5678 143.136 74.7492 142.841C74.9305 142.535 75.0212 142.184 75.0212 141.787V139.679C75.0212 139.101 74.8795 138.676 74.5962 138.404C74.3128 138.121 73.8992 137.979 73.3552 137.979C73.1398 137.979 72.8735 138.036 72.5562 138.149C72.2502 138.262 71.9272 138.449 71.5872 138.71C71.2812 138.925 71.0035 138.971 70.7542 138.846C70.5048 138.71 70.3632 138.495 70.3292 138.2C70.3065 137.894 70.4368 137.639 70.7202 137.435C71.1282 137.106 71.5815 136.868 72.0802 136.721C72.5788 136.562 73.0265 136.483 73.4232 136.483C74.6018 136.483 75.4802 136.772 76.0582 137.35C76.6475 137.917 76.9422 138.784 76.9422 139.951V144.218C76.9422 144.49 76.8628 144.711 76.7042 144.881C76.5455 145.051 76.3132 145.136 76.0072 145.136C75.7012 145.136 75.4632 145.057 75.2932 144.898C75.1345 144.728 75.0552 144.507 75.0552 144.235V143.555H75.1912C75.0665 144.133 74.7888 144.547 74.3582 144.796C73.9275 145.045 73.3495 145.17 72.6242 145.17ZM71.0772 133.066C70.8845 132.783 70.8788 132.516 71.0602 132.267C71.2415 132.006 71.4852 131.87 71.7912 131.859C72.1085 131.836 72.3522 131.984 72.5222 132.301L73.8142 134.868C73.9275 135.095 73.9218 135.299 73.7972 135.48C73.6725 135.65 73.4968 135.746 73.2702 135.769C73.0435 135.78 72.8678 135.69 72.7432 135.497L71.0772 133.066ZM86.8878 145.136C86.5592 145.136 86.3042 145.045 86.1228 144.864C85.9415 144.683 85.8508 144.416 85.8508 144.065V135.327H86.8538L84.5588 137.401C84.2982 137.65 84.0148 137.735 83.7088 137.656C83.4028 137.577 83.2158 137.39 83.1478 137.095C83.0798 136.8 83.1988 136.517 83.5048 136.245L86.0208 133.865C86.1908 133.718 86.3552 133.616 86.5138 133.559C86.6725 133.502 86.8482 133.474 87.0408 133.474C87.3128 133.474 87.5282 133.559 87.6868 133.729C87.8455 133.888 87.9248 134.103 87.9248 134.375V144.065C87.9248 144.416 87.8342 144.683 87.6528 144.864C87.4715 145.045 87.2165 145.136 86.8878 145.136ZM91.543 145.085C91.169 145.085 90.8687 144.972 90.642 144.745C90.4154 144.507 90.302 144.212 90.302 143.861C90.302 143.498 90.4154 143.209 90.642 142.994C90.8687 142.779 91.169 142.671 91.543 142.671C91.9057 142.671 92.1947 142.779 92.41 142.994C92.6367 143.209 92.75 143.498 92.75 143.861C92.75 144.212 92.6367 144.507 92.41 144.745C92.1947 144.972 91.9057 145.085 91.543 145.085ZM95.846 145C95.4947 145 95.2397 144.921 95.081 144.762C94.9224 144.603 94.843 144.371 94.843 144.065C94.843 143.884 94.8884 143.708 94.979 143.538C95.0697 143.368 95.2114 143.181 95.404 142.977L98.889 139.288L99.399 138.778C99.807 138.359 100.085 138.036 100.232 137.809C100.391 137.571 100.47 137.293 100.47 136.976C100.47 136.398 100.272 135.956 99.875 135.65C99.4897 135.344 98.9457 135.191 98.243 135.191C97.8804 135.191 97.495 135.27 97.087 135.429C96.679 135.588 96.3107 135.82 95.982 136.126C95.7214 136.375 95.4494 136.443 95.166 136.33C94.894 136.205 94.7184 135.99 94.639 135.684C94.571 135.367 94.6674 135.078 94.928 134.817C95.3587 134.42 95.9027 134.092 96.56 133.831C97.2287 133.57 97.8747 133.44 98.498 133.44C99.3254 133.44 100.034 133.582 100.623 133.865C101.212 134.148 101.66 134.545 101.966 135.055C102.272 135.554 102.425 136.126 102.425 136.772C102.425 137.169 102.351 137.548 102.204 137.911C102.057 138.262 101.83 138.636 101.524 139.033C101.229 139.418 100.816 139.883 100.283 140.427L97.036 143.844V143.283H102.136C102.431 143.283 102.652 143.357 102.799 143.504C102.958 143.64 103.037 143.85 103.037 144.133C103.037 144.405 102.958 144.62 102.799 144.779C102.652 144.926 102.431 145 102.136 145H95.846ZM105.828 145.136C105.499 145.136 105.256 145.045 105.097 144.864C104.95 144.683 104.876 144.428 104.876 144.099V134.63C104.876 134.245 104.95 133.956 105.097 133.763C105.256 133.57 105.499 133.474 105.828 133.474C106.145 133.474 106.383 133.57 106.542 133.763C106.712 133.956 106.797 134.245 106.797 134.63V139.968V139.985L109.789 136.908C110.004 136.693 110.237 136.557 110.486 136.5C110.735 136.443 110.973 136.528 111.2 136.755C111.313 136.868 111.387 137.004 111.421 137.163C111.455 137.31 111.444 137.475 111.387 137.656C111.342 137.826 111.245 137.99 111.098 138.149L108.582 140.784V139.917L111.676 143.3C111.925 143.572 112.073 143.838 112.118 144.099C112.175 144.348 112.101 144.586 111.897 144.813C111.693 145.051 111.455 145.136 111.183 145.068C110.911 145.011 110.616 144.824 110.299 144.507L107.494 141.634L106.797 142.348V144.099C106.797 144.439 106.712 144.7 106.542 144.881C106.383 145.051 106.145 145.136 105.828 145.136ZM114.964 145.136C114.646 145.136 114.403 145.045 114.233 144.864C114.063 144.683 113.978 144.428 113.978 144.099V137.571C113.978 137.242 114.063 136.993 114.233 136.823C114.403 136.653 114.641 136.568 114.947 136.568C115.264 136.568 115.508 136.653 115.678 136.823C115.848 136.993 115.933 137.242 115.933 137.571V138.863L115.746 138.387C115.972 137.798 116.324 137.344 116.8 137.027C117.276 136.698 117.842 136.534 118.5 136.534C119.18 136.534 119.729 136.698 120.149 137.027C120.579 137.344 120.88 137.832 121.05 138.489H120.812C121.038 137.877 121.412 137.401 121.934 137.061C122.455 136.71 123.056 136.534 123.736 136.534C124.676 136.534 125.373 136.812 125.827 137.367C126.291 137.922 126.524 138.772 126.524 139.917V144.099C126.524 144.428 126.433 144.683 126.252 144.864C126.07 145.045 125.821 145.136 125.504 145.136C125.186 145.136 124.937 145.045 124.756 144.864C124.586 144.683 124.501 144.428 124.501 144.099V140.002C124.501 139.333 124.393 138.852 124.178 138.557C123.962 138.262 123.6 138.115 123.09 138.115C122.512 138.115 122.058 138.319 121.73 138.727C121.401 139.124 121.237 139.673 121.237 140.376V144.099C121.237 144.428 121.152 144.683 120.982 144.864C120.812 145.045 120.568 145.136 120.251 145.136C119.922 145.136 119.667 145.045 119.486 144.864C119.316 144.683 119.231 144.428 119.231 144.099V140.002C119.231 139.333 119.117 138.852 118.891 138.557C118.675 138.262 118.324 138.115 117.837 138.115C117.259 138.115 116.805 138.319 116.477 138.727C116.148 139.124 115.984 139.673 115.984 140.376V144.099C115.984 144.439 115.899 144.7 115.729 144.881C115.559 145.051 115.304 145.136 114.964 145.136ZM136.788 145.17C136.062 145.17 135.422 144.994 134.867 144.643C134.323 144.292 133.898 143.787 133.592 143.13C133.286 142.473 133.133 141.708 133.133 140.835C133.133 139.951 133.286 139.186 133.592 138.54C133.898 137.894 134.323 137.401 134.867 137.061C135.422 136.71 136.062 136.534 136.788 136.534C137.479 136.534 138.085 136.704 138.607 137.044C139.128 137.384 139.479 137.843 139.661 138.421H139.474V134.494C139.474 134.165 139.559 133.916 139.729 133.746C139.91 133.565 140.159 133.474 140.477 133.474C140.805 133.474 141.055 133.565 141.225 133.746C141.406 133.916 141.497 134.165 141.497 134.494V144.099C141.497 144.428 141.412 144.683 141.242 144.864C141.072 145.045 140.822 145.136 140.494 145.136C140.176 145.136 139.927 145.045 139.746 144.864C139.576 144.683 139.491 144.428 139.491 144.099V142.739L139.678 143.198C139.508 143.799 139.162 144.28 138.641 144.643C138.119 144.994 137.502 145.17 136.788 145.17ZM137.349 143.623C138.006 143.623 138.527 143.385 138.913 142.909C139.309 142.433 139.508 141.742 139.508 140.835C139.508 139.94 139.309 139.254 138.913 138.778C138.527 138.302 138.006 138.064 137.349 138.064C136.669 138.064 136.13 138.302 135.734 138.778C135.348 139.254 135.156 139.94 135.156 140.835C135.156 141.742 135.348 142.433 135.734 142.909C136.13 143.385 136.669 143.623 137.349 143.623ZM147.73 145.17C146.812 145.17 146.018 144.994 145.35 144.643C144.692 144.292 144.188 143.793 143.837 143.147C143.497 142.501 143.327 141.736 143.327 140.852C143.327 140.013 143.508 139.265 143.871 138.608C144.233 137.951 144.732 137.441 145.367 137.078C146.001 136.715 146.721 136.534 147.526 136.534C148.274 136.534 148.942 136.704 149.532 137.044C150.132 137.373 150.591 137.82 150.909 138.387C151.237 138.954 151.402 139.554 151.402 140.189C151.402 140.438 151.351 140.637 151.249 140.784C151.158 140.931 151.022 141.045 150.841 141.124C150.659 141.203 150.427 141.271 150.144 141.328L149.923 141.379C149.469 141.47 148.971 141.532 148.427 141.566C147.894 141.6 147.152 141.628 146.2 141.651C145.792 141.651 145.372 141.657 144.942 141.668L144.976 140.223H145.554C146.653 140.223 147.526 140.2 148.172 140.155C148.829 140.11 149.39 139.991 149.855 139.798L149.583 140.036C149.617 139.469 149.435 139.01 149.039 138.659C148.642 138.296 148.138 138.115 147.526 138.115C146.789 138.115 146.228 138.336 145.843 138.778C145.457 139.209 145.265 139.838 145.265 140.665V140.869C145.253 141.526 145.35 142.059 145.554 142.467C145.769 142.875 146.058 143.17 146.421 143.351C146.795 143.532 147.242 143.623 147.764 143.623C148.07 143.623 148.37 143.583 148.665 143.504C148.971 143.425 149.288 143.294 149.617 143.113C149.911 142.954 150.178 142.949 150.416 143.096C150.654 143.232 150.773 143.436 150.773 143.708C150.773 143.98 150.625 144.218 150.331 144.422C149.979 144.649 149.571 144.83 149.107 144.966C148.642 145.102 148.183 145.17 147.73 145.17ZM161.171 145.17C160.491 145.17 159.964 145.057 159.59 144.83C159.216 144.592 158.955 144.241 158.808 143.776C158.661 143.311 158.587 142.705 158.587 141.957V138.285H157.873C157.612 138.285 157.408 138.217 157.261 138.081C157.125 137.934 157.057 137.735 157.057 137.486C157.057 137.237 157.125 137.044 157.261 136.908C157.408 136.761 157.612 136.687 157.873 136.687H158.587V135.106C158.587 134.789 158.672 134.539 158.842 134.358C159.012 134.177 159.25 134.086 159.556 134.086C159.851 134.086 160.083 134.177 160.253 134.358C160.423 134.539 160.508 134.789 160.508 135.106V136.687H161.443C161.704 136.687 161.902 136.761 162.038 136.908C162.185 137.044 162.259 137.237 162.259 137.486C162.259 137.735 162.185 137.934 162.038 138.081C161.902 138.217 161.704 138.285 161.443 138.285H160.508V141.838C160.508 142.303 160.519 142.643 160.542 142.858C160.565 143.062 160.638 143.221 160.763 143.334C160.899 143.447 161.114 143.504 161.409 143.504C161.522 143.504 161.619 143.487 161.698 143.453C161.789 143.43 161.879 143.419 161.97 143.419C162.14 143.419 162.293 143.476 162.429 143.589C162.576 143.702 162.667 143.861 162.701 144.065C162.735 144.246 162.701 144.422 162.599 144.592C162.508 144.762 162.367 144.887 162.174 144.966C162.038 145.023 161.868 145.068 161.664 145.102C161.46 145.147 161.296 145.17 161.171 145.17ZM167.762 145.17C166.957 145.17 166.232 144.983 165.586 144.609C164.951 144.235 164.452 143.719 164.09 143.062C163.738 142.405 163.563 141.662 163.563 140.835C163.563 140.019 163.738 139.282 164.09 138.625C164.452 137.968 164.951 137.458 165.586 137.095C166.232 136.721 166.957 136.534 167.762 136.534C168.578 136.534 169.303 136.721 169.938 137.095C170.584 137.458 171.082 137.968 171.434 138.625C171.796 139.282 171.978 140.019 171.978 140.835C171.978 141.662 171.796 142.405 171.434 143.062C171.082 143.719 170.584 144.235 169.938 144.609C169.303 144.983 168.578 145.17 167.762 145.17ZM167.762 143.623C168.181 143.623 168.561 143.51 168.901 143.283C169.241 143.045 169.513 142.716 169.717 142.297C169.921 141.866 170.023 141.379 170.023 140.835C170.023 140.291 169.921 139.809 169.717 139.39C169.513 138.971 169.241 138.648 168.901 138.421C168.561 138.183 168.181 138.064 167.762 138.064C167.354 138.064 166.974 138.183 166.623 138.421C166.283 138.648 166.011 138.971 165.807 139.39C165.603 139.809 165.501 140.291 165.501 140.835C165.501 141.379 165.603 141.866 165.807 142.297C166.011 142.716 166.283 143.045 166.623 143.283C166.974 143.51 167.354 143.623 167.762 143.623ZM174.77 145.119C174.464 145.119 174.226 145.023 174.056 144.83C173.897 144.637 173.818 144.365 173.818 144.014V137.673C173.818 137.322 173.897 137.055 174.056 136.874C174.226 136.681 174.464 136.585 174.77 136.585C175.076 136.585 175.314 136.681 175.484 136.874C175.654 137.055 175.739 137.322 175.739 137.673V144.014C175.739 144.365 175.654 144.637 175.484 144.83C175.314 145.023 175.076 145.119 174.77 145.119ZM174.77 135.293C174.464 135.293 174.203 135.191 173.988 134.987C173.784 134.783 173.682 134.522 173.682 134.205C173.682 133.888 173.784 133.627 173.988 133.423C174.203 133.219 174.464 133.117 174.77 133.117C175.065 133.117 175.32 133.219 175.535 133.423C175.75 133.627 175.858 133.888 175.858 134.205C175.858 134.522 175.75 134.783 175.535 134.987C175.32 135.191 175.065 135.293 174.77 135.293Z" fill="black" fill-opacity="0.45"/>
</g>
<rect x="12.5" y="-232.5" width="359" height="395" rx="24.5" stroke="black" stroke-opacity="0.12"/>
</g>
</g>
<defs>
<filter id="filter0_d_98_1508" x="8.7" y="-236.3" width="366.6" height="402.6" filterUnits="userSpaceOnUse" color-interpolation-filters="sRGB">
<feFlood flood-opacity="0" result="BackgroundImageFix"/>
<feColorMatrix in="SourceAlpha" type="matrix" values="0 0 0 0 0 0 0 0 0 0 0 0 0 0 0 0 0 0 127 0" result="hardAlpha"/>
<feOffset/>
<feGaussianBlur stdDeviation="1.65"/>
<feComposite in2="hardAlpha" operator="out"/>
<feColorMatrix type="matrix" values="0 0 0 0 0 0 0 0 0 0 0 0 0 0 0 0 0 0 0.15 0"/>
<feBlend mode="normal" in2="BackgroundImageFix" result="effect1_dropShadow_98_1508"/>
<feBlend mode="normal" in="SourceGraphic" in2="effect1_dropShadow_98_1508" result="shape"/>
</filter>
<clipPath id="clip0_98_1508">
<rect width="384" height="179" fill="white"/>
</clipPath>
<clipPath id="clip1_98_1508">
<rect x="12" y="-233" width="360" height="396" rx="25" fill="white"/>
</clipPath>
</defs>
</svg>
