<svg width="384" height="179" viewBox="0 0 384 179" fill="none" xmlns="http://www.w3.org/2000/svg">
<g filter="url(#filter0_d_1412_21)">
<mask id="path-1-inside-1_1412_21" fill="white">
<path d="M20 40.2C20 33.4794 20 30.1191 21.3079 27.5521C22.4584 25.2942 24.2942 23.4584 26.5521 22.3079C29.1191 21 32.4794 21 39.2 21H343.8C350.521 21 353.881 21 356.448 22.3079C358.706 23.4584 360.542 25.2942 361.692 27.5521C363 30.1191 363 33.4794 363 40.2V51H20V40.2Z"/>
</mask>
<path d="M20 40.2C20 33.4794 20 30.1191 21.3079 27.5521C22.4584 25.2942 24.2942 23.4584 26.5521 22.3079C29.1191 21 32.4794 21 39.2 21H343.8C350.521 21 353.881 21 356.448 22.3079C358.706 23.4584 360.542 25.2942 361.692 27.5521C363 30.1191 363 33.4794 363 40.2V51H20V40.2Z" fill="white"/>
<path d="M20 40.2C20 33.4794 20 30.1191 21.3079 27.5521C22.4584 25.2942 24.2942 23.4584 26.5521 22.3079C29.1191 21 32.4794 21 39.2 21H343.8C350.521 21 353.881 21 356.448 22.3079C358.706 23.4584 360.542 25.2942 361.692 27.5521C363 30.1191 363 33.4794 363 40.2V51H20V40.2Z" fill="#87D100" fill-opacity="0.2"/>
<path d="M19 33C19 25.8203 24.8203 20 32 20H351C358.18 20 364 25.8203 364 33H362C362 26.9249 357.075 22 351 22H32C25.9249 22 21 26.9249 21 33H19ZM363 51H20H363ZM19 51V33C19 25.8203 24.8203 20 32 20V22C25.9249 22 21 26.9249 21 33V51H19ZM351 20C358.18 20 364 25.8203 364 33V51H362V33C362 26.9249 357.075 22 351 22V20Z" fill="black" fill-opacity="0.15" mask="url(#path-1-inside-1_1412_21)"/>
<path d="M35.6885 42.1395C32.666 42.1395 30.6665 39.9695 30.6665 36.7145V36.42C30.6665 33.2115 32.7435 30.995 35.642 30.995H35.7815C37.4555 30.995 39.0055 31.8785 39.827 33.32L38.5095 34.2035C37.9515 33.165 37.037 32.514 35.7815 32.514H35.6575C33.689 32.514 32.3715 34.0485 32.3715 36.42V36.73C32.3715 39.086 33.689 40.6205 35.6885 40.6205H35.8435C37.068 40.6205 38.0135 39.954 38.587 38.931L39.8425 39.83C39.021 41.287 37.533 42.1395 35.8125 42.1395H35.6885ZM41.6267 42V30.84H43.1612V34.994C43.8432 34.25 44.8197 33.8005 45.9202 33.8005C47.6717 33.8005 48.6637 34.901 48.6637 36.8385V42H47.1292V37.133C47.1292 35.8465 46.5402 35.211 45.3932 35.211C44.0447 35.211 43.1612 36.11 43.1612 37.4895V42H41.6267ZM53.1836 42.1395C51.6181 42.1395 50.5331 41.194 50.5331 39.7525V39.6285C50.5331 37.8925 52.0211 37.0245 55.1056 37.0245H55.8031V36.575C55.8031 35.707 55.2141 35.1645 54.1446 35.1645H54.0516C53.2456 35.1645 52.3311 35.459 51.6026 36.0015L50.9206 34.839C51.8971 34.188 52.9976 33.785 54.1601 33.785H54.2686C56.1596 33.785 57.2911 34.839 57.2911 36.544V40.512C57.2911 41.008 57.4306 41.566 57.5701 42H56.0666C55.9736 41.7675 55.8961 41.38 55.8496 41.039C55.1056 41.752 54.1756 42.1395 53.1836 42.1395ZM53.4316 40.791C54.3771 40.791 55.2296 40.357 55.8031 39.675V38.187H55.3071C53.0131 38.187 52.0366 38.6055 52.0366 39.5665V39.644C52.0366 40.3415 52.5946 40.791 53.4316 40.791ZM59.8132 42V33.94H61.0222C61.1152 34.2345 61.2237 34.6995 61.2547 35.056C61.9212 34.281 62.8822 33.8005 63.9982 33.8005H64.0912C65.8892 33.8005 66.8502 34.8855 66.8502 36.8385V42H65.3157V37.133C65.3157 35.893 64.8197 35.211 63.6727 35.211H63.5642C62.2467 35.211 61.3477 36.0945 61.3477 37.5205V42H59.8132ZM68.7041 36.8385V36.637C68.7041 34.9785 70.0526 33.816 71.9901 33.816H72.3001C72.9201 33.816 73.4781 33.9555 73.9276 34.188C74.0826 33.7385 74.2686 33.351 74.5166 33.041H75.9426L74.9661 34.932C75.3536 35.397 75.5861 35.9705 75.5861 36.637V36.8385C75.5861 38.497 74.2066 39.6595 72.2846 39.6595H72.0521C71.8351 39.6595 71.6336 39.644 71.4476 39.5975V40.5275C71.6646 40.512 71.8971 40.4965 72.1451 40.4965H72.4551C74.5476 40.4965 75.9271 41.38 75.9271 42.7905V42.9145C75.9271 44.3095 74.5321 45.2085 72.4551 45.2085H72.0676C69.9751 45.2085 68.5956 44.325 68.5956 42.93V42.7595C68.5956 41.8605 69.1846 41.1475 70.1456 40.7755V39.2255C69.2466 38.745 68.7041 37.8925 68.7041 36.8385ZM70.2386 36.6525V36.885C70.2386 37.815 70.9981 38.435 72.0366 38.435H72.2381C73.2921 38.435 74.0361 37.7995 74.0361 36.885V36.6525C74.0361 35.738 73.2921 35.1025 72.2381 35.1025H72.0366C70.9981 35.1025 70.2386 35.7225 70.2386 36.6525ZM70.1456 42.7905V42.8525C70.1456 43.55 70.8431 43.9685 72.1141 43.9685H72.4086C73.6951 43.9685 74.3926 43.5345 74.3926 42.8525V42.7905C74.3926 42.093 73.6796 41.659 72.4086 41.659H72.1141C70.8586 41.659 70.1456 42.093 70.1456 42.7905ZM81.0283 42.124C78.7188 42.124 77.1688 40.543 77.1688 38.187V37.8925C77.1688 35.4745 78.7188 33.8315 81.0128 33.8315H81.1523C83.2603 33.8315 84.6863 35.335 84.6863 37.567V38.528H78.7343C78.8428 39.8765 79.7573 40.7445 81.1213 40.7445H81.2763C82.2993 40.7445 83.0278 40.2485 83.4773 39.613L84.4693 40.4965C83.7098 41.5195 82.5628 42.124 81.1988 42.124H81.0283ZM78.7653 37.3345H83.2138V37.319C83.1518 36.0015 82.3148 35.149 81.1213 35.149H80.9663C79.7573 35.149 78.9358 35.986 78.7653 37.3345ZM86.6615 42V33.94H87.8705C87.948 34.188 88.041 34.5755 88.0875 34.9165C88.692 34.219 89.529 33.8005 90.5055 33.8005H90.5985C91.73 33.8005 92.474 34.2655 92.8615 35.149C93.4505 34.2965 94.396 33.8005 95.481 33.8005H95.574C97.217 33.8005 98.085 34.8235 98.085 36.7145V42H96.5505V36.978C96.5505 35.8 96.0855 35.211 95.1245 35.211H95.0315C93.9 35.211 93.1405 35.9395 93.1405 37.319V42H91.606V36.978C91.606 35.8 91.141 35.211 90.149 35.211H90.0715C88.94 35.211 88.196 35.955 88.196 37.319V42H86.6615ZM103.786 42.124C101.477 42.124 99.9266 40.543 99.9266 38.187V37.8925C99.9266 35.4745 101.477 33.8315 103.771 33.8315H103.91C106.018 33.8315 107.444 35.335 107.444 37.567V38.528H101.492C101.601 39.8765 102.515 40.7445 103.879 40.7445H104.034C105.057 40.7445 105.786 40.2485 106.235 39.613L107.227 40.4965C106.468 41.5195 105.321 42.124 103.957 42.124H103.786ZM101.523 37.3345H105.972V37.319C105.91 36.0015 105.073 35.149 103.879 35.149H103.724C102.515 35.149 101.694 35.986 101.523 37.3345ZM109.419 42V33.94H110.628C110.721 34.2345 110.83 34.6995 110.861 35.056C111.527 34.281 112.488 33.8005 113.604 33.8005H113.697C115.495 33.8005 116.456 34.8855 116.456 36.8385V42H114.922V37.133C114.922 35.893 114.426 35.211 113.279 35.211H113.17C111.853 35.211 110.954 36.0945 110.954 37.5205V42H109.419ZM121.24 42.062C119.814 42.062 119.055 41.3335 119.055 39.768V35.2575H117.985V34.188C118.295 34.0795 118.714 33.971 119.055 33.94V32.08L120.589 31.8785V33.94H122.883V35.2575H120.574V39.4735C120.574 40.388 120.946 40.6825 121.628 40.6825C121.984 40.6825 122.682 40.605 123.007 40.512V41.783C122.589 41.969 121.767 42.062 121.24 42.062ZM132.221 42.124C130.098 42.124 128.625 40.4965 128.625 38.187V37.753C128.625 35.4435 130.098 33.816 132.221 33.816H132.361C133.384 33.816 134.252 34.2035 134.872 34.8545V30.84H136.406V42H135.197C135.089 41.752 134.996 41.349 134.965 40.9925C134.329 41.7055 133.415 42.124 132.345 42.124H132.221ZM132.485 40.7755H132.609C133.973 40.7755 134.872 39.706 134.872 38.156V37.7685C134.872 36.203 133.957 35.1645 132.609 35.1645H132.485C131.136 35.1645 130.237 36.203 130.237 37.7685V38.156C130.237 39.7215 131.136 40.7755 132.485 40.7755ZM142.251 42.124C139.942 42.124 138.392 40.543 138.392 38.187V37.8925C138.392 35.4745 139.942 33.8315 142.236 33.8315H142.375C144.483 33.8315 145.909 35.335 145.909 37.567V38.528H139.957C140.066 39.8765 140.98 40.7445 142.344 40.7445H142.499C143.522 40.7445 144.251 40.2485 144.7 39.613L145.692 40.4965C144.933 41.5195 143.786 42.124 142.422 42.124H142.251ZM139.988 37.3345H144.437V37.319C144.375 36.0015 143.538 35.149 142.344 35.149H142.189C140.98 35.149 140.159 35.986 139.988 37.3345ZM155.006 42.1395C153.642 42.1395 152.402 41.7055 151.518 40.946L152.34 39.8145C153.099 40.45 154.06 40.791 155.006 40.791C155.967 40.791 156.494 40.4345 156.494 39.7525C156.494 38.9 155.595 38.776 154.37 38.4195C153.177 38.125 151.89 37.7065 151.89 36.1565C151.89 34.7615 152.975 33.8005 154.649 33.8005C155.812 33.8005 156.912 34.188 157.734 34.777L156.99 35.9395C156.308 35.459 155.471 35.149 154.665 35.149C153.843 35.149 153.378 35.49 153.378 36.0945C153.378 36.8385 154.246 37.0245 155.254 37.2415C156.556 37.536 158.028 37.9855 158.028 39.675C158.028 41.2095 156.85 42.1395 155.006 42.1395ZM162.003 42.1395C160.438 42.1395 159.353 41.194 159.353 39.7525V39.6285C159.353 37.8925 160.841 37.0245 163.925 37.0245H164.623V36.575C164.623 35.707 164.034 35.1645 162.964 35.1645H162.871C162.065 35.1645 161.151 35.459 160.422 36.0015L159.74 34.839C160.717 34.188 161.817 33.785 162.98 33.785H163.088C164.979 33.785 166.111 34.839 166.111 36.544V40.512C166.111 41.008 166.25 41.566 166.39 42H164.886C164.793 41.7675 164.716 41.38 164.669 41.039C163.925 41.752 162.995 42.1395 162.003 42.1395ZM162.251 40.791C163.197 40.791 164.049 40.357 164.623 39.675V38.187H164.127C161.833 38.187 160.856 38.6055 160.856 39.5665V39.644C160.856 40.3415 161.414 40.791 162.251 40.791ZM168.633 42V30.84H170.167V42H168.633ZM172.723 42V30.84H174.258V42H172.723ZM180.1 42.124C177.79 42.124 176.24 40.543 176.24 38.187V37.8925C176.24 35.4745 177.79 33.8315 180.084 33.8315H180.224C182.332 33.8315 183.758 35.335 183.758 37.567V38.528H177.806C177.914 39.8765 178.829 40.7445 180.193 40.7445H180.348C181.371 40.7445 182.099 40.2485 182.549 39.613L183.541 40.4965C182.781 41.5195 181.634 42.124 180.27 42.124H180.1ZM177.837 37.3345H182.285V37.319C182.223 36.0015 181.386 35.149 180.193 35.149H180.038C178.829 35.149 178.007 35.986 177.837 37.3345Z" fill="#87D100"/>
</g>
<g filter="url(#filter1_d_1412_21)">
<mask id="path-4-inside-2_1412_21" fill="white">
<path d="M20 51H363V139.8C363 146.521 363 149.881 361.692 152.448C360.542 154.706 358.706 156.542 356.448 157.692C353.881 159 350.521 159 343.8 159H39.2C32.4794 159 29.1191 159 26.5521 157.692C24.2942 156.542 22.4584 154.706 21.3079 152.448C20 149.881 20 146.521 20 139.8V51Z"/>
</mask>
<path d="M20 51H363V139.8C363 146.521 363 149.881 361.692 152.448C360.542 154.706 358.706 156.542 356.448 157.692C353.881 159 350.521 159 343.8 159H39.2C32.4794 159 29.1191 159 26.5521 157.692C24.2942 156.542 22.4584 154.706 21.3079 152.448C20 149.881 20 146.521 20 139.8V51Z" fill="white"/>
<path d="M20 51H363H20ZM364 147C364 154.18 358.18 160 351 160H32C24.8203 160 19 154.18 19 147H21C21 153.075 25.9249 158 32 158H351C357.075 158 362 153.075 362 147H364ZM32 160C24.8203 160 19 154.18 19 147V51H21V147C21 153.075 25.9249 158 32 158V160ZM364 51V147C364 154.18 358.18 160 351 160V158C357.075 158 362 153.075 362 147V51H364Z" fill="black" fill-opacity="0.15" mask="url(#path-4-inside-2_1412_21)"/>
<g clip-path="url(#clip0_1412_21)">
<rect x="30" y="64" width="10" height="82" rx="5" fill="#87D100"/>
<rect x="26.3882" y="80.4695" width="5.02057" height="29.2866" transform="rotate(-132.444 26.3882 80.4695)" fill="#BFE677"/>
<rect x="26.3882" y="93.0609" width="5.02057" height="29.2866" transform="rotate(-132.444 26.3882 93.0609)" fill="#BFE677"/>
<rect x="26.3882" y="105.652" width="5.02057" height="29.2866" transform="rotate(-132.444 26.3882 105.652)" fill="#BFE677"/>
<rect x="26.3882" y="118.244" width="5.02057" height="29.2866" transform="rotate(-132.444 26.3882 118.244)" fill="#BFE677"/>
<rect x="26.3882" y="130.836" width="5.02057" height="29.2866" transform="rotate(-132.444 26.3882 130.836)" fill="#BFE677"/>
<rect x="26.3882" y="143.427" width="5.02057" height="29.2866" transform="rotate(-132.444 26.3882 143.427)" fill="#BFE677"/>
<rect x="26.3882" y="156.019" width="5.02057" height="29.2866" transform="rotate(-132.444 26.3882 156.019)" fill="#BFE677"/>
<rect x="26.3882" y="168.61" width="5.02057" height="29.2866" transform="rotate(-132.444 26.3882 168.61)" fill="#BFE677"/>
</g>
<path d="M51.394 79V67.1H53.978L58.551 75.43H58.619V67.1H60.778V79H58.551L53.672 70.143H53.57V79H51.394ZM66.1975 79.17C65.2229 79.17 64.4805 78.881 63.9705 78.303C63.4719 77.725 63.2225 76.8977 63.2225 75.821V70.16H65.3305V75.379C65.3305 76.025 65.4552 76.5123 65.7045 76.841C65.9539 77.1697 66.3562 77.334 66.9115 77.334H66.9795C67.2969 77.334 67.5859 77.283 67.8465 77.181C68.1072 77.0677 68.3282 76.909 68.5095 76.705C68.6909 76.4897 68.8325 76.2403 68.9345 75.957C69.0479 75.6623 69.1045 75.3393 69.1045 74.988V70.16H71.2125V79H69.5465C69.4899 78.8413 69.4332 78.643 69.3765 78.405C69.3312 78.1557 69.3029 77.9347 69.2915 77.742C68.9175 78.184 68.4755 78.5353 67.9655 78.796C67.4555 79.0453 66.8945 79.17 66.2825 79.17H66.1975ZM73.6025 79V70.16H75.2685C75.3138 70.3073 75.3592 70.4887 75.4045 70.704C75.4498 70.908 75.4838 71.1063 75.5065 71.299C75.8465 70.891 76.2432 70.5737 76.6965 70.347C77.1612 70.109 77.6712 69.99 78.2265 69.99H78.3115C78.9122 69.99 79.4165 70.1147 79.8245 70.364C80.2325 70.6133 80.5442 70.9817 80.7595 71.469C81.0995 71.0043 81.5132 70.6417 82.0005 70.381C82.4992 70.1203 83.0432 69.99 83.6325 69.99H83.7175C84.6242 69.99 85.3098 70.2677 85.7745 70.823C86.2505 71.3783 86.4885 72.183 86.4885 73.237V79H84.3805V73.611C84.3805 73.305 84.3522 73.0387 84.2955 72.812C84.2388 72.5853 84.1538 72.3983 84.0405 72.251C83.9272 72.1037 83.7798 71.996 83.5985 71.928C83.4285 71.86 83.2245 71.826 82.9865 71.826H82.9185C82.6465 71.826 82.3972 71.8713 82.1705 71.962C81.9438 72.0527 81.7512 72.1887 81.5925 72.37C81.4338 72.5513 81.3092 72.778 81.2185 73.05C81.1392 73.3107 81.0995 73.6167 81.0995 73.968V79H78.9915V73.611C78.9915 73.305 78.9575 73.0443 78.8895 72.829C78.8328 72.6023 78.7478 72.4153 78.6345 72.268C78.5212 72.1207 78.3738 72.013 78.1925 71.945C78.0225 71.8657 77.8185 71.826 77.5805 71.826H77.5125C77.2292 71.826 76.9742 71.877 76.7475 71.979C76.5322 72.0697 76.3452 72.2057 76.1865 72.387C76.0278 72.557 75.9088 72.778 75.8295 73.05C75.7502 73.3107 75.7105 73.6167 75.7105 73.968V79H73.6025ZM92.4665 79.153C91.8205 79.153 91.2255 79.051 90.6815 78.847C90.1489 78.6317 89.6899 78.337 89.3045 77.963C88.9305 77.5777 88.6415 77.1187 88.4375 76.586C88.2335 76.042 88.1315 75.447 88.1315 74.801V74.461C88.1315 73.8037 88.2335 73.203 88.4375 72.659C88.6415 72.115 88.9305 71.6503 89.3045 71.265C89.6899 70.8683 90.1432 70.5623 90.6645 70.347C91.1859 70.1203 91.7695 70.007 92.4155 70.007H92.5855C93.1749 70.007 93.7132 70.109 94.2005 70.313C94.6879 70.5057 95.1072 70.7833 95.4585 71.146C95.8099 71.5087 96.0819 71.9393 96.2745 72.438C96.4672 72.9367 96.5635 73.4863 96.5635 74.087V75.226H90.2225V75.243C90.2565 75.5717 90.3359 75.872 90.4605 76.144C90.5852 76.4047 90.7439 76.6257 90.9365 76.807C91.1405 76.9883 91.3842 77.13 91.6675 77.232C91.9509 77.334 92.2625 77.385 92.6025 77.385H92.7725C93.3052 77.385 93.7642 77.2773 94.1495 77.062C94.5462 76.8353 94.8749 76.5633 95.1355 76.246L96.2915 77.521C96.0875 77.7703 95.8495 77.997 95.5775 78.201C95.3169 78.405 95.0279 78.575 94.7105 78.711C94.4045 78.847 94.0815 78.9547 93.7415 79.034C93.4015 79.1133 93.0502 79.153 92.6875 79.153H92.4665ZM90.2565 73.815H94.5405V73.764C94.5292 73.4467 94.4725 73.1577 94.3705 72.897C94.2799 72.6363 94.1439 72.4153 93.9625 72.234C93.7925 72.0527 93.5885 71.911 93.3505 71.809C93.1125 71.707 92.8462 71.656 92.5515 71.656H92.3985C92.1039 71.656 91.8375 71.707 91.5995 71.809C91.3615 71.911 91.1519 72.0527 90.9705 72.234C90.7892 72.4153 90.6362 72.642 90.5115 72.914C90.3982 73.1747 90.3132 73.475 90.2565 73.815ZM93.2315 69.225H91.6165L92.5855 66.59H94.5065L93.2315 69.225ZM98.3218 79V70.16H99.9708C100.028 70.33 100.079 70.5227 100.124 70.738C100.181 70.9533 100.22 71.1573 100.243 71.35C100.56 70.976 100.94 70.687 101.382 70.483C101.835 70.2677 102.34 70.16 102.895 70.16H103.116V72.183C103.037 72.1603 102.935 72.1433 102.81 72.132C102.697 72.1207 102.583 72.115 102.47 72.115C102.13 72.115 101.835 72.1603 101.586 72.251C101.337 72.3417 101.121 72.4833 100.94 72.676C100.77 72.8573 100.64 73.0897 100.549 73.373C100.47 73.645 100.43 73.9623 100.43 74.325V79H98.3218ZM104.68 79V70.16H106.788V79H104.68ZM105.734 68.97C105.36 68.97 105.06 68.8623 104.833 68.647C104.607 68.4317 104.493 68.1597 104.493 67.831C104.493 67.491 104.607 67.2133 104.833 66.998C105.071 66.7827 105.372 66.675 105.734 66.675C106.108 66.675 106.414 66.7827 106.652 66.998C106.902 67.2133 107.026 67.491 107.026 67.831C107.026 68.1597 106.902 68.4317 106.652 68.647C106.414 68.8623 106.108 68.97 105.734 68.97ZM115.266 82.4V78.133C114.926 78.4617 114.535 78.7167 114.093 78.898C113.662 79.068 113.18 79.153 112.648 79.153H112.495C111.917 79.153 111.384 79.051 110.897 78.847C110.421 78.6317 110.007 78.3313 109.656 77.946C109.316 77.5607 109.049 77.1073 108.857 76.586C108.675 76.0533 108.585 75.4697 108.585 74.835V74.325C108.585 73.6903 108.675 73.1067 108.857 72.574C109.049 72.0413 109.316 71.588 109.656 71.214C110.007 70.8287 110.421 70.534 110.897 70.33C111.384 70.1147 111.917 70.007 112.495 70.007H112.648C113.226 70.007 113.753 70.1147 114.229 70.33C114.705 70.534 115.118 70.8287 115.47 71.214C115.492 71.0327 115.521 70.8457 115.555 70.653C115.6 70.4603 115.651 70.296 115.708 70.16H117.374V82.4H115.266ZM112.954 77.47H113.09C113.418 77.47 113.719 77.4077 113.991 77.283C114.263 77.1583 114.489 76.977 114.671 76.739C114.863 76.4897 115.011 76.2007 115.113 75.872C115.215 75.532 115.266 75.158 115.266 74.75V74.342C115.266 73.9453 115.215 73.5827 115.113 73.254C115.011 72.9253 114.863 72.6477 114.671 72.421C114.478 72.183 114.246 72.0017 113.974 71.877C113.713 71.7523 113.418 71.69 113.09 71.69H112.954C112.625 71.69 112.325 71.7523 112.053 71.877C111.792 72.0017 111.565 72.183 111.373 72.421C111.191 72.6477 111.044 72.9253 110.931 73.254C110.829 73.5827 110.778 73.9453 110.778 74.342V74.75C110.778 75.1693 110.829 75.549 110.931 75.889C111.044 76.2177 111.191 76.501 111.373 76.739C111.565 76.977 111.792 77.1583 112.053 77.283C112.325 77.4077 112.625 77.47 112.954 77.47ZM122.576 79.17C121.602 79.17 120.859 78.881 120.349 78.303C119.851 77.725 119.601 76.8977 119.601 75.821V70.16H121.709V75.379C121.709 76.025 121.834 76.5123 122.083 76.841C122.333 77.1697 122.735 77.334 123.29 77.334H123.358C123.676 77.334 123.965 77.283 124.225 77.181C124.486 77.0677 124.707 76.909 124.888 76.705C125.07 76.4897 125.211 76.2403 125.313 75.957C125.427 75.6623 125.483 75.3393 125.483 74.988V70.16H127.591V79H125.925C125.869 78.8413 125.812 78.643 125.755 78.405C125.71 78.1557 125.682 77.9347 125.67 77.742C125.296 78.184 124.854 78.5353 124.344 78.796C123.834 79.0453 123.273 79.17 122.661 79.17H122.576ZM133.721 79.153C133.075 79.153 132.48 79.051 131.936 78.847C131.404 78.6317 130.945 78.337 130.559 77.963C130.185 77.5777 129.896 77.1187 129.692 76.586C129.488 76.042 129.386 75.447 129.386 74.801V74.461C129.386 73.8037 129.488 73.203 129.692 72.659C129.896 72.115 130.185 71.6503 130.559 71.265C130.945 70.8683 131.398 70.5623 131.919 70.347C132.441 70.1203 133.024 70.007 133.67 70.007H133.84C134.43 70.007 134.968 70.109 135.455 70.313C135.943 70.5057 136.362 70.7833 136.713 71.146C137.065 71.5087 137.337 71.9393 137.529 72.438C137.722 72.9367 137.818 73.4863 137.818 74.087V75.226H131.477V75.243C131.511 75.5717 131.591 75.872 131.715 76.144C131.84 76.4047 131.999 76.6257 132.191 76.807C132.395 76.9883 132.639 77.13 132.922 77.232C133.206 77.334 133.517 77.385 133.857 77.385H134.027C134.56 77.385 135.019 77.2773 135.404 77.062C135.801 76.8353 136.13 76.5633 136.39 76.246L137.546 77.521C137.342 77.7703 137.104 77.997 136.832 78.201C136.572 78.405 136.283 78.575 135.965 78.711C135.659 78.847 135.336 78.9547 134.996 79.034C134.656 79.1133 134.305 79.153 133.942 79.153H133.721ZM131.511 73.815H135.795V73.764C135.784 73.4467 135.727 73.1577 135.625 72.897C135.535 72.6363 135.399 72.4153 135.217 72.234C135.047 72.0527 134.843 71.911 134.605 71.809C134.367 71.707 134.101 71.656 133.806 71.656H133.653C133.359 71.656 133.092 71.707 132.854 71.809C132.616 71.911 132.407 72.0527 132.225 72.234C132.044 72.4153 131.891 72.642 131.766 72.914C131.653 73.1747 131.568 73.475 131.511 73.815ZM147.849 79.153C147.203 79.153 146.608 79.051 146.064 78.847C145.532 78.6317 145.073 78.337 144.687 77.963C144.313 77.5777 144.024 77.1187 143.82 76.586C143.616 76.042 143.514 75.447 143.514 74.801V74.461C143.514 73.8037 143.616 73.203 143.82 72.659C144.024 72.115 144.313 71.6503 144.687 71.265C145.073 70.8683 145.526 70.5623 146.047 70.347C146.569 70.1203 147.152 70.007 147.798 70.007H147.968C148.558 70.007 149.096 70.109 149.583 70.313C150.071 70.5057 150.49 70.7833 150.841 71.146C151.193 71.5087 151.465 71.9393 151.657 72.438C151.85 72.9367 151.946 73.4863 151.946 74.087V75.226H145.605V75.243C145.639 75.5717 145.719 75.872 145.843 76.144C145.968 76.4047 146.127 76.6257 146.319 76.807C146.523 76.9883 146.767 77.13 147.05 77.232C147.334 77.334 147.645 77.385 147.985 77.385H148.155C148.688 77.385 149.147 77.2773 149.532 77.062C149.929 76.8353 150.258 76.5633 150.518 76.246L151.674 77.521C151.47 77.7703 151.232 77.997 150.96 78.201C150.7 78.405 150.411 78.575 150.093 78.711C149.787 78.847 149.464 78.9547 149.124 79.034C148.784 79.1133 148.433 79.153 148.07 79.153H147.849ZM145.639 73.815H149.923V73.764C149.912 73.4467 149.855 73.1577 149.753 72.897C149.663 72.6363 149.527 72.4153 149.345 72.234C149.175 72.0527 148.971 71.911 148.733 71.809C148.495 71.707 148.229 71.656 147.934 71.656H147.781C147.487 71.656 147.22 71.707 146.982 71.809C146.744 71.911 146.535 72.0527 146.353 72.234C146.172 72.4153 146.019 72.642 145.894 72.914C145.781 73.1747 145.696 73.475 145.639 73.815ZM156.561 79.085C156.153 79.085 155.79 79.034 155.473 78.932C155.167 78.8187 154.906 78.6543 154.691 78.439C154.475 78.2123 154.305 77.9347 154.181 77.606C154.067 77.266 154.011 76.8637 154.011 76.399V71.86H152.855V70.432C153.013 70.3753 153.195 70.3243 153.399 70.279C153.614 70.2223 153.818 70.1883 154.011 70.177V68.12L156.119 67.865V70.16H158.533V71.86H156.102V75.991C156.102 76.4783 156.192 76.8127 156.374 76.994C156.555 77.1753 156.821 77.266 157.173 77.266C157.263 77.266 157.377 77.266 157.513 77.266C157.649 77.2547 157.779 77.2433 157.904 77.232C158.04 77.2093 158.17 77.1867 158.295 77.164C158.431 77.1413 158.538 77.113 158.618 77.079V78.745C158.357 78.8583 158.023 78.9433 157.615 79C157.218 79.0567 156.867 79.085 156.561 79.085ZM168.586 79.187C168.167 79.187 167.748 79.1473 167.328 79.068C166.92 79 166.518 78.898 166.121 78.762C165.736 78.6147 165.368 78.439 165.016 78.235C164.665 78.0197 164.342 77.7873 164.047 77.538L165.288 75.77C165.515 76.008 165.764 76.212 166.036 76.382C166.308 76.5407 166.592 76.6767 166.886 76.79C167.192 76.9033 167.498 76.9883 167.804 77.045C168.122 77.1017 168.422 77.13 168.705 77.13C169.023 77.13 169.3 77.1017 169.538 77.045C169.776 76.977 169.975 76.8863 170.133 76.773C170.303 76.6597 170.428 76.518 170.507 76.348C170.598 76.1667 170.643 75.9627 170.643 75.736C170.643 75.3847 170.547 75.1127 170.354 74.92C170.173 74.716 169.918 74.5403 169.589 74.393C169.272 74.2343 168.887 74.0927 168.433 73.968C167.991 73.832 167.504 73.6733 166.971 73.492C166.62 73.356 166.286 73.2087 165.968 73.05C165.662 72.88 165.39 72.6703 165.152 72.421C164.926 72.1603 164.739 71.86 164.591 71.52C164.455 71.1687 164.387 70.7493 164.387 70.262C164.387 69.7633 164.484 69.31 164.676 68.902C164.869 68.4827 165.141 68.1257 165.492 67.831C165.844 67.5363 166.252 67.3097 166.716 67.151C167.192 66.981 167.714 66.896 168.28 66.896C169.085 66.896 169.833 67.0263 170.524 67.287C171.227 67.5363 171.867 67.899 172.445 68.375L171.238 70.126C170.83 69.7293 170.354 69.4347 169.81 69.242C169.266 69.0493 168.756 68.953 168.28 68.953C168.008 68.953 167.765 68.987 167.549 69.055C167.334 69.1117 167.153 69.1967 167.005 69.31C166.858 69.4233 166.75 69.565 166.682 69.735C166.614 69.8937 166.58 70.0693 166.58 70.262C166.58 70.5453 166.648 70.7777 166.784 70.959C166.932 71.129 167.13 71.282 167.379 71.418C167.64 71.554 167.946 71.6787 168.297 71.792C168.649 71.894 169.028 72.0017 169.436 72.115C169.856 72.2397 170.269 72.387 170.677 72.557C171.085 72.727 171.454 72.948 171.782 73.22C172.111 73.4807 172.377 73.8037 172.581 74.189C172.785 74.5743 172.887 75.0503 172.887 75.617C172.887 76.161 172.785 76.654 172.581 77.096C172.389 77.538 172.105 77.912 171.731 78.218C171.357 78.524 170.904 78.762 170.371 78.932C169.839 79.102 169.244 79.187 168.586 79.187ZM178.345 79.136C177.71 79.136 177.132 79.034 176.611 78.83C176.089 78.6147 175.642 78.3143 175.268 77.929C174.894 77.5323 174.599 77.0733 174.384 76.552C174.18 76.0193 174.078 75.4357 174.078 74.801V74.325C174.078 73.7017 174.18 73.1293 174.384 72.608C174.599 72.0753 174.894 71.6163 175.268 71.231C175.653 70.8457 176.101 70.551 176.611 70.347C177.132 70.1317 177.693 70.024 178.294 70.024H178.447C179.206 70.024 179.903 70.1997 180.538 70.551C181.172 70.891 181.694 71.3953 182.102 72.064L180.572 73.084C180.311 72.6193 180.011 72.2793 179.671 72.064C179.331 71.8373 178.94 71.724 178.498 71.724H178.362C178.033 71.724 177.738 71.7863 177.478 71.911C177.217 72.0243 176.996 72.2 176.815 72.438C176.645 72.6647 176.509 72.9423 176.407 73.271C176.305 73.5997 176.254 73.9737 176.254 74.393V74.767C176.254 75.1637 176.305 75.5263 176.407 75.855C176.52 76.1837 176.667 76.467 176.849 76.705C177.041 76.9317 177.274 77.1073 177.546 77.232C177.818 77.3567 178.118 77.419 178.447 77.419H178.6C179.019 77.419 179.393 77.3057 179.722 77.079C180.062 76.841 180.362 76.4953 180.623 76.042L182.153 77.13C181.722 77.7873 181.201 78.286 180.589 78.626C179.977 78.966 179.28 79.136 178.498 79.136H178.345ZM183.704 79V70.16H185.812V79H183.704ZM184.758 68.97C184.384 68.97 184.083 68.8623 183.857 68.647C183.63 68.4317 183.517 68.1597 183.517 67.831C183.517 67.491 183.63 67.2133 183.857 66.998C184.095 66.7827 184.395 66.675 184.758 66.675C185.132 66.675 185.438 66.7827 185.676 66.998C185.925 67.2133 186.05 67.491 186.05 67.831C186.05 68.1597 185.925 68.4317 185.676 68.647C185.438 68.8623 185.132 68.97 184.758 68.97ZM191.943 79.153C191.297 79.153 190.702 79.051 190.158 78.847C189.625 78.6317 189.166 78.337 188.781 77.963C188.407 77.5777 188.118 77.1187 187.914 76.586C187.71 76.042 187.608 75.447 187.608 74.801V74.461C187.608 73.8037 187.71 73.203 187.914 72.659C188.118 72.115 188.407 71.6503 188.781 71.265C189.166 70.8683 189.62 70.5623 190.141 70.347C190.662 70.1203 191.246 70.007 191.892 70.007H192.062C192.651 70.007 193.19 70.109 193.677 70.313C194.164 70.5057 194.584 70.7833 194.935 71.146C195.286 71.5087 195.558 71.9393 195.751 72.438C195.944 72.9367 196.04 73.4863 196.04 74.087V75.226H189.699V75.243C189.733 75.5717 189.812 75.872 189.937 76.144C190.062 76.4047 190.22 76.6257 190.413 76.807C190.617 76.9883 190.861 77.13 191.144 77.232C191.427 77.334 191.739 77.385 192.079 77.385H192.249C192.782 77.385 193.241 77.2773 193.626 77.062C194.023 76.8353 194.351 76.5633 194.612 76.246L195.768 77.521C195.564 77.7703 195.326 77.997 195.054 78.201C194.793 78.405 194.504 78.575 194.187 78.711C193.881 78.847 193.558 78.9547 193.218 79.034C192.878 79.1133 192.527 79.153 192.164 79.153H191.943ZM189.733 73.815H194.017V73.764C194.006 73.4467 193.949 73.1577 193.847 72.897C193.756 72.6363 193.62 72.4153 193.439 72.234C193.269 72.0527 193.065 71.911 192.827 71.809C192.589 71.707 192.323 71.656 192.028 71.656H191.875C191.58 71.656 191.314 71.707 191.076 71.809C190.838 71.911 190.628 72.0527 190.447 72.234C190.266 72.4153 190.113 72.642 189.988 72.914C189.875 73.1747 189.79 73.475 189.733 73.815ZM197.815 79V70.16H199.481C199.538 70.33 199.589 70.534 199.634 70.772C199.68 71.01 199.714 71.2253 199.736 71.418C200.11 70.976 200.552 70.6303 201.062 70.381C201.584 70.1203 202.156 69.99 202.779 69.99H202.881C203.856 69.99 204.598 70.279 205.108 70.857C205.63 71.435 205.89 72.2623 205.89 73.339V79H203.782V73.781C203.782 73.135 203.652 72.6477 203.391 72.319C203.131 71.9903 202.723 71.826 202.167 71.826H202.065C201.737 71.826 201.442 71.8827 201.181 71.996C200.921 72.098 200.694 72.2567 200.501 72.472C200.32 72.676 200.178 72.9197 200.076 73.203C199.974 73.4863 199.923 73.8093 199.923 74.172V79H197.815ZM211.814 79.136C211.179 79.136 210.601 79.034 210.08 78.83C209.558 78.6147 209.111 78.3143 208.737 77.929C208.363 77.5323 208.068 77.0733 207.853 76.552C207.649 76.0193 207.547 75.4357 207.547 74.801V74.325C207.547 73.7017 207.649 73.1293 207.853 72.608C208.068 72.0753 208.363 71.6163 208.737 71.231C209.122 70.8457 209.57 70.551 210.08 70.347C210.601 70.1317 211.162 70.024 211.763 70.024H211.916C212.675 70.024 213.372 70.1997 214.007 70.551C214.641 70.891 215.163 71.3953 215.571 72.064L214.041 73.084C213.78 72.6193 213.48 72.2793 213.14 72.064C212.8 71.8373 212.409 71.724 211.967 71.724H211.831C211.502 71.724 211.207 71.7863 210.947 71.911C210.686 72.0243 210.465 72.2 210.284 72.438C210.114 72.6647 209.978 72.9423 209.876 73.271C209.774 73.5997 209.723 73.9737 209.723 74.393V74.767C209.723 75.1637 209.774 75.5263 209.876 75.855C209.989 76.1837 210.136 76.467 210.318 76.705C210.51 76.9317 210.743 77.1073 211.015 77.232C211.287 77.3567 211.587 77.419 211.916 77.419H212.069C212.488 77.419 212.862 77.3057 213.191 77.079C213.531 76.841 213.831 76.4953 214.092 76.042L215.622 77.13C215.191 77.7873 214.67 78.286 214.058 78.626C213.446 78.966 212.749 79.136 211.967 79.136H211.814ZM220.863 79.153C220.217 79.153 219.622 79.051 219.078 78.847C218.545 78.6317 218.086 78.337 217.701 77.963C217.327 77.5777 217.038 77.1187 216.834 76.586C216.63 76.042 216.528 75.447 216.528 74.801V74.461C216.528 73.8037 216.63 73.203 216.834 72.659C217.038 72.115 217.327 71.6503 217.701 71.265C218.086 70.8683 218.54 70.5623 219.061 70.347C219.582 70.1203 220.166 70.007 220.812 70.007H220.982C221.571 70.007 222.11 70.109 222.597 70.313C223.084 70.5057 223.504 70.7833 223.855 71.146C224.206 71.5087 224.478 71.9393 224.671 72.438C224.864 72.9367 224.96 73.4863 224.96 74.087V75.226H218.619V75.243C218.653 75.5717 218.732 75.872 218.857 76.144C218.982 76.4047 219.14 76.6257 219.333 76.807C219.537 76.9883 219.781 77.13 220.064 77.232C220.347 77.334 220.659 77.385 220.999 77.385H221.169C221.702 77.385 222.161 77.2773 222.546 77.062C222.943 76.8353 223.271 76.5633 223.532 76.246L224.688 77.521C224.484 77.7703 224.246 77.997 223.974 78.201C223.713 78.405 223.424 78.575 223.107 78.711C222.801 78.847 222.478 78.9547 222.138 79.034C221.798 79.1133 221.447 79.153 221.084 79.153H220.863ZM218.653 73.815H222.937V73.764C222.926 73.4467 222.869 73.1577 222.767 72.897C222.676 72.6363 222.54 72.4153 222.359 72.234C222.189 72.0527 221.985 71.911 221.747 71.809C221.509 71.707 221.243 71.656 220.948 71.656H220.795C220.5 71.656 220.234 71.707 219.996 71.809C219.758 71.911 219.548 72.0527 219.367 72.234C219.186 72.4153 219.033 72.642 218.908 72.914C218.795 73.1747 218.71 73.475 218.653 73.815ZM229.914 79.17C229.132 79.17 228.401 79.0623 227.721 78.847C227.053 78.6203 226.452 78.303 225.919 77.895L226.973 76.365C227.166 76.535 227.376 76.688 227.602 76.824C227.829 76.9487 228.067 77.0563 228.316 77.147C228.577 77.2377 228.838 77.3113 229.098 77.368C229.359 77.4133 229.614 77.436 229.863 77.436C230.09 77.436 230.288 77.419 230.458 77.385C230.64 77.3397 230.787 77.2773 230.9 77.198C231.025 77.1073 231.116 77.0053 231.172 76.892C231.24 76.7787 231.274 76.637 231.274 76.467C231.274 76.2517 231.218 76.0873 231.104 75.974C230.991 75.8493 230.827 75.7417 230.611 75.651C230.396 75.5603 230.135 75.4753 229.829 75.396C229.523 75.3167 229.178 75.209 228.792 75.073C228.486 74.9937 228.186 74.8973 227.891 74.784C227.608 74.6593 227.353 74.5063 227.126 74.325C226.9 74.1323 226.713 73.9 226.565 73.628C226.429 73.356 226.361 73.0217 226.361 72.625C226.361 72.2397 226.435 71.8883 226.582 71.571C226.741 71.2537 226.951 70.976 227.211 70.738C227.483 70.5 227.806 70.3187 228.18 70.194C228.566 70.058 228.996 69.99 229.472 69.99C230.152 69.99 230.793 70.092 231.393 70.296C231.994 70.4887 232.527 70.7493 232.991 71.078L231.988 72.574C231.637 72.3133 231.246 72.1037 230.815 71.945C230.385 71.7863 229.954 71.707 229.523 71.707C229.331 71.707 229.155 71.7297 228.996 71.775C228.849 71.809 228.724 71.8657 228.622 71.945C228.52 72.0243 228.441 72.1207 228.384 72.234C228.328 72.336 228.299 72.4607 228.299 72.608C228.299 72.7893 228.35 72.9423 228.452 73.067C228.566 73.1803 228.713 73.2767 228.894 73.356C229.087 73.4353 229.302 73.5033 229.54 73.56C229.79 73.6167 230.05 73.679 230.322 73.747C230.674 73.8263 231.025 73.9283 231.376 74.053C231.728 74.1663 232.045 74.325 232.328 74.529C232.612 74.7217 232.844 74.971 233.025 75.277C233.207 75.583 233.297 75.9683 233.297 76.433C233.297 76.8523 233.218 77.232 233.059 77.572C232.901 77.912 232.674 78.201 232.379 78.439C232.085 78.677 231.728 78.8583 231.308 78.983C230.9 79.1077 230.436 79.17 229.914 79.17ZM51.394 97V85.1H53.621V97H51.394ZM56.2373 97V88.16H57.9033C57.9599 88.33 58.0109 88.534 58.0563 88.772C58.1016 89.01 58.1356 89.2253 58.1583 89.418C58.5323 88.976 58.9743 88.6303 59.4843 88.381C60.0056 88.1203 60.5779 87.99 61.2013 87.99H61.3033C62.2779 87.99 63.0203 88.279 63.5303 88.857C64.0516 89.435 64.3123 90.2623 64.3123 91.339V97H62.2043V91.781C62.2043 91.135 62.0739 90.6477 61.8133 90.319C61.5526 89.9903 61.1446 89.826 60.5893 89.826H60.4873C60.1586 89.826 59.8639 89.8827 59.6033 89.996C59.3426 90.098 59.1159 90.2567 58.9233 90.472C58.7419 90.676 58.6003 90.9197 58.4983 91.203C58.3963 91.4863 58.3453 91.8093 58.3453 92.172V97H56.2373ZM66.8014 97V89.894H65.7304V88.534C65.8778 88.4773 66.0478 88.4263 66.2404 88.381C66.4444 88.3357 66.6314 88.3017 66.8014 88.279V87.701C66.8014 86.783 67.0168 86.069 67.4474 85.559C67.8894 85.049 68.5071 84.794 69.3004 84.794C69.4364 84.794 69.5838 84.8053 69.7424 84.828C69.9124 84.8393 70.0768 84.862 70.2354 84.896C70.4054 84.9187 70.5698 84.9527 70.7284 84.998C70.8871 85.0433 71.0231 85.0943 71.1364 85.151V86.8C70.9211 86.698 70.7058 86.6243 70.4904 86.579C70.2751 86.5337 70.0711 86.511 69.8784 86.511C69.5158 86.511 69.2494 86.613 69.0794 86.817C68.9094 87.021 68.8244 87.3667 68.8244 87.854V88.245H71.0514V89.894H68.9094V97H66.8014ZM76.0314 97.153C75.3854 97.153 74.796 97.051 74.2634 96.847C73.7307 96.6317 73.2717 96.3313 72.8864 95.946C72.501 95.5607 72.2007 95.1017 71.9854 94.569C71.7814 94.0363 71.6794 93.4583 71.6794 92.835V92.325C71.6794 91.6903 71.7814 91.1123 71.9854 90.591C72.2007 90.0583 72.501 89.5993 72.8864 89.214C73.2717 88.8287 73.7307 88.534 74.2634 88.33C74.796 88.1147 75.3854 88.007 76.0314 88.007H76.2014C76.836 88.007 77.4197 88.1147 77.9524 88.33C78.485 88.534 78.944 88.8287 79.3294 89.214C79.7147 89.5993 80.0151 90.0583 80.2304 90.591C80.4457 91.1123 80.5534 91.6903 80.5534 92.325V92.835C80.5534 93.4583 80.4457 94.0363 80.2304 94.569C80.0151 95.1017 79.7147 95.5607 79.3294 95.946C78.944 96.3313 78.485 96.6317 77.9524 96.847C77.4197 97.051 76.836 97.153 76.2014 97.153H76.0314ZM76.0314 95.47H76.1844C76.513 95.47 76.8077 95.4077 77.0684 95.283C77.3404 95.1583 77.5727 94.977 77.7654 94.739C77.958 94.4897 78.1054 94.2007 78.2074 93.872C78.3094 93.532 78.3604 93.158 78.3604 92.75V92.342C78.3604 91.9453 78.3037 91.5827 78.1904 91.254C78.0884 90.9253 77.941 90.6477 77.7484 90.421C77.567 90.183 77.3404 90.0017 77.0684 89.877C76.7964 89.7523 76.5017 89.69 76.1844 89.69H76.0314C75.714 89.69 75.4194 89.7523 75.1474 89.877C74.8867 90.0017 74.66 90.183 74.4674 90.421C74.2747 90.6477 74.1217 90.9253 74.0084 91.254C73.9064 91.5827 73.8554 91.9453 73.8554 92.342V92.75C73.8554 93.158 73.9064 93.532 74.0084 93.872C74.1217 94.2007 74.269 94.4897 74.4504 94.739C74.643 94.977 74.8697 95.1583 75.1304 95.283C75.4024 95.4077 75.7027 95.47 76.0314 95.47ZM82.3345 97V88.16H83.9835C84.0402 88.33 84.0912 88.5227 84.1365 88.738C84.1932 88.9533 84.2329 89.1573 84.2555 89.35C84.5729 88.976 84.9525 88.687 85.3945 88.483C85.8479 88.2677 86.3522 88.16 86.9075 88.16H87.1285V90.183C87.0492 90.1603 86.9472 90.1433 86.8225 90.132C86.7092 90.1207 86.5959 90.115 86.4825 90.115C86.1425 90.115 85.8479 90.1603 85.5985 90.251C85.3492 90.3417 85.1339 90.4833 84.9525 90.676C84.7825 90.8573 84.6522 91.0897 84.5615 91.373C84.4822 91.645 84.4425 91.9623 84.4425 92.325V97H82.3345ZM88.7099 97V88.16H90.3759C90.4213 88.3073 90.4666 88.4887 90.5119 88.704C90.5573 88.908 90.5913 89.1063 90.6139 89.299C90.9539 88.891 91.3506 88.5737 91.8039 88.347C92.2686 88.109 92.7786 87.99 93.3339 87.99H93.4189C94.0196 87.99 94.5239 88.1147 94.9319 88.364C95.3399 88.6133 95.6516 88.9817 95.8669 89.469C96.2069 89.0043 96.6206 88.6417 97.1079 88.381C97.6066 88.1203 98.1506 87.99 98.7399 87.99H98.8249C99.7316 87.99 100.417 88.2677 100.882 88.823C101.358 89.3783 101.596 90.183 101.596 91.237V97H99.4879V91.611C99.4879 91.305 99.4596 91.0387 99.4029 90.812C99.3463 90.5853 99.2613 90.3983 99.1479 90.251C99.0346 90.1037 98.8873 89.996 98.7059 89.928C98.5359 89.86 98.3319 89.826 98.0939 89.826H98.0259C97.7539 89.826 97.5046 89.8713 97.2779 89.962C97.0513 90.0527 96.8586 90.1887 96.6999 90.37C96.5413 90.5513 96.4166 90.778 96.3259 91.05C96.2466 91.3107 96.2069 91.6167 96.2069 91.968V97H94.0989V91.611C94.0989 91.305 94.0649 91.0443 93.9969 90.829C93.9403 90.6023 93.8553 90.4153 93.7419 90.268C93.6286 90.1207 93.4813 90.013 93.2999 89.945C93.1299 89.8657 92.9259 89.826 92.6879 89.826H92.6199C92.3366 89.826 92.0816 89.877 91.8549 89.979C91.6396 90.0697 91.4526 90.2057 91.2939 90.387C91.1353 90.557 91.0163 90.778 90.9369 91.05C90.8576 91.3107 90.8179 91.6167 90.8179 91.968V97H88.7099ZM106.197 97.17C105.766 97.17 105.37 97.1077 105.007 96.983C104.644 96.8583 104.333 96.6827 104.072 96.456C103.823 96.2293 103.624 95.9573 103.477 95.64C103.33 95.3113 103.256 94.9487 103.256 94.552V94.399C103.256 93.4357 103.664 92.7217 104.48 92.257C105.296 91.781 106.554 91.543 108.254 91.543H108.951V91.152C108.951 90.71 108.809 90.3643 108.526 90.115C108.254 89.8543 107.846 89.724 107.302 89.724H107.217C106.775 89.724 106.322 89.7977 105.857 89.945C105.404 90.0923 104.967 90.3133 104.548 90.608L103.681 89.112C104.225 88.7607 104.809 88.483 105.432 88.279C106.055 88.075 106.696 87.973 107.353 87.973H107.506C108.583 87.973 109.427 88.2563 110.039 88.823C110.651 89.3897 110.957 90.1773 110.957 91.186V95.181C110.957 95.487 110.985 95.7987 111.042 96.116C111.11 96.422 111.184 96.7167 111.263 97H109.257C109.212 96.8753 109.166 96.7223 109.121 96.541C109.087 96.3483 109.059 96.1613 109.036 95.98C108.662 96.354 108.231 96.6487 107.744 96.864C107.257 97.068 106.741 97.17 106.197 97.17ZM106.639 95.47C107.092 95.47 107.517 95.3737 107.914 95.181C108.322 94.9883 108.668 94.722 108.951 94.382V92.903H108.441C107.353 92.903 106.554 93.0163 106.044 93.243C105.545 93.4583 105.296 93.804 105.296 94.28V94.365C105.296 94.535 105.324 94.688 105.381 94.824C105.449 94.96 105.54 95.0733 105.653 95.164C105.778 95.2547 105.925 95.3283 106.095 95.385C106.265 95.4417 106.446 95.47 106.639 95.47ZM116.036 97.085C115.628 97.085 115.266 97.034 114.948 96.932C114.642 96.8187 114.382 96.6543 114.166 96.439C113.951 96.2123 113.781 95.9347 113.656 95.606C113.543 95.266 113.486 94.8637 113.486 94.399V89.86H112.33V88.432C112.489 88.3753 112.67 88.3243 112.874 88.279C113.09 88.2223 113.294 88.1883 113.486 88.177V86.12L115.594 85.865V88.16H118.008V89.86H115.577V93.991C115.577 94.4783 115.668 94.8127 115.849 94.994C116.031 95.1753 116.297 95.266 116.648 95.266C116.739 95.266 116.852 95.266 116.988 95.266C117.124 95.2547 117.255 95.2433 117.379 95.232C117.515 95.2093 117.646 95.1867 117.77 95.164C117.906 95.1413 118.014 95.113 118.093 95.079V96.745C117.833 96.8583 117.498 96.9433 117.09 97C116.694 97.0567 116.342 97.085 116.036 97.085ZM119.788 97V88.16H121.896V97H119.788ZM120.842 86.97C120.468 86.97 120.167 86.8623 119.941 86.647C119.714 86.4317 119.601 86.1597 119.601 85.831C119.601 85.491 119.714 85.2133 119.941 84.998C120.179 84.7827 120.479 84.675 120.842 84.675C121.216 84.675 121.522 84.7827 121.76 84.998C122.009 85.2133 122.134 85.491 122.134 85.831C122.134 86.1597 122.009 86.4317 121.76 86.647C121.522 86.8623 121.216 86.97 120.842 86.97ZM130.373 100.4V96.133C130.033 96.4617 129.642 96.7167 129.2 96.898C128.769 97.068 128.288 97.153 127.755 97.153H127.602C127.024 97.153 126.491 97.051 126.004 96.847C125.528 96.6317 125.114 96.3313 124.763 95.946C124.423 95.5607 124.157 95.1073 123.964 94.586C123.783 94.0533 123.692 93.4697 123.692 92.835V92.325C123.692 91.6903 123.783 91.1067 123.964 90.574C124.157 90.0413 124.423 89.588 124.763 89.214C125.114 88.8287 125.528 88.534 126.004 88.33C126.491 88.1147 127.024 88.007 127.602 88.007H127.755C128.333 88.007 128.86 88.1147 129.336 88.33C129.812 88.534 130.226 88.8287 130.577 89.214C130.6 89.0327 130.628 88.8457 130.662 88.653C130.707 88.4603 130.758 88.296 130.815 88.16H132.481V100.4H130.373ZM128.061 95.47H128.197C128.526 95.47 128.826 95.4077 129.098 95.283C129.37 95.1583 129.597 94.977 129.778 94.739C129.971 94.4897 130.118 94.2007 130.22 93.872C130.322 93.532 130.373 93.158 130.373 92.75V92.342C130.373 91.9453 130.322 91.5827 130.22 91.254C130.118 90.9253 129.971 90.6477 129.778 90.421C129.585 90.183 129.353 90.0017 129.081 89.877C128.82 89.7523 128.526 89.69 128.197 89.69H128.061C127.732 89.69 127.432 89.7523 127.16 89.877C126.899 90.0017 126.673 90.183 126.48 90.421C126.299 90.6477 126.151 90.9253 126.038 91.254C125.936 91.5827 125.885 91.9453 125.885 92.342V92.75C125.885 93.1693 125.936 93.549 126.038 93.889C126.151 94.2177 126.299 94.501 126.48 94.739C126.673 94.977 126.899 95.1583 127.16 95.283C127.432 95.4077 127.732 95.47 128.061 95.47ZM137.684 97.17C136.709 97.17 135.967 96.881 135.457 96.303C134.958 95.725 134.709 94.8977 134.709 93.821V88.16H136.817V93.379C136.817 94.025 136.942 94.5123 137.191 94.841C137.44 95.1697 137.843 95.334 138.398 95.334H138.466C138.783 95.334 139.072 95.283 139.333 95.181C139.594 95.0677 139.815 94.909 139.996 94.705C140.177 94.4897 140.319 94.2403 140.421 93.957C140.534 93.6623 140.591 93.3393 140.591 92.988V88.16H142.699V97H141.033C140.976 96.8413 140.92 96.643 140.863 96.405C140.818 96.1557 140.789 95.9347 140.778 95.742C140.404 96.184 139.962 96.5353 139.452 96.796C138.942 97.0453 138.381 97.17 137.769 97.17H137.684ZM148.829 97.153C148.183 97.153 147.588 97.051 147.044 96.847C146.511 96.6317 146.052 96.337 145.667 95.963C145.293 95.5777 145.004 95.1187 144.8 94.586C144.596 94.042 144.494 93.447 144.494 92.801V92.461C144.494 91.8037 144.596 91.203 144.8 90.659C145.004 90.115 145.293 89.6503 145.667 89.265C146.052 88.8683 146.506 88.5623 147.027 88.347C147.548 88.1203 148.132 88.007 148.778 88.007H148.948C149.537 88.007 150.076 88.109 150.563 88.313C151.05 88.5057 151.47 88.7833 151.821 89.146C152.172 89.5087 152.444 89.9393 152.637 90.438C152.83 90.9367 152.926 91.4863 152.926 92.087V93.226H146.585V93.243C146.619 93.5717 146.698 93.872 146.823 94.144C146.948 94.4047 147.106 94.6257 147.299 94.807C147.503 94.9883 147.747 95.13 148.03 95.232C148.313 95.334 148.625 95.385 148.965 95.385H149.135C149.668 95.385 150.127 95.2773 150.512 95.062C150.909 94.8353 151.237 94.5633 151.498 94.246L152.654 95.521C152.45 95.7703 152.212 95.997 151.94 96.201C151.679 96.405 151.39 96.575 151.073 96.711C150.767 96.847 150.444 96.9547 150.104 97.034C149.764 97.1133 149.413 97.153 149.05 97.153H148.829ZM146.619 91.815H150.903V91.764C150.892 91.4467 150.835 91.1577 150.733 90.897C150.642 90.6363 150.506 90.4153 150.325 90.234C150.155 90.0527 149.951 89.911 149.713 89.809C149.475 89.707 149.209 89.656 148.914 89.656H148.761C148.466 89.656 148.2 89.707 147.962 89.809C147.724 89.911 147.514 90.0527 147.333 90.234C147.152 90.4153 146.999 90.642 146.874 90.914C146.761 91.1747 146.676 91.475 146.619 91.815ZM157.88 97.17C157.098 97.17 156.367 97.0623 155.687 96.847C155.018 96.6203 154.418 96.303 153.885 95.895L154.939 94.365C155.132 94.535 155.341 94.688 155.568 94.824C155.795 94.9487 156.033 95.0563 156.282 95.147C156.543 95.2377 156.803 95.3113 157.064 95.368C157.325 95.4133 157.58 95.436 157.829 95.436C158.056 95.436 158.254 95.419 158.424 95.385C158.605 95.3397 158.753 95.2773 158.866 95.198C158.991 95.1073 159.081 95.0053 159.138 94.892C159.206 94.7787 159.24 94.637 159.24 94.467C159.24 94.2517 159.183 94.0873 159.07 93.974C158.957 93.8493 158.792 93.7417 158.577 93.651C158.362 93.5603 158.101 93.4753 157.795 93.396C157.489 93.3167 157.143 93.209 156.758 93.073C156.452 92.9937 156.152 92.8973 155.857 92.784C155.574 92.6593 155.319 92.5063 155.092 92.325C154.865 92.1323 154.678 91.9 154.531 91.628C154.395 91.356 154.327 91.0217 154.327 90.625C154.327 90.2397 154.401 89.8883 154.548 89.571C154.707 89.2537 154.916 88.976 155.177 88.738C155.449 88.5 155.772 88.3187 156.146 88.194C156.531 88.058 156.962 87.99 157.438 87.99C158.118 87.99 158.758 88.092 159.359 88.296C159.96 88.4887 160.492 88.7493 160.957 89.078L159.954 90.574C159.603 90.3133 159.212 90.1037 158.781 89.945C158.35 89.7863 157.92 89.707 157.489 89.707C157.296 89.707 157.121 89.7297 156.962 89.775C156.815 89.809 156.69 89.8657 156.588 89.945C156.486 90.0243 156.407 90.1207 156.35 90.234C156.293 90.336 156.265 90.4607 156.265 90.608C156.265 90.7893 156.316 90.9423 156.418 91.067C156.531 91.1803 156.679 91.2767 156.86 91.356C157.053 91.4353 157.268 91.5033 157.506 91.56C157.755 91.6167 158.016 91.679 158.288 91.747C158.639 91.8263 158.991 91.9283 159.342 92.053C159.693 92.1663 160.011 92.325 160.294 92.529C160.577 92.7217 160.81 92.971 160.991 93.277C161.172 93.583 161.263 93.9683 161.263 94.433C161.263 94.8523 161.184 95.232 161.025 95.572C160.866 95.912 160.64 96.201 160.345 96.439C160.05 96.677 159.693 96.8583 159.274 96.983C158.866 97.1077 158.401 97.17 157.88 97.17Z" fill="black"/>
<rect x="50" y="104" width="44" height="21" rx="8" fill="#87D100" fill-opacity="0.2"/>
<path d="M61.936 120.176C61.1467 120.176 60.4267 120.043 59.776 119.776C59.1253 119.499 58.5653 119.115 58.096 118.624C57.6373 118.123 57.28 117.525 57.024 116.832C56.768 116.139 56.64 115.376 56.64 114.544V114.24C56.64 113.419 56.768 112.667 57.024 111.984C57.2907 111.291 57.6533 110.699 58.112 110.208C58.5813 109.707 59.136 109.317 59.776 109.04C60.4267 108.763 61.136 108.624 61.904 108.624H62.016C62.912 108.624 63.7387 108.837 64.496 109.264C65.2533 109.68 65.856 110.267 66.304 111.024L64.704 112.16C64.4267 111.648 64.064 111.248 63.616 110.96C63.1787 110.661 62.6613 110.512 62.064 110.512H61.92C61.4613 110.512 61.04 110.603 60.656 110.784C60.272 110.955 59.9413 111.205 59.664 111.536C59.3973 111.856 59.1893 112.245 59.04 112.704C58.8907 113.163 58.816 113.675 58.816 114.24V114.56C58.816 115.125 58.8907 115.637 59.04 116.096C59.1893 116.555 59.4027 116.949 59.68 117.28C59.9573 117.6 60.288 117.851 60.672 118.032C61.056 118.203 61.4827 118.288 61.952 118.288H62.112C62.7093 118.288 63.232 118.139 63.68 117.84C64.128 117.541 64.4907 117.141 64.768 116.64L66.32 117.792C65.872 118.549 65.2747 119.136 64.528 119.552C63.792 119.968 62.9707 120.176 62.064 120.176H61.936ZM72.5584 120.176C71.8864 120.176 71.2784 120.043 70.7344 119.776C70.1904 119.499 69.7264 119.109 69.3424 118.608C68.9584 118.107 68.6597 117.504 68.4464 116.8C68.2437 116.085 68.1424 115.285 68.1424 114.4C68.1424 113.515 68.2437 112.72 68.4464 112.016C68.6597 111.301 68.9584 110.693 69.3424 110.192C69.7264 109.691 70.1904 109.307 70.7344 109.04C71.2784 108.763 71.8864 108.624 72.5584 108.624C73.2304 108.624 73.8384 108.763 74.3824 109.04C74.9264 109.307 75.3904 109.691 75.7744 110.192C76.1584 110.693 76.4517 111.301 76.6544 112.016C76.8677 112.72 76.9744 113.515 76.9744 114.4C76.9744 115.285 76.8677 116.085 76.6544 116.8C76.4517 117.504 76.1584 118.107 75.7744 118.608C75.3904 119.109 74.9264 119.499 74.3824 119.776C73.8384 120.043 73.2304 120.176 72.5584 120.176ZM72.5584 118.32C73.3157 118.32 73.8917 117.984 74.2864 117.312C74.6917 116.629 74.8944 115.659 74.8944 114.4C74.8944 113.141 74.6917 112.176 74.2864 111.504C73.8917 110.821 73.3157 110.48 72.5584 110.48C71.801 110.48 71.2197 110.821 70.8144 111.504C70.409 112.176 70.2064 113.141 70.2064 114.4C70.2064 115.659 70.409 116.629 70.8144 117.312C71.2197 117.984 71.801 118.32 72.5584 118.32ZM83.1493 120.176C82.4986 120.176 81.9119 120.101 81.3893 119.952C80.8773 119.792 80.4346 119.568 80.0613 119.28C79.6986 118.992 79.4159 118.645 79.2133 118.24C79.0213 117.835 78.9253 117.387 78.9253 116.896C78.9253 116.224 79.1013 115.643 79.4533 115.152C79.8159 114.661 80.3226 114.288 80.9733 114.032C80.4613 113.787 80.0666 113.456 79.7893 113.04C79.5226 112.613 79.3893 112.117 79.3893 111.552C79.3893 111.104 79.4746 110.699 79.6453 110.336C79.8266 109.973 80.0773 109.664 80.3973 109.408C80.7279 109.152 81.1226 108.96 81.5813 108.832C82.0506 108.693 82.5733 108.624 83.1493 108.624C84.3119 108.624 85.2293 108.885 85.9013 109.408C86.5839 109.931 86.9253 110.645 86.9253 111.552C86.9253 112.117 86.7866 112.613 86.5093 113.04C86.2319 113.456 85.8373 113.787 85.3253 114.032C85.9759 114.288 86.4773 114.661 86.8293 115.152C87.1919 115.643 87.3733 116.224 87.3733 116.896C87.3733 117.387 87.2719 117.835 87.0693 118.24C86.8773 118.645 86.5946 118.992 86.2213 119.28C85.8586 119.568 85.4159 119.792 84.8933 119.952C84.3813 120.101 83.7999 120.176 83.1493 120.176ZM83.1493 113.296C83.7359 113.296 84.1893 113.168 84.5093 112.912C84.8293 112.656 84.9893 112.293 84.9893 111.824C84.9893 111.355 84.8293 110.997 84.5093 110.752C84.1893 110.496 83.7359 110.368 83.1493 110.368C82.5733 110.368 82.1253 110.496 81.8053 110.752C81.4853 110.997 81.3253 111.355 81.3253 111.824C81.3253 112.293 81.4853 112.656 81.8053 112.912C82.1253 113.168 82.5733 113.296 83.1493 113.296ZM83.1493 118.368C83.8639 118.368 84.4133 118.219 84.7973 117.92C85.1919 117.611 85.3893 117.184 85.3893 116.64C85.3893 116.096 85.1919 115.675 84.7973 115.376C84.4133 115.077 83.8639 114.928 83.1493 114.928C82.4346 114.928 81.8799 115.077 81.4853 115.376C81.1013 115.675 80.9093 116.096 80.9093 116.64C80.9093 117.184 81.1013 117.611 81.4853 117.92C81.8799 118.219 82.4346 118.368 83.1493 118.368Z" fill="#87D100"/>
<path d="M51.5 143V132.5H52.7V137.045H57.68V132.5H58.88V143H57.68V138.185H52.7V143H51.5ZM60.4457 143L64.1357 132.5H65.8757L69.5657 143H68.2457L67.2257 139.985H62.8007L61.7657 143H60.4457ZM63.1757 138.845H66.8357L65.0357 133.565H64.9757L63.1757 138.845ZM71.1289 143V132.5H72.3289V141.86H76.6639V143H71.1289ZM78.7607 143V132.5H79.9607V141.86H84.2957V143H78.7607ZM86.3926 143V132.5H92.2276V133.64H87.5926V137.045H91.9276V138.185H87.5926V141.86H92.3776V143H86.3926ZM98.9756 143V132.5H104.511V133.64H100.176V137.3H104.211V138.44H100.176V143H98.9756ZM106.814 143.12C106.364 143.12 106.004 142.775 106.004 142.34V142.295C106.004 141.875 106.364 141.53 106.814 141.53C107.264 141.53 107.639 141.875 107.639 142.295V142.34C107.639 142.775 107.264 143.12 106.814 143.12Z" fill="black"/>
<path d="M331.09 132.5H332.29V143H331.09V135.005C330.415 135.695 329.425 136.085 328.45 136.085V134.99C329.92 134.93 331.09 133.85 331.09 132.5ZM339.265 143V132.2H340.375V136.28C341.035 135.53 342.01 135.08 343.12 135.08C344.815 135.08 345.76 136.13 345.76 138.005V143H344.65V138.2C344.65 136.865 344.02 136.19 342.805 136.19C341.35 136.19 340.375 137.15 340.375 138.605V143H339.265Z" fill="black" fill-opacity="0.5"/>
</g>
<defs>
<filter id="filter0_d_1412_21" x="14" y="16.5" width="355" height="42" filterUnits="userSpaceOnUse" color-interpolation-filters="sRGB">
<feFlood flood-opacity="0" result="BackgroundImageFix"/>
<feColorMatrix in="SourceAlpha" type="matrix" values="0 0 0 0 0 0 0 0 0 0 0 0 0 0 0 0 0 0 127 0" result="hardAlpha"/>
<feOffset dy="1.5"/>
<feGaussianBlur stdDeviation="3"/>
<feComposite in2="hardAlpha" operator="out"/>
<feColorMatrix type="matrix" values="0 0 0 0 0 0 0 0 0 0 0 0 0 0 0 0 0 0 0.05 0"/>
<feBlend mode="normal" in2="BackgroundImageFix" result="effect1_dropShadow_1412_21"/>
<feBlend mode="normal" in="SourceGraphic" in2="effect1_dropShadow_1412_21" result="shape"/>
</filter>
<filter id="filter1_d_1412_21" x="14" y="46.5" width="355" height="120" filterUnits="userSpaceOnUse" color-interpolation-filters="sRGB">
<feFlood flood-opacity="0" result="BackgroundImageFix"/>
<feColorMatrix in="SourceAlpha" type="matrix" values="0 0 0 0 0 0 0 0 0 0 0 0 0 0 0 0 0 0 127 0" result="hardAlpha"/>
<feOffset dy="1.5"/>
<feGaussianBlur stdDeviation="3"/>
<feComposite in2="hardAlpha" operator="out"/>
<feColorMatrix type="matrix" values="0 0 0 0 0 0 0 0 0 0 0 0 0 0 0 0 0 0 0.05 0"/>
<feBlend mode="normal" in2="BackgroundImageFix" result="effect1_dropShadow_1412_21"/>
<feBlend mode="normal" in="SourceGraphic" in2="effect1_dropShadow_1412_21" result="shape"/>
</filter>
<clipPath id="clip0_1412_21">
<rect x="30" y="64" width="10" height="82" rx="5" fill="white"/>
</clipPath>
</defs>
</svg>
