<svg width="119" height="26" viewBox="0 0 119 26" fill="none" xmlns="http://www.w3.org/2000/svg">
<path fill-rule="evenodd" clip-rule="evenodd" d="M5.07632 6.05458C5.20447 6.62052 5.3819 7.20765 5.60732 7.80437C5.03158 7.86259 4.48575 7.95312 3.97821 8.07505C3.04355 8.29959 2.17638 8.64551 1.48773 9.14688C0.792877 9.65278 0.208653 10.375 0.0444679 11.3314C-0.119717 12.2878 0.188791 13.1718 0.673288 13.8912C1.15346 14.6043 1.85315 15.234 2.65668 15.7734C2.80678 15.8741 2.96238 15.973 3.12316 16.0698C4.69263 17.0222 6.7633 17.778 9.04518 18.1913C11.6186 18.6574 14.0669 18.4079 15.9275 17.8557C16.0292 17.8255 16.1298 17.7942 16.229 17.762C15.9557 18.9462 15.7697 20.0757 15.6823 21.0766C15.5969 22.054 15.5985 22.9813 15.741 23.7417C15.8487 24.3168 16.1178 25.221 16.8916 25.6771C16.9948 25.741 17.1073 25.7969 17.2299 25.8428C18.1627 26.1915 19.0187 25.7442 19.5505 25.3426C20.1286 24.906 20.6857 24.2614 21.2015 23.5251C22.244 22.0371 23.2963 19.9166 24.1475 17.5146C24.9986 15.1127 25.5194 12.7935 25.652 10.9654C25.7176 10.0607 25.6943 9.19907 25.5247 8.48293C25.3877 7.90463 25.0812 7.13432 24.3773 6.71891C24.2696 6.6522 24.1522 6.59391 24.0244 6.54612C23.1892 6.23389 22.3905 6.51961 21.8142 6.88452C21.2258 7.25712 20.671 7.82762 20.1626 8.49362C19.8061 8.96067 19.4501 9.50433 19.1015 10.116C18.5316 8.62375 17.6298 6.94405 16.2973 5.31301C14.8626 3.55667 13.2577 2.13363 11.7226 1.20926C11.5017 1.07524 11.2822 0.951497 11.0648 0.838532C10.2083 0.393434 9.32752 0.085881 8.48623 0.0152818C7.63736 -0.0559536 6.73786 0.111569 6.01356 0.73583L6.03865 0.766544C5.32486 1.38775 4.99596 2.2851 4.88098 3.15863C4.76403 4.04718 4.84721 5.04277 5.07632 6.05458ZM9.95237 3.191C10.1093 3.27255 10.2696 3.36248 10.4327 3.46058C11.6566 4.20387 13.0336 5.40388 14.3135 6.97058C15.1227 7.96121 15.7412 8.96594 16.2017 9.90746C14.6984 9.08197 12.8084 8.42854 10.7459 8.05498C9.93536 7.90819 9.13551 7.81137 8.36069 7.76293C7.98454 6.96013 7.71531 6.1779 7.55339 5.46281C7.37215 4.6624 7.33689 3.99746 7.40124 3.50861C7.46699 3.00904 7.61646 2.81666 7.68395 2.75848C7.74828 2.70305 7.91351 2.60674 8.31481 2.64041C8.72369 2.67472 9.27852 2.84082 9.95237 3.191ZM9.45113 15.5972C7.41632 15.2287 5.66212 14.5696 4.41318 13.8185C4.29894 13.7491 4.189 13.679 4.08356 13.6082C3.45139 13.1839 3.03393 12.7734 2.80056 12.4268C2.57152 12.0867 2.5701 11.8915 2.58468 11.8066C2.59926 11.7217 2.66557 11.5388 2.99406 11.2996C3.32875 11.0559 3.85772 10.8169 4.59306 10.6402C5.24355 10.4839 6.00696 10.3882 6.85089 10.3654C7.26915 11.0654 7.75015 11.7562 8.29189 12.4193C9.57565 13.9908 11.0945 15.0918 12.6013 15.774C11.6169 15.8386 10.5481 15.7959 9.45113 15.5972ZM10.3399 10.6491C12.3748 11.0176 14.1291 11.6767 15.378 12.4278C15.4922 12.4972 15.6021 12.5674 15.7075 12.6381C16.3397 13.0624 16.7571 13.4729 16.9905 13.8195C17.0215 13.8656 17.0484 13.909 17.0716 13.9499C16.9631 13.9744 16.8401 13.9946 16.7016 14.0081C16.1785 14.0592 15.5175 14.0054 14.7774 13.8019C13.2994 13.3957 11.6144 12.4225 10.2401 10.7402C10.2057 10.6981 10.1716 10.6559 10.1378 10.6136C10.205 10.625 10.2724 10.6369 10.3399 10.6491ZM22.1997 10.127C22.5355 9.68697 22.8245 9.39819 23.0477 9.22616C23.1071 9.57171 23.1289 10.0789 23.0802 10.7498C22.9694 12.2778 22.5167 14.3568 21.722 16.5996C20.9273 18.8425 19.973 20.734 19.1016 21.9777C18.7727 22.4472 18.4795 22.7897 18.2374 23.0198C18.1913 22.6071 18.189 22.0401 18.2509 21.3316C18.3937 19.6984 18.8533 17.5704 19.5852 15.4334C19.6234 15.3497 19.6575 15.2616 19.6859 15.1691C19.75 15.0287 19.7945 14.8878 19.8262 14.7565C20.5856 12.7035 21.4358 11.1277 22.1997 10.127Z" fill="#3E1939"/>
<path d="M28.4672 21.0059V2.87333H35.417C36.8018 2.87333 37.9986 3.08675 39.0073 3.5136C40.0331 3.92338 40.8196 4.58926 41.3667 5.51126C41.9309 6.41617 42.213 7.61135 42.213 9.09678C42.213 10.5139 41.9053 11.7006 41.2898 12.6567C40.6743 13.5958 39.828 14.3043 38.7509 14.7824C37.6909 15.2434 36.477 15.4739 35.1093 15.4739H31.9036V21.0059H28.4672ZM31.9036 12.4006H35.058C36.1864 12.4006 37.0925 12.1274 37.7764 11.581C38.4602 11.0347 38.8022 10.1981 38.8022 9.07117C38.8022 8.06381 38.5115 7.31256 37.9302 6.81741C37.366 6.30519 36.477 6.04909 35.2631 6.04909H31.9036V12.4006Z" fill="#3E1939"/>
<path d="M47.2145 21.1595C46.3938 21.1595 45.6245 21.0229 44.9064 20.7498C44.2054 20.4595 43.6412 20.0241 43.2138 19.4436C42.7864 18.846 42.5727 18.0948 42.5727 17.1898C42.5727 16.524 42.6924 15.9605 42.9317 15.4995C43.1882 15.0214 43.5215 14.6287 43.9319 14.3214C44.3593 13.997 44.8465 13.7409 45.3936 13.5531C45.9407 13.3653 46.5049 13.2201 47.0862 13.1177C47.6846 12.9982 48.3514 12.9043 49.0866 12.836C49.8217 12.7677 50.6082 12.6909 51.4459 12.6055C51.4459 12.0933 51.3433 11.6579 51.1382 11.2993C50.933 10.9237 50.6424 10.642 50.2662 10.4542C49.8901 10.2493 49.4285 10.1468 48.8814 10.1468C48.3001 10.1468 47.7958 10.2493 47.3683 10.4542C46.9409 10.642 46.6161 10.9664 46.3938 11.4274H42.983C43.154 10.4029 43.5301 9.59193 44.1114 8.99434C44.7098 8.39675 45.4364 7.96991 46.2912 7.7138C47.1461 7.44061 48.0266 7.30402 48.9327 7.30402C50.3175 7.30402 51.4288 7.55159 52.2666 8.04674C53.1043 8.54188 53.7113 9.26752 54.0874 10.2237C54.4635 11.1627 54.6516 12.3152 54.6516 13.6811V21.0059H52.1314L51.4972 19.3668C51.104 19.8448 50.6509 20.2205 50.138 20.4936C49.6422 20.7498 49.1379 20.9205 48.6249 21.0059C48.1291 21.1083 47.659 21.1595 47.2145 21.1595ZM47.9069 18.4448C48.5566 18.4448 49.1378 18.3253 49.6508 18.0862C50.1808 17.8472 50.5996 17.5057 50.9074 17.0618C51.2322 16.6008 51.4117 16.0544 51.4459 15.4227V14.9105C51.0698 14.9446 50.6937 14.9873 50.3175 15.0385C49.9414 15.0727 49.5567 15.1154 49.1635 15.1666C48.7874 15.2007 48.4112 15.2519 48.0351 15.3202C47.4025 15.4056 46.8896 15.5849 46.4964 15.8581C46.1032 16.1313 45.9066 16.5069 45.9066 16.985C45.9066 17.3606 46.0091 17.6594 46.2143 17.8813C46.4366 18.0862 46.7016 18.2313 47.0093 18.3167C47.317 18.4021 47.6162 18.4448 47.9069 18.4448Z" fill="#3E1939"/>
<path d="M56.2776 26V7.50891H58.9517L59.5859 9.25045C60.133 8.56749 60.7656 8.07235 61.4836 7.76502C62.2017 7.44061 62.9967 7.27841 63.8686 7.27841C65.2022 7.27841 66.3049 7.58574 67.1769 8.2004C68.0488 8.81507 68.6985 9.65169 69.1259 10.7103C69.5704 11.7518 69.7927 12.9214 69.7927 14.219C69.7927 15.5507 69.5619 16.7459 69.1003 17.8045C68.6557 18.846 67.9804 19.6741 67.0743 20.2888C66.1852 20.8864 65.0654 21.1851 63.7148 21.1851C63.0993 21.1851 62.5351 21.1168 62.0222 20.9803C61.5093 20.8437 61.0476 20.6559 60.6373 20.4168C60.2441 20.1607 59.9107 19.879 59.6372 19.5717V26H56.2776ZM63.1506 18.1631C63.9883 18.1631 64.6465 17.9752 65.1252 17.5996C65.604 17.224 65.9459 16.7459 66.1511 16.1654C66.3562 15.5678 66.4588 14.9446 66.4588 14.2958C66.4588 13.6128 66.3477 12.9726 66.1254 12.375C65.9202 11.7603 65.5698 11.2652 65.074 10.8896C64.5781 10.5139 63.9199 10.3261 63.0993 10.3261C62.347 10.3261 61.7059 10.5139 61.1759 10.8896C60.663 11.2481 60.2697 11.7262 59.9962 12.3238C59.7397 12.9214 59.6115 13.5702 59.6115 14.2702C59.6115 14.9702 59.7397 15.619 59.9962 16.2166C60.2527 16.7971 60.6373 17.2667 61.1502 17.6252C61.6802 17.9838 62.347 18.1631 63.1506 18.1631Z" fill="#3E1939"/>
<path d="M71.2406 21.0059V7.50891H74.6001V21.0059H71.2406ZM72.9332 6.04909C72.3006 6.04909 71.7877 5.86127 71.3944 5.48564C71.0183 5.09294 70.8303 4.5978 70.8303 4.00021C70.8303 3.38555 71.0269 2.88187 71.4201 2.48917C71.8304 2.09646 72.3433 1.90011 72.9588 1.90011C73.523 1.90011 74.0102 2.09646 74.4206 2.48917C74.848 2.86479 75.0617 3.35994 75.0617 3.9746C75.0617 4.58926 74.8565 5.09294 74.4462 5.48564C74.053 5.86127 73.5486 6.04909 72.9332 6.04909Z" fill="#3E1939"/>
<path d="M80.7317 21.1595C79.7401 21.1595 78.9109 20.9888 78.2441 20.6473C77.5944 20.2888 77.1072 19.7595 76.7823 19.0594C76.4746 18.3594 76.3207 17.4886 76.3207 16.4471V2.87333H79.6803V15.7812C79.6803 16.2422 79.723 16.6435 79.8085 16.985C79.9111 17.3264 80.082 17.5911 80.3214 17.7789C80.5778 17.9667 80.9369 18.0606 81.3985 18.0606C81.7404 18.0606 82.0653 18.0094 82.373 17.9069C82.6808 17.7874 82.9629 17.6252 83.2193 17.4203L84.0049 20.007C83.7308 20.5308 83.2022 20.7583 82.6038 20.929C82.0225 21.0827 81.3985 21.1595 80.7317 21.1595Z" fill="#3E1939"/>
<path d="M88.7659 21.1595C87.7743 21.1595 86.9451 20.9888 86.2783 20.6473C85.6286 20.2888 85.1413 19.7595 84.8165 19.0594C84.5088 18.3594 84.3549 17.4886 84.3549 16.4471V2.87333H87.7144V15.7812C87.7144 16.2422 87.7572 16.6435 87.8427 16.985C87.9452 17.3264 88.1162 17.5911 88.3556 17.7789C88.612 17.9667 88.971 18.0606 89.4326 18.0606C89.7746 18.0606 90.0994 18.0094 90.4072 17.9069C90.7149 17.7874 90.997 17.6252 91.2535 17.4203L92.3562 20.007C91.8091 20.451 91.2364 20.7583 90.638 20.929C90.0567 21.0827 89.4326 21.1595 88.7659 21.1595Z" fill="#3E1939"/>
<path d="M98.5952 21.1851C97.2104 21.1851 96.0136 20.9034 95.0049 20.34C93.9962 19.7765 93.2097 18.9826 92.6455 17.9582C92.0984 16.9167 91.8249 15.6873 91.8249 14.2702C91.8249 12.836 92.107 11.5981 92.6712 10.5566C93.2354 9.5151 94.0218 8.71262 95.0305 8.14918C96.0392 7.56867 97.2189 7.27841 98.5696 7.27841C99.9373 7.27841 101.117 7.56867 102.109 8.14918C103.117 8.7297 103.895 9.54924 104.442 10.6078C104.989 11.6493 105.263 12.8872 105.263 14.3214C105.263 15.7215 104.989 16.9423 104.442 17.9838C103.912 19.0082 103.152 19.8022 102.16 20.3656C101.168 20.912 99.98 21.1851 98.5952 21.1851ZM98.5439 18.1118C99.3646 18.1118 100.023 17.9326 100.519 17.574C101.032 17.2155 101.399 16.7459 101.621 16.1654C101.844 15.5849 101.955 14.9617 101.955 14.2958C101.955 13.6299 101.844 12.9982 101.621 12.4006C101.399 11.803 101.04 11.3164 100.544 10.9408C100.048 10.5651 99.3817 10.3773 98.5439 10.3773C97.7404 10.3773 97.0821 10.5651 96.5692 10.9408C96.0734 11.3164 95.7058 11.803 95.4665 12.4006C95.2442 12.9811 95.1331 13.6128 95.1331 14.2958C95.1331 14.9617 95.2442 15.5934 95.4665 16.191C95.7058 16.7715 96.0734 17.2411 96.5692 17.5996C97.0821 17.9411 97.7404 18.1118 98.5439 18.1118Z" fill="#3E1939"/>
<path d="M106.383 21.0059V7.50891H109.082L109.716 9.14801C110.075 8.66994 110.494 8.30285 110.973 8.04674C111.469 7.77355 111.973 7.5772 112.486 7.45769C112.999 7.33817 113.478 7.27841 113.922 7.27841C115.204 7.27841 116.213 7.56013 116.948 8.12357C117.684 8.68701 118.205 9.4468 118.513 10.4029C118.838 11.342 119 12.3921 119 13.5531V21.0059H115.64V14.0397C115.64 13.5787 115.606 13.1348 115.538 12.7079C115.469 12.264 115.341 11.8628 115.153 11.5042C114.965 11.1457 114.7 10.8639 114.358 10.6591C114.016 10.4371 113.563 10.3261 112.999 10.3261C112.281 10.3261 111.674 10.5139 111.178 10.8896C110.699 11.2481 110.34 11.7347 110.101 12.3494C109.862 12.964 109.742 13.6555 109.742 14.4239V21.0059H106.383Z" fill="#3E1939"/>
</svg>
