<svg width="129" height="28" viewBox="0 0 129 28" fill="none" xmlns="http://www.w3.org/2000/svg">
<path fill-rule="evenodd" clip-rule="evenodd" d="M5.5029 6.52032C5.64182 7.1298 5.83416 7.76208 6.07853 8.40471C5.4544 8.4674 4.86271 8.5649 4.31252 8.6962C3.29931 8.93801 2.35926 9.31055 1.61275 9.85049C0.859505 10.3953 0.226187 11.1731 0.0482047 12.2031C-0.129777 13.2331 0.204656 14.185 0.729867 14.9598C1.25039 15.7277 2.00888 16.4059 2.87993 16.9867C3.04264 17.0952 3.21132 17.2017 3.38561 17.3059C5.08696 18.3316 7.33164 19.1456 9.80528 19.5906C12.595 20.0926 15.249 19.8239 17.2659 19.2292C17.3762 19.1967 17.4852 19.163 17.5927 19.1283C17.2965 20.4036 17.0949 21.62 17.0001 22.6978C16.9075 23.7505 16.9093 24.7491 17.0638 25.568C17.1806 26.1873 17.4723 27.161 18.311 27.6522C18.4229 27.7211 18.5449 27.7813 18.6778 27.8307C19.6889 28.2062 20.6169 27.7245 21.1934 27.2921C21.8201 26.8219 22.424 26.1277 22.9832 25.3347C24.1132 23.7323 25.254 21.4487 26.1767 18.8619C27.0993 16.2752 27.6639 13.7776 27.8077 11.8089C27.8788 10.8346 27.8535 9.9067 27.6696 9.13546C27.5211 8.51268 27.1889 7.68312 26.4258 7.23575C26.309 7.16391 26.1818 7.10113 26.0432 7.04967C25.1379 6.71342 24.272 7.02111 23.6473 7.4141C23.0095 7.81536 22.4081 8.42974 21.857 9.14698C21.4705 9.64995 21.0846 10.2354 20.7067 10.8942C20.0889 9.28712 19.1113 7.47821 17.6669 5.72171C16.1115 3.83026 14.3718 2.29776 12.7077 1.30228C12.4682 1.15795 12.2303 1.02469 11.9946 0.903034C11.0661 0.423698 10.1113 0.0924872 9.19936 0.0164573C8.27915 -0.0602577 7.30406 0.120151 6.5189 0.792432L6.5461 0.825509C5.77232 1.4945 5.41579 2.46088 5.29115 3.4016C5.16436 4.3585 5.25454 5.43068 5.5029 6.52032ZM10.7887 3.43646C10.9588 3.52429 11.1326 3.62114 11.3094 3.72678C12.6361 4.52724 14.1289 5.81957 15.5163 7.50678C16.3936 8.57361 17.064 9.65563 17.5632 10.6696C15.9336 9.78059 13.8848 9.07689 11.6489 8.6746C10.7703 8.51651 9.9032 8.41224 9.06327 8.36008C8.65551 7.49553 8.36366 6.65313 8.18813 5.88303C7.99166 5.02105 7.95344 4.30496 8.02319 3.77851C8.09447 3.24051 8.25649 3.03332 8.32966 2.97068C8.39939 2.91097 8.57851 2.80725 9.01353 2.84352C9.45677 2.88047 10.0582 3.05935 10.7887 3.43646ZM10.2453 16.797C8.03955 16.4001 6.13792 15.6903 4.78404 14.8815C4.66019 14.8068 4.54102 14.7312 4.42671 14.655C3.74142 14.198 3.28888 13.7559 3.0359 13.3827C2.78761 13.0164 2.78608 12.8063 2.80188 12.7148C2.81769 12.6233 2.88957 12.4264 3.24566 12.1688C3.60848 11.9064 4.1819 11.6489 4.97903 11.4587C5.68418 11.2904 6.51175 11.1872 7.4266 11.1628C7.88 11.9166 8.40143 12.6605 8.98869 13.3747C10.3803 15.067 12.0268 16.2527 13.6602 16.9873C12.5931 17.0569 11.4345 17.0109 10.2453 16.797ZM11.2088 11.4683C13.4147 11.8652 15.3164 12.575 16.6703 13.3838C16.7941 13.4585 16.9132 13.5341 17.0274 13.6103C17.7127 14.0672 18.1653 14.5093 18.4183 14.8825C18.4519 14.9322 18.481 14.979 18.5062 15.023C18.3885 15.0493 18.2552 15.0711 18.105 15.0857C17.538 15.1407 16.8215 15.0827 16.0192 14.8636C14.417 14.4261 12.5904 13.3781 11.1006 11.5664C11.0633 11.5211 11.0264 11.4756 10.9898 11.4301C11.0626 11.4424 11.1356 11.4551 11.2088 11.4683ZM24.0652 10.9059C24.4293 10.4321 24.7425 10.1211 24.9845 9.93586C25.0489 10.308 25.0725 10.8542 25.0197 11.5767C24.8996 13.2222 24.4089 15.4612 23.5474 17.8765C22.6858 20.2919 21.6514 22.3289 20.7068 23.6683C20.3502 24.1739 20.0324 24.5428 19.77 24.7906C19.7199 24.3461 19.7175 23.7355 19.7846 22.9725C19.9394 21.2136 20.4376 18.922 21.231 16.6206C21.2724 16.5304 21.3094 16.4355 21.3401 16.336C21.4096 16.1847 21.458 16.033 21.4922 15.8916C22.3155 13.6807 23.2371 11.9837 24.0652 10.9059Z" fill="#29947A"/>
<path d="M30.8594 22.6217V3.09436H38.3932C39.8944 3.09436 41.1918 3.3242 42.2853 3.78388C43.3973 4.22518 44.2498 4.94228 44.8429 5.9352C45.4545 6.90973 45.7603 8.19684 45.7603 9.79654C45.7603 11.3227 45.4267 12.6006 44.7595 13.6303C44.0923 14.6416 43.1749 15.4047 42.0073 15.9195C40.8582 16.416 39.5423 16.6642 38.0596 16.6642H34.5846V22.6217H30.8594ZM34.5846 13.3545H38.004C39.2272 13.3545 40.2095 13.0603 40.9509 12.4719C41.6922 11.8835 42.0629 10.9825 42.0629 9.76896C42.0629 8.6841 41.7478 7.87506 41.1177 7.34183C40.5061 6.79021 39.5423 6.5144 38.2264 6.5144H34.5846V13.3545Z" fill="#29947A"/>
<path d="M51.1821 22.7872C50.2924 22.7872 49.4584 22.6401 48.68 22.3459C47.9202 22.0333 47.3086 21.5644 46.8452 20.9393C46.3819 20.2957 46.1502 19.4867 46.1502 18.5121C46.1502 17.795 46.2799 17.1882 46.5394 16.6918C46.8174 16.1769 47.1788 15.754 47.6236 15.4231C48.087 15.0737 48.6152 14.7979 49.2082 14.5956C49.8013 14.3934 50.4129 14.2371 51.0431 14.1268C51.6917 13.998 52.4145 13.8969 53.2115 13.8234C54.0084 13.7498 54.861 13.6671 55.7691 13.5751C55.7691 13.0235 55.6579 12.5546 55.4355 12.1685C55.2131 11.764 54.898 11.4606 54.4903 11.2583C54.0826 11.0377 53.5821 10.9274 52.9891 10.9274C52.3589 10.9274 51.8122 11.0377 51.3489 11.2583C50.8855 11.4606 50.5334 11.81 50.2924 12.3064H46.595C46.7803 11.2032 47.1881 10.3298 47.8182 9.68621C48.4669 9.04266 49.2546 8.58297 50.1813 8.30716C51.1079 8.01297 52.0624 7.86587 53.0447 7.86587C54.5459 7.86587 55.7506 8.13248 56.6587 8.66572C57.5669 9.19895 58.2248 9.98041 58.6325 11.0101C59.0403 12.0214 59.2441 13.2626 59.2441 14.7335V22.6217H56.5122L55.8247 20.8565C55.3984 21.3714 54.9073 21.7759 54.3513 22.0701C53.8138 22.3459 53.2671 22.5298 52.7111 22.6217C52.1736 22.732 51.6639 22.7872 51.1821 22.7872ZM51.9327 19.8636C52.6369 19.8636 53.2671 19.7349 53.8231 19.4775C54.3976 19.22 54.8517 18.8523 55.1853 18.3742C55.5374 17.8778 55.732 17.2894 55.7691 16.609V16.0574C55.3614 16.0942 54.9536 16.1402 54.5459 16.1953C54.1382 16.2321 53.7212 16.2781 53.2949 16.3332C52.8871 16.37 52.4794 16.4252 52.0717 16.4987C51.3859 16.5907 50.8299 16.7837 50.4037 17.0779C49.9774 17.3721 49.7642 17.7766 49.7642 18.2915C49.7642 18.696 49.8754 19.0178 50.0978 19.2568C50.3388 19.4775 50.6261 19.6338 50.9597 19.7257C51.2933 19.8176 51.6176 19.8636 51.9327 19.8636Z" fill="#29947A"/>
<path d="M61.0069 28V8.08652H63.9056L64.5931 9.96202C65.1862 9.22653 65.8719 8.6933 66.6503 8.36233C67.4287 8.01297 68.2905 7.83829 69.2357 7.83829C70.6814 7.83829 71.8768 8.16926 72.822 8.8312C73.7672 9.49315 74.4715 10.3941 74.9348 11.5341C75.4167 12.6558 75.6576 13.9153 75.6576 15.3127C75.6576 16.747 75.4074 18.0341 74.907 19.1741C74.4251 20.2957 73.693 21.1875 72.7108 21.8494C71.747 22.493 70.5331 22.8148 69.0689 22.8148C68.4017 22.8148 67.7901 22.7412 67.2341 22.5941C66.6781 22.447 66.1777 22.2448 65.7329 21.9873C65.3066 21.7115 64.9452 21.4081 64.6487 21.0772V28H61.0069ZM68.4573 19.5602C69.3655 19.5602 70.079 19.358 70.5979 18.9534C71.1169 18.5489 71.4876 18.0341 71.71 17.4089C71.9324 16.7653 72.0436 16.0942 72.0436 15.3955C72.0436 14.66 71.9231 13.9705 71.6822 13.3269C71.4598 12.665 71.0798 12.1317 70.5424 11.7272C70.0049 11.3227 69.2913 11.1204 68.4017 11.1204C67.5863 11.1204 66.8912 11.3227 66.3167 11.7272C65.7607 12.1133 65.3344 12.6282 65.0379 13.2717C64.7599 13.9153 64.6209 14.614 64.6209 15.3679C64.6209 16.1218 64.7599 16.8205 65.0379 17.4641C65.3159 18.0892 65.7329 18.5949 66.2889 18.981C66.8634 19.3671 67.5863 19.5602 68.4573 19.5602Z" fill="#29947A"/>
<path d="M77.2272 22.6217V8.08652H80.869V22.6217H77.2272ZM79.062 6.5144C78.3763 6.5144 77.8203 6.31214 77.394 5.90762C76.9862 5.48471 76.7824 4.95148 76.7824 4.30792C76.7824 3.64597 76.9955 3.10355 77.4218 2.68064C77.8666 2.25773 78.4226 2.04628 79.0898 2.04628C79.7014 2.04628 80.2296 2.25773 80.6744 2.68064C81.1377 3.08516 81.3694 3.61839 81.3694 4.28034C81.3694 4.94228 81.147 5.48471 80.7022 5.90762C80.2759 6.31214 79.7292 6.5144 79.062 6.5144Z" fill="#29947A"/>
<path d="M87.5159 22.7872C86.4409 22.7872 85.5421 22.6033 84.8193 22.2356C84.115 21.8494 83.5868 21.2794 83.2346 20.5255C82.901 19.7717 82.7342 18.8339 82.7342 17.7123V3.09436H86.3761V16.9952C86.3761 17.4916 86.4224 17.9237 86.5151 18.2915C86.6263 18.6592 86.8116 18.9442 87.0711 19.1465C87.3491 19.3488 87.7383 19.4499 88.2387 19.4499C88.6094 19.4499 88.9615 19.3947 89.2951 19.2844C89.6287 19.1557 89.9345 18.981 90.2125 18.7604L91.0642 21.546C90.767 22.1101 90.194 22.3551 89.5453 22.539C88.9152 22.7044 88.2387 22.7872 87.5159 22.7872Z" fill="#29947A"/>
<path d="M96.2252 22.7872C95.1502 22.7872 94.2514 22.6033 93.5286 22.2356C92.8243 21.8494 92.2961 21.2794 91.9439 20.5255C91.6103 19.7717 91.4435 18.8339 91.4435 17.7123V3.09436H95.0854V16.9952C95.0854 17.4916 95.1317 17.9237 95.2244 18.2915C95.3356 18.6592 95.5209 18.9442 95.7804 19.1465C96.0584 19.3488 96.4476 19.4499 96.948 19.4499C97.3187 19.4499 97.6708 19.3947 98.0044 19.2844C98.338 19.1557 98.6438 18.981 98.9218 18.7604L100.117 21.546C99.5242 22.0241 98.9033 22.3551 98.2546 22.539C97.6245 22.7044 96.948 22.7872 96.2252 22.7872Z" fill="#29947A"/>
<path d="M106.881 22.8148C105.379 22.8148 104.082 22.5114 102.988 21.9046C101.895 21.2978 101.042 20.4428 100.431 19.3396C99.8378 18.2179 99.5412 16.8941 99.5412 15.3679C99.5412 13.8234 99.8471 12.4903 100.459 11.3687C101.07 10.247 101.923 9.38282 103.016 8.77604C104.11 8.15087 105.389 7.83829 106.853 7.83829C108.335 7.83829 109.614 8.15087 110.689 8.77604C111.783 9.40121 112.626 10.2838 113.219 11.4238C113.812 12.5454 114.109 13.8785 114.109 15.4231C114.109 16.9308 113.812 18.2455 113.219 19.3671C112.644 20.4704 111.82 21.3254 110.745 21.9322C109.67 22.5206 108.382 22.8148 106.881 22.8148ZM106.825 19.5051C107.715 19.5051 108.428 19.312 108.966 18.9259C109.522 18.5397 109.92 18.0341 110.161 17.4089C110.402 16.7837 110.522 16.1126 110.522 15.3955C110.522 14.6784 110.402 13.998 110.161 13.3545C109.92 12.7109 109.531 12.1869 108.993 11.7824C108.456 11.3778 107.733 11.1756 106.825 11.1756C105.954 11.1756 105.24 11.3778 104.684 11.7824C104.147 12.1869 103.748 12.7109 103.489 13.3545C103.248 13.9797 103.127 14.66 103.127 15.3955C103.127 16.1126 103.248 16.7929 103.489 17.4365C103.748 18.0616 104.147 18.5673 104.684 18.9534C105.24 19.3212 105.954 19.5051 106.825 19.5051Z" fill="#29947A"/>
<path d="M115.322 22.6217V8.08652H118.249L118.936 9.8517C119.325 9.33685 119.78 8.94153 120.299 8.66572C120.836 8.37152 121.383 8.16007 121.939 8.03135C122.495 7.90264 123.014 7.83829 123.496 7.83829C124.886 7.83829 125.979 8.14168 126.776 8.74846C127.573 9.35524 128.138 10.1735 128.472 11.2032C128.824 12.2145 129 13.3453 129 14.5956V22.6217H125.358V15.1197C125.358 14.6232 125.321 14.1451 125.247 13.6855C125.173 13.2074 125.034 12.7753 124.83 12.3892C124.626 12.003 124.339 11.6996 123.968 11.479C123.597 11.2399 123.106 11.1204 122.495 11.1204C121.716 11.1204 121.058 11.3227 120.521 11.7272C120.002 12.1133 119.613 12.6374 119.353 13.2993C119.094 13.9613 118.964 14.706 118.964 15.5334V22.6217H115.322Z" fill="#29947A"/>
</svg>
