<svg width="360" height="280" viewBox="0 0 360 280" fill="none" xmlns="http://www.w3.org/2000/svg">
<g clip-path="url(#clip0_1386_2)">
<mask id="mask0_1386_2" style="mask-type:alpha" maskUnits="userSpaceOnUse" x="0" y="-4" width="360" height="316">
<path d="M360 310.472C313.62 285.425 250.304 270 180.5 270C110.193 270 46.4682 285.649 0 311.016V-4H360V310.472Z" fill="#D9D9D9"/>
</mask>
<g mask="url(#mask0_1386_2)">
<path fill-rule="evenodd" clip-rule="evenodd" d="M48.1512 170.406C44.3144 173.126 43.54 175.205 43.3697 176.171C43.1994 177.137 43.2159 179.356 45.8911 183.224C48.6169 187.164 53.4929 191.832 60.8766 196.657C75.5953 206.276 97.8019 214.903 123.987 219.52C149.282 223.98 173.29 221.528 190.968 216.42C199.84 213.856 206.62 210.767 210.99 207.945C212.785 206.786 213.935 205.824 214.606 205.16C214.496 203.933 213.93 202.028 212.047 199.305C209.321 195.364 204.445 190.697 197.061 185.871C182.342 176.253 160.136 167.626 133.951 163.009C107.766 158.392 83.9484 158.903 66.8276 162.908C58.2388 164.917 52.0604 167.635 48.1512 170.406ZM60.0627 133.984C81.9532 128.864 109.941 128.612 139.109 133.756C168.278 138.899 194.491 148.707 213.311 161.006C222.696 167.139 230.868 174.299 236.477 182.408C242.136 190.589 245.739 200.64 243.821 211.516C242.857 216.988 239.986 221.34 237.205 224.476C234.341 227.705 230.82 230.499 227.107 232.897C219.674 237.698 210.047 241.827 199.214 244.957C177.482 251.236 148.887 254.073 118.829 248.773C89.6601 243.63 63.4464 233.821 44.6272 221.523C35.2419 215.39 27.0695 208.23 21.4611 200.121C15.8021 191.94 12.1987 181.889 14.1164 171.013C16.0341 160.137 22.8579 151.925 30.9738 146.172C39.0172 140.471 49.1459 136.537 60.0627 133.984Z" fill="#C53424"/>
<path d="M185.745 107.276C199.244 98.9868 225.424 35.2483 223.765 4.90464C228.631 24.6957 248.438 65.1353 264.142 65.1353C279.846 65.1353 291.433 25.4828 289.774 -4.86085C293.54 10.4548 317.318 86.4458 337.384 112.522L283.414 125.307L241.826 182.111L218.853 177.153L185.745 107.276Z" fill="#D9D9D9"/>
<path d="M185.745 107.276C199.244 98.9868 225.424 35.2483 223.765 4.90464C228.631 24.6957 248.438 65.1353 264.142 65.1353C279.846 65.1353 291.433 25.4828 289.774 -4.86085C293.54 10.4548 317.318 86.4458 337.384 112.522L283.414 125.307L241.826 182.111L218.853 177.153L185.745 107.276Z" fill="url(#paint0_linear_1386_2)"/>
<path d="M292.001 12.1581C295.253 22.6853 299.807 36.4704 305.062 50.7051C313.311 73.0471 323.416 96.8832 333.045 110.921L282.847 122.813L281.919 123.032L281.353 123.804L240.758 179.252L220.635 174.909L188.962 108.06C190.428 106.806 191.898 105.17 193.344 103.298C195.446 100.576 197.636 97.1767 199.838 93.3024C204.242 85.5501 208.781 75.7358 212.827 65.2658C218.736 49.9767 223.703 33.0011 225.587 18.8248C228.705 26.89 232.934 35.8217 237.688 43.7743C241.507 50.1613 245.732 56.0319 250.083 60.3392C254.346 64.5608 259.15 67.6996 264.117 67.6997C269.2 67.6997 273.538 64.495 277.019 60.0314C280.533 55.5245 283.518 49.3214 285.894 42.3199C288.956 33.2987 291.092 22.6992 292.001 12.1581Z" stroke="#C12E00" stroke-opacity="0.39" stroke-width="5.12621"/>
<path d="M193.49 120.437C207.261 113.662 228.46 75.5218 227.143 51.4444C231.834 67.0949 249.402 96.3636 275.783 82.1597C286.518 76.3794 295.433 66.8304 294.116 42.7531C297.746 54.8644 306.694 91.874 326.704 112.301L283.336 144.085L243.31 191.938L220.102 188.325L193.49 120.437Z" fill="white" fill-opacity="0.6"/>
<path d="M295.935 58.1329C297.533 63.3232 299.494 69.2401 301.88 75.3609C306.77 87.9056 313.54 101.589 322.854 111.958L281.836 142.02L281.581 142.207L281.378 142.45L242.291 189.179L221.957 186.015L196.683 121.539C200.013 119.362 203.451 115.903 206.741 111.77C210.769 106.708 214.76 100.403 218.252 93.5813C223.225 83.8688 227.305 72.8791 228.964 62.7551C232.003 68.7655 236.243 75.0522 241.601 79.9062C245.985 83.8782 251.215 86.9787 257.231 88.0767C263.098 89.1475 269.507 88.2742 276.318 84.7636L276.979 84.4157C282.62 81.3786 287.98 77.2401 291.704 70.5489C293.636 67.0779 295.084 62.994 295.935 58.1329Z" stroke="white" stroke-opacity="0.19" stroke-width="5.12621"/>
<path fill-rule="evenodd" clip-rule="evenodd" d="M219.351 206.894L217.82 208.409C216.881 209.338 215.472 210.491 213.47 211.784C208.629 214.911 201.411 218.16 192.237 220.81C173.935 226.098 149.221 228.61 123.193 224.02C96.5492 219.322 73.7262 210.513 58.3767 200.483C50.6851 195.457 45.3019 190.405 42.1327 185.823C38.9798 181.265 38.4344 177.843 38.8692 175.377C39.304 172.912 40.9868 169.883 45.5085 166.678C50.0538 163.456 56.84 160.55 65.7868 158.458C83.6413 154.282 108.101 153.81 134.745 158.508C161.389 163.206 184.212 172.015 199.561 182.046C207.253 187.072 212.636 192.124 215.805 196.706C218.002 199.882 218.958 202.53 219.158 204.75L219.351 206.894ZM214.606 205.16C213.935 205.824 212.785 206.786 210.99 207.945C206.62 210.767 199.84 213.856 190.968 216.42C173.29 221.528 149.282 223.98 123.987 219.52C97.8019 214.903 75.5953 206.276 60.8766 196.657C53.4929 191.832 48.6169 187.164 45.8911 183.224C43.2159 179.356 43.1994 177.137 43.3697 176.171C43.54 175.205 44.3144 173.126 48.1512 170.406C52.0604 167.635 58.2388 164.917 66.8276 162.908C83.9484 158.903 107.766 158.392 133.951 163.009C160.136 167.626 182.342 176.253 197.061 185.871C204.445 190.697 209.321 195.364 212.047 199.305C213.93 202.028 214.496 203.933 214.606 205.16ZM138.316 138.256C109.606 133.194 82.2601 133.485 61.1035 138.434C50.5448 140.903 41.0239 144.65 33.6165 149.9C26.1526 155.191 20.2648 162.461 18.6169 171.806C16.9691 181.152 20.0152 189.997 25.2195 197.522C30.3845 204.989 38.0498 211.766 47.1271 217.698C65.3154 229.583 90.9126 239.21 119.622 244.273C148.947 249.443 176.837 246.666 197.945 240.567C208.477 237.524 217.666 233.555 224.627 229.058C228.105 226.812 231.274 224.276 233.786 221.444C236.241 218.675 238.554 215.072 239.321 210.722C240.969 201.377 237.923 192.531 232.718 185.007C227.553 177.54 219.888 170.763 210.811 164.831C192.622 152.945 167.025 143.318 138.316 138.256ZM139.109 133.756C109.941 128.612 81.9532 128.864 60.0627 133.984C49.1459 136.537 39.0172 140.471 30.9738 146.172C22.8579 151.925 16.0341 160.137 14.1164 171.013C12.1987 181.889 15.8021 191.94 21.4611 200.121C27.0695 208.23 35.2419 215.39 44.6272 221.523C63.4464 233.821 89.6601 243.63 118.829 248.773C148.887 254.073 177.482 251.236 199.214 244.957C210.047 241.827 219.674 237.698 227.107 232.897C230.82 230.499 234.341 227.705 237.205 224.476C239.986 221.34 242.857 216.988 243.821 211.516C245.739 200.64 242.136 190.589 236.477 182.408C230.868 174.299 222.696 167.139 213.311 161.006C194.491 148.707 168.278 138.899 139.109 133.756Z" fill="black" fill-opacity="0.2"/>
<path fill-rule="evenodd" clip-rule="evenodd" d="M108.813 68.1023C104.126 67.7194 102.196 68.8145 101.444 69.445C100.656 70.1065 98.9102 72.2941 98.1422 77.9749C97.3906 83.5337 97.8024 91.0949 99.9193 100.197C104.143 118.358 114.62 140.329 131.3 160.207C147.352 179.337 167.034 190.403 184.296 195.022C192.941 197.336 200.661 197.948 206.77 197.367C210.142 197.047 212.725 196.397 214.636 195.663C214.632 195.02 214.608 194.285 214.556 193.456C214.257 188.708 213.102 182.023 210.645 173.968C205.746 157.91 196.001 137.498 179.294 117.587C162.203 97.2187 143.629 82.3008 127.94 74.3632C120.069 70.3813 113.588 68.4925 108.813 68.1023ZM141.349 47.8578C161.409 58.0067 183.011 75.8041 202.049 98.4932C221.471 121.639 233.061 145.648 239.057 165.3C242.046 175.1 243.729 184.093 244.202 191.587C244.437 195.319 244.392 198.979 243.933 202.342C243.521 205.361 242.587 209.663 239.962 213.494L238.813 215.17L237.257 216.477C229.601 222.901 219.584 225.987 209.583 226.938C199.401 227.907 188.1 226.79 176.617 223.717C153.623 217.564 128.623 203.229 108.545 179.301C89.0959 156.122 76.3487 129.978 70.9871 106.926C68.3111 95.4202 67.3394 84.099 68.7055 73.9951C70.055 64.0131 73.9278 53.7575 82.3506 46.69C90.8104 39.5914 101.317 37.6864 111.232 38.4965C121.058 39.2993 131.345 42.7965 141.349 47.8578Z" fill="#C53424"/>
<path fill-rule="evenodd" clip-rule="evenodd" d="M219.224 198.795L216.275 199.929C213.925 200.832 210.929 201.562 207.203 201.917C200.467 202.557 192.196 201.867 183.114 199.437C164.97 194.582 144.47 183.012 127.799 163.145C110.693 142.758 99.8673 120.146 95.4682 101.232C93.2653 91.7602 92.7674 83.6206 93.6135 77.3626C94.4739 70.998 96.5561 67.581 98.5068 65.9442C100.425 64.3348 103.661 63.0963 109.185 63.5476C114.738 64.0012 121.804 66.1375 130.003 70.2855C146.364 78.5632 165.404 93.9241 182.795 114.649C199.92 135.058 209.948 156.023 215.016 172.634C217.555 180.958 218.791 187.998 219.117 193.168C219.174 194.08 219.201 194.901 219.206 195.636L219.224 198.795ZM234.319 212.976L235.397 212.072L236.192 210.911C238.227 207.94 239.031 204.464 239.405 201.725C239.812 198.743 239.863 195.4 239.641 191.875C239.195 184.803 237.594 176.165 234.686 166.634C228.859 147.534 217.553 124.079 198.548 101.431C179.81 79.0986 158.674 61.7443 139.286 51.9356C129.61 47.0403 119.909 43.7905 110.859 43.0512C101.741 42.3062 92.5575 44.091 85.2881 50.1907C78.0433 56.2698 74.4951 65.2807 73.2342 74.6074C71.9627 84.012 72.8482 94.7547 75.4382 105.89C80.6248 128.191 93.0226 153.692 112.046 176.363C131.504 199.553 155.686 213.385 177.798 219.303C188.844 222.259 199.595 223.298 209.15 222.389C218.583 221.492 227.603 218.611 234.319 212.976ZM238.813 215.17L239.962 213.494C242.587 209.663 243.521 205.361 243.933 202.342C244.392 198.979 244.437 195.319 244.202 191.587C243.729 184.093 242.046 175.1 239.057 165.3C233.061 145.648 221.471 121.639 202.049 98.4932C183.011 75.8041 161.409 58.0067 141.349 47.8578C131.345 42.7965 121.058 39.2993 111.232 38.4965C101.317 37.6864 90.8104 39.5914 82.3506 46.69C73.9278 53.7575 70.055 64.0131 68.7055 73.9951C67.3394 84.099 68.3111 95.4202 70.9871 106.926C76.3487 129.978 89.0959 156.122 108.545 179.301C128.623 203.229 153.623 217.564 176.617 223.717C188.1 226.79 199.401 227.907 209.583 226.938C219.584 225.987 229.601 222.901 237.257 216.477L238.813 215.17ZM214.636 195.663C212.725 196.397 210.142 197.047 206.77 197.367C200.661 197.948 192.941 197.336 184.296 195.022C167.034 190.403 147.352 179.337 131.3 160.207C114.62 140.329 104.143 118.358 99.9193 100.197C97.8024 91.0949 97.3906 83.5337 98.1422 77.9749C98.9102 72.2941 100.656 70.1065 101.444 69.445C102.196 68.8145 104.126 67.7194 108.813 68.1023C113.588 68.4925 120.069 70.3813 127.94 74.3632C143.629 82.3008 162.203 97.2187 179.294 117.587C196.001 137.498 205.746 157.91 210.645 173.968C213.102 182.023 214.257 188.708 214.556 193.456C214.608 194.285 214.632 195.02 214.636 195.663Z" fill="black" fill-opacity="0.2"/>
<path fill-rule="evenodd" clip-rule="evenodd" d="M273.042 158.206C263.579 170.275 252.983 189.699 243.719 215.151C237.258 232.903 232.482 250.737 229.593 266.5C228.343 273.318 227.447 279.748 226.92 285.617C226.168 294 226.226 300.642 226.83 305.378C229.724 302.763 233.271 298.769 237.273 293.209C242.426 286.048 247.827 277 253.109 266.5C258.259 256.262 263.296 244.645 267.879 232.054C277.161 206.55 282.448 182.909 283.743 165.533C284.335 157.584 284.034 151.655 283.273 147.722C280.623 149.644 277.13 152.991 273.042 158.206ZM268.956 121.581C275.686 117.431 285.016 114.182 294.77 117.733C305.665 121.698 310.055 132.021 311.878 139.511C313.859 147.655 314.132 157.452 313.365 167.74C311.817 188.528 305.733 214.9 295.792 242.213C292.72 250.654 289.423 258.789 285.975 266.5C278.265 283.743 269.797 298.868 261.383 310.559C255.358 318.932 248.851 326.263 242.099 331.227C235.888 335.794 225.889 340.88 214.995 336.914C203.208 332.624 199.431 320.597 198.02 313.268C196.357 304.621 196.337 294.076 197.335 282.962C197.802 277.754 198.51 272.24 199.447 266.5C202.547 247.5 208.15 226.025 215.806 204.992C225.766 177.626 237.692 155.15 249.665 139.878C255.603 132.305 262.084 125.817 268.956 121.581Z" fill="#C53424"/>
<path fill-rule="evenodd" clip-rule="evenodd" d="M223.404 314.634L222.297 305.956C221.638 300.784 221.599 293.788 222.369 285.209C224.155 265.308 230.059 239.319 239.425 213.588C248.796 187.842 259.596 167.948 269.445 155.386C273.704 149.955 277.493 146.269 280.589 144.023L286.397 139.809L287.76 146.854C288.625 151.326 288.909 157.694 288.3 165.873C286.967 183.773 281.557 207.834 272.173 233.617C262.789 259.399 251.467 281.308 240.982 295.878C236.855 301.613 233.097 305.874 229.895 308.768L223.404 314.634ZM226.399 299.387C226.293 295.521 226.445 290.917 226.92 285.617C228.665 266.18 234.463 240.581 243.719 215.151C252.983 189.699 263.579 170.275 273.042 158.206C275.279 155.353 277.337 153.059 279.177 151.251C280.7 149.755 282.073 148.592 283.273 147.722C283.562 149.217 283.785 151 283.918 153.073C284.134 156.454 284.11 160.605 283.743 165.533C282.448 182.909 277.161 206.55 267.879 232.054C258.596 257.558 247.45 279.066 237.273 293.209C235.042 296.308 232.953 298.921 231.039 301.079C229.52 302.793 228.111 304.22 226.83 305.378C226.608 303.636 226.46 301.636 226.399 299.387ZM293.207 122.027C285.323 119.157 277.513 121.673 271.354 125.471C265.115 129.317 259.021 135.352 253.262 142.698C241.674 157.477 229.953 179.484 220.1 206.555C210.242 233.641 203.86 261.386 201.886 283.37C200.906 294.286 200.959 304.353 202.508 312.404C203.888 319.574 207.268 329.239 216.558 332.62C225.228 335.776 233.532 331.853 239.392 327.545C245.601 322.98 251.783 316.076 257.674 307.89C269.542 291.397 281.658 267.685 291.498 240.65C301.338 213.615 307.298 187.663 308.808 167.4C309.557 157.343 309.259 148.08 307.437 140.592C305.718 133.525 301.877 125.182 293.207 122.027ZM294.77 117.733C285.016 114.182 275.686 117.431 268.956 121.581C262.084 125.817 255.603 132.305 249.665 139.878C237.692 155.15 225.766 177.626 215.806 204.992C205.838 232.379 199.349 260.515 197.335 282.962C196.337 294.076 196.357 304.621 198.02 313.268C199.431 320.597 203.208 332.624 214.995 336.914C225.889 340.88 235.888 335.794 242.099 331.227C248.851 326.263 255.358 318.932 261.383 310.559C273.559 293.639 285.851 269.527 295.792 242.213C305.733 214.9 311.817 188.528 313.365 167.74C314.132 157.452 313.859 147.655 311.878 139.511C310.055 132.021 305.665 121.698 294.77 117.733Z" fill="black" fill-opacity="0.2"/>
<mask id="mask1_1386_2" style="mask-type:alpha" maskUnits="userSpaceOnUse" x="223" y="109" width="56" height="56">
<path d="M278.76 136.82C278.76 151.964 266.484 164.24 251.341 164.24C236.198 164.24 223.921 151.964 223.921 136.82C223.921 121.677 236.198 109.401 251.341 109.401C266.484 109.401 278.76 121.677 278.76 136.82Z" fill="white"/>
</mask>
<g mask="url(#mask1_1386_2)">
<path d="M278.76 136.82C278.76 151.964 266.484 164.24 251.341 164.24C236.198 164.24 223.921 151.964 223.921 136.82C223.921 121.677 236.198 109.401 251.341 109.401C266.484 109.401 278.76 121.677 278.76 136.82Z" fill="white"/>
<path fill-rule="evenodd" clip-rule="evenodd" d="M251.341 159.67C263.96 159.67 274.191 149.44 274.191 136.82C274.191 124.201 263.96 113.971 251.341 113.971C238.721 113.971 228.491 124.201 228.491 136.82C228.491 149.44 238.721 159.67 251.341 159.67ZM251.341 164.24C266.484 164.24 278.76 151.964 278.76 136.82C278.76 121.677 266.484 109.401 251.341 109.401C236.198 109.401 223.921 121.677 223.921 136.82C223.921 151.964 236.198 164.24 251.341 164.24Z" fill="black" fill-opacity="0.44"/>
<path d="M263.908 136.82C263.908 143.761 258.282 149.388 251.341 149.388C244.4 149.388 238.774 143.761 238.774 136.82C238.774 129.88 244.4 124.253 251.341 124.253C258.282 124.253 263.908 129.88 263.908 136.82Z" fill="#222222"/>
<ellipse cx="253.99" cy="94.0793" rx="120.551" ry="30.7952" transform="rotate(30 253.99 94.0793)" fill="#670000"/>
<path d="M268.105 69.6299C296.805 86.1996 320.995 104.131 336.909 119.676C344.879 127.462 350.666 134.547 353.934 140.474C357.29 146.561 357.576 150.636 356.17 153.073C354.763 155.509 351.091 157.299 344.141 157.436C337.374 157.569 328.345 156.1 317.617 153.091C296.197 147.082 268.573 135.099 239.873 118.529C211.174 101.959 186.985 84.028 171.071 68.4827C163.101 60.6961 157.313 53.6112 154.045 47.684C150.689 41.5969 150.403 37.5219 151.81 35.0854C153.216 32.6491 156.889 30.8592 163.838 30.7221C170.605 30.5887 179.635 32.0583 190.363 35.068C211.783 41.0767 239.406 53.0603 268.105 69.6299Z" stroke="black" stroke-opacity="0.39" stroke-width="5.12621"/>
</g>
<mask id="mask2_1386_2" style="mask-type:alpha" maskUnits="userSpaceOnUse" x="291" y="109" width="56" height="56">
<path d="M291.564 136.82C291.564 151.964 303.84 164.24 318.983 164.24C334.127 164.24 346.403 151.964 346.403 136.82C346.403 121.677 334.127 109.401 318.983 109.401C303.84 109.401 291.564 121.677 291.564 136.82Z" fill="white"/>
</mask>
<g mask="url(#mask2_1386_2)">
<path d="M291.564 136.82C291.564 151.964 303.84 164.24 318.983 164.24C334.127 164.24 346.403 151.964 346.403 136.82C346.403 121.677 334.127 109.401 318.983 109.401C303.84 109.401 291.564 121.677 291.564 136.82Z" fill="white"/>
<path fill-rule="evenodd" clip-rule="evenodd" d="M318.983 159.67C306.364 159.67 296.134 149.44 296.134 136.82C296.134 124.201 306.364 113.971 318.983 113.971C331.603 113.971 341.833 124.201 341.833 136.82C341.833 149.44 331.603 159.67 318.983 159.67ZM318.983 164.24C303.84 164.24 291.564 151.964 291.564 136.82C291.564 121.677 303.84 109.401 318.983 109.401C334.127 109.401 346.403 121.677 346.403 136.82C346.403 151.964 334.127 164.24 318.983 164.24Z" fill="black" fill-opacity="0.44"/>
<path d="M306.416 136.82C306.416 143.761 312.043 149.388 318.983 149.388C325.924 149.388 331.551 143.761 331.551 136.82C331.551 129.88 325.924 124.253 318.983 124.253C312.043 124.253 306.416 129.88 306.416 136.82Z" fill="#222222"/>
<ellipse cx="120.551" cy="30.7952" rx="120.551" ry="30.7952" transform="matrix(-0.866025 0.5 0.5 0.866025 405.337 7.13449)" fill="#670000"/>
<path d="M302.219 69.6299C273.52 86.1996 249.329 104.131 233.416 119.676C225.445 127.462 219.658 134.547 216.39 140.474C213.034 146.561 212.748 150.636 214.155 153.073C215.562 155.509 219.234 157.299 226.183 157.436C232.95 157.569 241.979 156.1 252.708 153.091C274.127 147.082 301.751 135.099 330.451 118.529C359.15 101.959 383.34 84.028 399.253 68.4827C407.224 60.6961 413.011 53.6112 416.279 47.684C419.635 41.5969 419.922 37.5219 418.515 35.0854C417.108 32.6491 413.436 30.8592 406.486 30.7221C399.719 30.5887 390.69 32.0583 379.961 35.068C358.542 41.0767 330.918 53.0603 302.219 69.6299Z" stroke="black" stroke-opacity="0.39" stroke-width="5.12621"/>
</g>
</g>
</g>
<defs>
<linearGradient id="paint0_linear_1386_2" x1="253.51" y1="-2.51901" x2="265.334" y2="180.593" gradientUnits="userSpaceOnUse">
<stop stop-color="#F67703"/>
<stop offset="1" stop-color="#FFD600"/>
</linearGradient>
<clipPath id="clip0_1386_2">
<rect width="360" height="280" fill="white"/>
</clipPath>
</defs>
</svg>
